<svg width="19" height="17" viewBox="0 0 19 17" fill="none" xmlns="http://www.w3.org/2000/svg">
<path d="M9.23096 0.0227354L0.508084 3.44958C0.368867 3.50452 0.288481 3.65082 0.316715 3.79797C0.344808 3.94497 0.473591 4.05123 0.623379 4.05081H17.7576C17.9079 4.05276 18.0381 3.94692 18.0672 3.7995C18.0963 3.65194 18.0159 3.5048 17.876 3.44958L9.46461 0.0227389C9.38964 -0.00757965 9.30592 -0.00757965 9.23096 0.0227389V0.0227354ZM2.26832 3.42775L9.34632 0.64886L16.1687 3.42775H2.26832Z" fill="#4B5563"/>
<path d="M17.7573 15.5752H0.311531C0.139495 15.5752 0 15.7147 0 15.8867C0 16.0588 0.139495 16.1983 0.311531 16.1983H17.7573C17.9293 16.1983 18.0688 16.0588 18.0688 15.8867C18.0688 15.7147 17.9293 15.5752 17.7573 15.5752Z" fill="#4B5563"/>
<path d="M16.1996 5.6006C16.3716 5.6006 16.5111 5.46111 16.5111 5.28907C16.5111 5.11703 16.3716 4.97754 16.1996 4.97754H2.14326C1.97122 4.97754 1.83173 5.11703 1.83173 5.28907C1.83173 5.46111 1.97122 5.6006 2.14326 5.6006H2.80374V14.0119H1.86915C1.69711 14.0119 1.55762 14.1514 1.55762 14.3235C1.55762 14.4955 1.69711 14.635 1.86915 14.635H15.9254C16.0975 14.635 16.237 14.4955 16.237 14.3235C16.237 14.1514 16.0975 14.0119 15.9254 14.0119H15.265V5.6006H16.1996ZM9.34586 5.6006H11.8381V14.0119H9.34586V5.6006ZM8.7228 14.0119H6.23055V5.6006H8.7228V14.0119ZM3.42677 5.6006H5.60749V14.0119H3.42677V5.6006ZM14.6419 14.0119H12.4612V5.6006H14.6419V14.0119Z" fill="#4B5563"/>
</svg>
