<svg width="94" height="19" viewBox="0 0 94 19" fill="none" xmlns="http://www.w3.org/2000/svg">
<path d="M4.26428 9.5L2.14238 11.6335L0 9.5L2.14159 7.34746L4.26428 9.5ZM9.45167 4.28608L13.1063 7.95942L15.2487 5.80767L9.45167 0L3.65465 5.82667L5.79702 7.97842L9.45167 4.28608ZM16.7617 7.34746L14.6391 9.5L16.7806 11.6525L18.9215 9.5L16.7617 7.34746ZM9.45167 14.7139L5.79702 11.0216L3.65465 13.1741L9.45167 19L15.2487 13.1733L13.1063 11.0216L9.45167 14.7139ZM9.45167 11.6343L11.5933 9.481L9.45167 7.34825L7.31008 9.5L9.45167 11.6335V11.6343ZM31.9734 11.856V11.8196C31.9734 10.4278 31.2346 9.72246 30.035 9.25854C30.7731 8.85083 31.4008 8.18188 31.4008 7.01338V6.97696C31.4008 5.34375 30.0902 4.28608 27.9856 4.28608H23.1676V14.6957H28.0967C30.4407 14.7139 31.9734 13.7489 31.9734 11.8568V11.856ZM29.13 7.40367C29.13 8.18267 28.5023 8.49775 27.487 8.49775H25.3832V6.28979H27.6351C28.5952 6.28979 29.13 6.67929 29.13 7.36646V7.40367ZM29.7027 11.5599C29.7027 12.3389 29.0938 12.692 28.0959 12.692H25.3832V10.4088H28.0226C29.186 10.4088 29.7027 10.8363 29.7027 11.5409V11.5599ZM36.7544 14.7139V4.28608H34.4655V14.6957H36.7544V14.7139ZM49.0124 14.7139V4.28608H46.7598V10.7065L41.9048 4.28608H39.8002V14.6957H42.0528V8.09004L47.074 14.7139H49.0116H49.0124ZM61.6383 14.7139L57.1905 4.23067H55.0867L50.6373 14.7139H52.9821L53.9233 12.3761H58.2987L59.2399 14.7139H61.6398H61.6383ZM57.485 10.3534H54.7346L56.1193 6.97696L57.485 10.3534ZM72.5124 14.7139V4.28608H70.2598V10.7065L65.4048 4.28608H63.3002V14.6957H65.5528V8.09004L70.574 14.7139H72.5116H72.5124ZM84.2711 13.0253L82.8132 11.5599C82.0003 12.3017 81.2804 12.7838 80.0808 12.7838C78.3087 12.7838 77.0721 11.2995 77.0721 9.51821V9.46279C77.0721 7.68154 78.3268 6.21617 80.0808 6.21617C81.1142 6.21617 81.9271 6.66108 82.7391 7.38467L84.197 5.69604C83.2377 4.75 82.0744 4.08183 80.1179 4.08183C76.9429 4.08183 74.7091 6.51225 74.7091 9.46279V9.5C74.7091 12.487 76.9791 14.862 80.0257 14.862C82.0192 14.881 83.2007 14.1756 84.2711 13.0253ZM94 14.7139V12.673H88.3692V10.4832H93.2612V8.44233H88.3692V6.327H93.926V4.28608H86.1173V14.6957H94V14.7139Z" fill="#F0B90B"/>
</svg>
