<?xml version="1.0" encoding="UTF-8"?>
<svg id="a" xmlns="http://www.w3.org/2000/svg" viewBox="0 0 81.91 24">
<defs><style>.b{fill:#fff;}.c{fill:#ff8500;}.d{fill:#9b2ad6;}</style></defs>
<path class="d" d="M12,0h0c6.63,0,12,5.37,12,12h0c0,6.63-5.37,12-12,12h0C5.37,24,0,18.63,0,12H0C0,5.37,5.37,0,12,0Z"/>
<path class="c" d="M17.19,15.91c0-.8,.62-1.32,1.4-1.32s1.42,.52,1.42,1.32-.63,1.35-1.41,1.35-1.41-.57-1.41-1.35Z"/>
<path class="d" d="M35.25,6.05c1.26,0,2.25,.26,2.98,.77s1.09,1.2,1.09,2.09c0,.6-.18,1.14-.54,1.6-.35,.44-.82,.74-1.43,.9,.74,.15,1.32,.48,1.74,1,.43,.51,.64,1.14,.64,1.89,0,.98-.39,1.75-1.16,2.31-.77,.57-1.82,.85-3.14,.85h-5.43V6.06h5.25Zm-.13,4.59c.48,0,.87-.1,1.14-.33,.28-.22,.42-.54,.42-.94s-.14-.7-.42-.91c-.33-.23-.74-.34-1.14-.31h-2.55v2.49h2.55Zm0,4.7c.6,0,1.08-.11,1.43-.35,.35-.25,.52-.6,.52-1.03,0-.4-.17-.74-.52-.97-.43-.26-.93-.38-1.43-.35h-2.55v2.7h2.55Zm6.43-6.65h2.51v8.76h-2.5V8.69h0Zm1.24-3.89c.4,0,.73,.13,.98,.4,.26,.25,.39,.59,.39,1s-.13,.75-.4,1.01c-.24,.26-.57,.4-.97,.4s-.72-.14-.98-.4c-.25-.27-.37-.6-.37-1,0-.42,.12-.76,.37-1.02,.26-.26,.59-.39,.98-.39Zm9.11,12.17c-.69,.41-1.49,.62-2.29,.6-.81,0-1.48-.23-1.99-.7-.5-.46-.76-1.13-.76-2v-4.07h-1.22v-1.7h1.22v-2.43h2.5v2.43h2.37v1.74h-2.38v3.62c0,.67,.27,1,.8,1,.37,0,.78-.1,1.22-.32l.52,1.84h.01Zm6.87-8.37c.81,0,1.53,.2,2.15,.57,.63,.37,1.11,.9,1.45,1.58,.34,.69,.52,1.48,.52,2.37s-.17,1.65-.5,2.33c-.32,.64-.83,1.18-1.45,1.54-.6,.37-1.32,.56-2.14,.56-.6,0-1.15-.12-1.62-.34-.48-.24-.89-.6-1.2-1.03v1.27h-2.5V5.37h2.5v4.61c.32-.44,.71-.78,1.18-1,.5-.25,1.04-.37,1.6-.37h.01Zm-.6,6.86c.65,0,1.17-.22,1.57-.67s.6-1.04,.6-1.76-.2-1.28-.6-1.72c-.4-.46-.92-.69-1.56-.69s-1.17,.23-1.58,.69c-.4,.44-.6,1.02-.6,1.72s.2,1.32,.6,1.76c.41,.45,.94,.67,1.58,.67h0Zm11.91-6.87c.98,0,1.76,.3,2.33,.9,.59,.62,.88,1.43,.88,2.45v5.51h-2.5v-4.77c0-.56-.16-1-.48-1.3-.3-.33-.72-.5-1.25-.5-.62,.01-1.11,.23-1.47,.66-.36,.4-.54,.94-.54,1.6v4.31h-2.5V8.69h2.5v1.54c.61-1.07,1.62-1.61,3.03-1.63Zm10.9,2.67c-.45-.26-.93-.47-1.42-.62-.4-.14-.82-.22-1.25-.23-.3,0-.55,.06-.73,.16-.18,.1-.29,.29-.28,.5,0,.23,.13,.42,.38,.55,.24,.13,.65,.27,1.22,.44,.62,.18,1.13,.37,1.53,.55,.4,.17,.75,.44,1.04,.8,.3,.35,.44,.8,.44,1.38,0,.87-.34,1.55-1,2.04-.67,.48-1.52,.72-2.57,.72-.71,0-1.4-.1-2.07-.31-.62-.2-1.21-.51-1.72-.91l.81-1.7c.86,.7,1.94,1.09,3.05,1.1,.33,0,.6-.06,.8-.17,.2-.12,.3-.3,.3-.52,0-.25-.12-.45-.38-.59-.25-.14-.66-.3-1.23-.45-.6-.18-1.1-.35-1.5-.53-.39-.18-.73-.44-1-.78-.3-.4-.45-.88-.43-1.38,0-.87,.33-1.54,.98-2.02,.72-.5,1.59-.75,2.47-.72,1.21,0,2.4,.33,3.43,.98l-.87,1.7h0Z"/>
<path class="b" d="M17.14,12.57c0,2.86-2.1,4.69-4.8,4.69-1.3,0-2.34-.4-3.04-1.19v1.05h-2.31V4.56h2.43v4.42c.72-.75,1.7-1.1,2.9-1.1,2.7,0,4.8,1.82,4.8,4.69h.02Z"/>
<path class="d" d="M14.95,12.62c0-1.58-1.05-2.53-2.45-2.53s-2.46,.95-2.46,2.53,1.06,2.52,2.46,2.52,2.45-.95,2.45-2.52Z"/>
</svg>