<svg width="29" height="29" viewBox="0 0 29 29" fill="none" xmlns="http://www.w3.org/2000/svg">
<path d="M9.11133 14.0986C9.11133 12.2169 9.73923 10.8581 10.7074 9.96642C11.6823 9.06853 13.0522 8.59863 14.6113 8.59863C16.1704 8.59863 17.5403 9.06853 18.5152 9.96642C19.4834 10.8581 20.1113 12.2169 20.1113 14.0986C20.1113 16.0712 19.8458 16.7139 19.5626 17.0951C19.4521 17.2439 19.3439 17.3518 19.2049 17.4904C19.1324 17.5627 19.0516 17.6433 18.9576 17.7424C18.7007 18.0136 18.4262 18.3509 18.1641 18.875C17.7227 19.7578 17.4662 20.46 17.3172 20.9817C17.2121 21.3494 16.8911 21.5986 16.6113 21.5986H12.6113C12.3315 21.5986 12.0106 21.3494 11.9055 20.9817C11.7565 20.46 11.4999 19.7578 11.0585 18.875C10.7965 18.3509 10.5219 18.0136 10.265 17.7424C10.1711 17.6433 10.0902 17.5627 10.0178 17.4904C9.87877 17.3518 9.77058 17.2439 9.66003 17.0951C9.37686 16.7139 9.11133 16.0712 9.11133 14.0986Z" stroke="#2653F1"/>
<path d="M12.6261 13.666C12.6261 13.166 13.1261 12.166 14.1261 12.166" stroke="#2653F1" stroke-linecap="round"/>
<path d="M11.9348 26.4849L12.2071 26.0656L12.2071 26.0656L11.9348 26.4849ZM13.6063 27.3022L13.7268 26.8169L13.7268 26.8169L13.6063 27.3022ZM15.6163 27.3022L15.4959 26.8169L15.4959 26.8169L15.6163 27.3022ZM17.2879 26.4849L17.0156 26.0656L17.0156 26.0656L17.2879 26.4849ZM11.8259 26.6527L11.5536 27.072L11.5536 27.072L11.8259 26.6527ZM13.5582 27.4963L13.6786 27.011L13.6786 27.011L13.5582 27.4963ZM15.6645 27.4963L15.785 27.9815L15.785 27.9815L15.6645 27.4963ZM17.3968 26.6527L17.669 27.072L17.669 27.072L17.3968 26.6527ZM12.1113 24.2088H17.1113V23.2088H12.1113V24.2088ZM12.3113 24.0088C12.3113 24.1192 12.2218 24.2088 12.1113 24.2088V23.2088C11.6695 23.2088 11.3113 23.567 11.3113 24.0088H12.3113ZM12.3113 26.2498V24.0088H11.3113V26.2498H12.3113ZM12.2071 26.0656C12.2796 26.1126 12.3113 26.1872 12.3113 26.2498H11.3113C11.3113 26.509 11.4372 26.758 11.6625 26.9043L12.2071 26.0656ZM13.7268 26.8169C13.2369 26.6953 12.5734 26.3034 12.2071 26.0656L11.6625 26.9043C12.0225 27.138 12.8138 27.6206 13.4859 27.7874L13.7268 26.8169ZM13.6662 26.8088C13.6773 26.8088 13.6987 26.8099 13.7268 26.8169L13.4859 27.7874C13.5485 27.803 13.6093 27.8088 13.6662 27.8088V26.8088ZM13.669 26.8088H13.6662V27.8088H13.669V26.8088ZM13.6717 26.8088H13.669V27.8088H13.6717V26.8088ZM13.6745 26.8088H13.6717V27.8088H13.6745V26.8088ZM13.6773 26.8088H13.6745V27.8088H13.6773V26.8088ZM13.6801 26.8088H13.6773V27.8088H13.6801V26.8088ZM13.6828 26.8088H13.6801V27.8088H13.6828V26.8088ZM13.6856 26.8088H13.6828V27.8088H13.6856V26.8088ZM13.6884 26.8088H13.6856V27.8088H13.6884V26.8088ZM13.6912 26.8088H13.6884V27.8088H13.6912V26.8088ZM13.6939 26.8088H13.6912V27.8088H13.6939V26.8088ZM13.6967 26.8088H13.6939V27.8088H13.6967V26.8088ZM13.6995 26.8088H13.6967V27.8088H13.6995V26.8088ZM13.7023 26.8088H13.6995V27.8088H13.7023V26.8088ZM13.7051 26.8088H13.7023V27.8088H13.7051V26.8088ZM13.7078 26.8088H13.7051V27.8088H13.7078V26.8088ZM13.7106 26.8088H13.7078V27.8088H13.7106V26.8088ZM13.7134 26.8088H13.7106V27.8088H13.7134V26.8088ZM13.7162 26.8088H13.7134V27.8088H13.7162V26.8088ZM13.719 26.8088H13.7162V27.8088H13.719V26.8088ZM13.7217 26.8088H13.719V27.8088H13.7217V26.8088ZM13.7245 26.8088H13.7217V27.8088H13.7245V26.8088ZM13.7273 26.8088H13.7245V27.8088H13.7273V26.8088ZM13.7301 26.8088H13.7273V27.8088H13.7301V26.8088ZM13.7329 26.8088H13.7301V27.8088H13.7329V26.8088ZM13.7357 26.8088H13.7329V27.8088H13.7357V26.8088ZM13.7385 26.8088H13.7357V27.8088H13.7385V26.8088ZM13.7412 26.8088H13.7385V27.8088H13.7412V26.8088ZM13.744 26.8088H13.7412V27.8088H13.744V26.8088ZM13.7468 26.8088H13.744V27.8088H13.7468V26.8088ZM13.7496 26.8088H13.7468V27.8088H13.7496V26.8088ZM13.7524 26.8088H13.7496V27.8088H13.7524V26.8088ZM13.7552 26.8088H13.7524V27.8088H13.7552V26.8088ZM13.758 26.8088H13.7552V27.8088H13.758V26.8088ZM13.7608 26.8088H13.758V27.8088H13.7608V26.8088ZM13.7636 26.8088H13.7608V27.8088H13.7636V26.8088ZM13.7664 26.8088H13.7636V27.8088H13.7664V26.8088ZM13.7692 26.8088H13.7664V27.8088H13.7692V26.8088ZM13.772 26.8088H13.7692V27.8088H13.772V26.8088ZM13.7748 26.8088H13.772V27.8088H13.7748V26.8088ZM13.7776 26.8088H13.7748V27.8088H13.7776V26.8088ZM13.7804 26.8088H13.7776V27.8088H13.7804V26.8088ZM13.7832 26.8088H13.7804V27.8088H13.7832V26.8088ZM13.786 26.8088H13.7832V27.8088H13.786V26.8088ZM13.7888 26.8088H13.786V27.8088H13.7888V26.8088ZM13.7916 26.8088H13.7888V27.8088H13.7916V26.8088ZM13.7944 26.8088H13.7916V27.8088H13.7944V26.8088ZM13.7972 26.8088H13.7944V27.8088H13.7972V26.8088ZM13.8 26.8088H13.7972V27.8088H13.8V26.8088ZM13.8028 26.8088H13.8V27.8088H13.8028V26.8088ZM13.8057 26.8088H13.8028V27.8088H13.8057V26.8088ZM13.8085 26.8088H13.8057V27.8088H13.8085V26.8088ZM13.8113 26.8088H13.8085V27.8088H13.8113V26.8088ZM13.8141 26.8088H13.8113V27.8088H13.8141V26.8088ZM13.8169 26.8088H13.8141V27.8088H13.8169V26.8088ZM13.8197 26.8088H13.8169V27.8088H13.8197V26.8088ZM13.8226 26.8088H13.8197V27.8088H13.8226V26.8088ZM13.8254 26.8088H13.8226V27.8088H13.8254V26.8088ZM13.8282 26.8088H13.8254V27.8088H13.8282V26.8088ZM13.831 26.8088H13.8282V27.8088H13.831V26.8088ZM13.8339 26.8088H13.831V27.8088H13.8339V26.8088ZM13.8367 26.8088H13.8339V27.8088H13.8367V26.8088ZM13.8395 26.8088H13.8367V27.8088H13.8395V26.8088ZM13.8424 26.8088H13.8395V27.8088H13.8424V26.8088ZM13.8452 26.8088H13.8424V27.8088H13.8452V26.8088ZM13.848 26.8088H13.8452V27.8088H13.848V26.8088ZM13.8509 26.8088H13.848V27.8088H13.8509V26.8088ZM13.8537 26.8088H13.8509V27.8088H13.8537V26.8088ZM13.8565 26.8088H13.8537V27.8088H13.8565V26.8088ZM13.8594 26.8088H13.8565V27.8088H13.8594V26.8088ZM13.8622 26.8088H13.8594V27.8088H13.8622V26.8088ZM13.8651 26.8088H13.8622V27.8088H13.8651V26.8088ZM13.8679 26.8088H13.8651V27.8088H13.8679V26.8088ZM13.8708 26.8088H13.8679V27.8088H13.8708V26.8088ZM13.8736 26.8088H13.8708V27.8088H13.8736V26.8088ZM13.8765 26.8088H13.8736V27.8088H13.8765V26.8088ZM13.8793 26.8088H13.8765V27.8088H13.8793V26.8088ZM13.8822 26.8088H13.8793V27.8088H13.8822V26.8088ZM13.885 26.8088H13.8822V27.8088H13.885V26.8088ZM13.8879 26.8088H13.885V27.8088H13.8879V26.8088ZM13.8908 26.8088H13.8879V27.8088H13.8908V26.8088ZM13.8936 26.8088H13.8908V27.8088H13.8936V26.8088ZM13.8965 26.8088H13.8936V27.8088H13.8965V26.8088ZM13.8993 26.8088H13.8965V27.8088H13.8993V26.8088ZM13.9022 26.8088H13.8993V27.8088H13.9022V26.8088ZM13.9051 26.8088H13.9022V27.8088H13.9051V26.8088ZM13.908 26.8088H13.9051V27.8088H13.908V26.8088ZM13.9108 26.8088H13.908V27.8088H13.9108V26.8088ZM13.9137 26.8088H13.9108V27.8088H13.9137V26.8088ZM13.9166 26.8088H13.9137V27.8088H13.9166V26.8088ZM13.9195 26.8088H13.9166V27.8088H13.9195V26.8088ZM13.9224 26.8088H13.9195V27.8088H13.9224V26.8088ZM13.9252 26.8088H13.9224V27.8088H13.9252V26.8088ZM13.9281 26.8088H13.9252V27.8088H13.9281V26.8088ZM13.931 26.8088H13.9281V27.8088H13.931V26.8088ZM13.9339 26.8088H13.931V27.8088H13.9339V26.8088ZM13.9368 26.8088H13.9339V27.8088H13.9368V26.8088ZM13.9397 26.8088H13.9368V27.8088H13.9397V26.8088ZM13.9426 26.8088H13.9397V27.8088H13.9426V26.8088ZM13.9455 26.8088H13.9426V27.8088H13.9455V26.8088ZM13.9484 26.8088H13.9455V27.8088H13.9484V26.8088ZM13.9513 26.8088H13.9484V27.8088H13.9513V26.8088ZM13.9542 26.8088H13.9513V27.8088H13.9542V26.8088ZM13.9571 26.8088H13.9542V27.8088H13.9571V26.8088ZM13.96 26.8088H13.9571V27.8088H13.96V26.8088ZM13.9629 26.8088H13.96V27.8088H13.9629V26.8088ZM13.9659 26.8088H13.9629V27.8088H13.9659V26.8088ZM13.9688 26.8088H13.9659V27.8088H13.9688V26.8088ZM13.9717 26.8088H13.9688V27.8088H13.9717V26.8088ZM13.9746 26.8088H13.9717V27.8088H13.9746V26.8088ZM13.9775 26.8088H13.9746V27.8088H13.9775V26.8088ZM13.9805 26.8088H13.9775V27.8088H13.9805V26.8088ZM13.9834 26.8088H13.9805V27.8088H13.9834V26.8088ZM13.9863 26.8088H13.9834V27.8088H13.9863V26.8088ZM13.9893 26.8088H13.9863V27.8088H13.9893V26.8088ZM13.9922 26.8088H13.9893V27.8088H13.9922V26.8088ZM13.9952 26.8088H13.9922V27.8088H13.9952V26.8088ZM13.9981 26.8088H13.9952V27.8088H13.9981V26.8088ZM14.001 26.8088H13.9981V27.8088H14.001V26.8088ZM14.004 26.8088H14.001V27.8088H14.004V26.8088ZM14.0069 26.8088H14.004V27.8088H14.0069V26.8088ZM14.0099 26.8088H14.0069V27.8088H14.0099V26.8088ZM14.0129 26.8088H14.0099V27.8088H14.0129V26.8088ZM14.0158 26.8088H14.0129V27.8088H14.0158V26.8088ZM14.0188 26.8088H14.0158V27.8088H14.0188V26.8088ZM14.0217 26.8088H14.0188V27.8088H14.0217V26.8088ZM14.0247 26.8088H14.0217V27.8088H14.0247V26.8088ZM14.0277 26.8088H14.0247V27.8088H14.0277V26.8088ZM14.0306 26.8088H14.0277V27.8088H14.0306V26.8088ZM14.0336 26.8088H14.0306V27.8088H14.0336V26.8088ZM14.0366 26.8088H14.0336V27.8088H14.0366V26.8088ZM14.0396 26.8088H14.0366V27.8088H14.0396V26.8088ZM14.0426 26.8088H14.0396V27.8088H14.0426V26.8088ZM14.0456 26.8088H14.0426V27.8088H14.0456V26.8088ZM14.0485 26.8088H14.0456V27.8088H14.0485V26.8088ZM14.0515 26.8088H14.0485V27.8088H14.0515V26.8088ZM14.0545 26.8088H14.0515V27.8088H14.0545V26.8088ZM14.0575 26.8088H14.0545V27.8088H14.0575V26.8088ZM14.0605 26.8088H14.0575V27.8088H14.0605V26.8088ZM14.0635 26.8088H14.0605V27.8088H14.0635V26.8088ZM14.0665 26.8088H14.0635V27.8088H14.0665V26.8088ZM14.0696 26.8088H14.0665V27.8088H14.0696V26.8088ZM14.0726 26.8088H14.0696V27.8088H14.0726V26.8088ZM14.0756 26.8088H14.0726V27.8088H14.0756V26.8088ZM14.0786 26.8088H14.0756V27.8088H14.0786V26.8088ZM14.0816 26.8088H14.0786V27.8088H14.0816V26.8088ZM14.0847 26.8088H14.0816V27.8088H14.0847V26.8088ZM14.0877 26.8088H14.0847V27.8088H14.0877V26.8088ZM14.0907 26.8088H14.0877V27.8088H14.0907V26.8088ZM14.0937 26.8088H14.0907V27.8088H14.0937V26.8088ZM14.0968 26.8088H14.0937V27.8088H14.0968V26.8088ZM14.0998 26.8088H14.0968V27.8088H14.0998V26.8088ZM14.1029 26.8088H14.0998V27.8088H14.1029V26.8088ZM14.1059 26.8088H14.1029V27.8088H14.1059V26.8088ZM14.109 26.8088H14.1059V27.8088H14.109V26.8088ZM14.112 26.8088H14.109V27.8088H14.112V26.8088ZM14.1151 26.8088H14.112V27.8088H14.1151V26.8088ZM14.1181 26.8088H14.1151V27.8088H14.1181V26.8088ZM14.1212 26.8088H14.1181V27.8088H14.1212V26.8088ZM14.1243 26.8088H14.1212V27.8088H14.1243V26.8088ZM14.1273 26.8088H14.1243V27.8088H14.1273V26.8088ZM14.1304 26.8088H14.1273V27.8088H14.1304V26.8088ZM14.1335 26.8088H14.1304V27.8088H14.1335V26.8088ZM14.1366 26.8088H14.1335V27.8088H14.1366V26.8088ZM14.1397 26.8088H14.1366V27.8088H14.1397V26.8088ZM14.1428 26.8088H14.1397V27.8088H14.1428V26.8088ZM14.1458 26.8088H14.1428V27.8088H14.1458V26.8088ZM14.1489 26.8088H14.1458V27.8088H14.1489V26.8088ZM14.152 26.8088H14.1489V27.8088H14.152V26.8088ZM14.1551 26.8088H14.152V27.8088H14.1551V26.8088ZM14.1583 26.8088H14.1551V27.8088H14.1583V26.8088ZM14.1614 26.8088H14.1583V27.8088H14.1614V26.8088ZM14.1645 26.8088H14.1614V27.8088H14.1645V26.8088ZM14.1676 26.8088H14.1645V27.8088H14.1676V26.8088ZM14.1707 26.8088H14.1676V27.8088H14.1707V26.8088ZM14.1738 26.8088H14.1707V27.8088H14.1738V26.8088ZM14.177 26.8088H14.1738V27.8088H14.177V26.8088ZM14.1801 26.8088H14.177V27.8088H14.1801V26.8088ZM14.1832 26.8088H14.1801V27.8088H14.1832V26.8088ZM14.1864 26.8088H14.1832V27.8088H14.1864V26.8088ZM14.1895 26.8088H14.1864V27.8088H14.1895V26.8088ZM14.1927 26.8088H14.1895V27.8088H14.1927V26.8088ZM14.1958 26.8088H14.1927V27.8088H14.1958V26.8088ZM14.199 26.8088H14.1958V27.8088H14.199V26.8088ZM14.2021 26.8088H14.199V27.8088H14.2021V26.8088ZM14.2053 26.8088H14.2021V27.8088H14.2053V26.8088ZM14.2084 26.8088H14.2053V27.8088H14.2084V26.8088ZM14.2116 26.8088H14.2084V27.8088H14.2116V26.8088ZM14.2148 26.8088H14.2116V27.8088H14.2148V26.8088ZM14.218 26.8088H14.2148V27.8088H14.218V26.8088ZM14.2211 26.8088H14.218V27.8088H14.2211V26.8088ZM14.2243 26.8088H14.2211V27.8088H14.2243V26.8088ZM14.2275 26.8088H14.2243V27.8088H14.2275V26.8088ZM14.2307 26.8088H14.2275V27.8088H14.2307V26.8088ZM14.2339 26.8088H14.2307V27.8088H14.2339V26.8088ZM14.2371 26.8088H14.2339V27.8088H14.2371V26.8088ZM14.2403 26.8088H14.2371V27.8088H14.2403V26.8088ZM14.2435 26.8088H14.2403V27.8088H14.2435V26.8088ZM14.2467 26.8088H14.2435V27.8088H14.2467V26.8088ZM14.25 26.8088H14.2467V27.8088H14.25V26.8088ZM14.2532 26.8088H14.25V27.8088H14.2532V26.8088ZM14.2564 26.8088H14.2532V27.8088H14.2564V26.8088ZM14.2596 26.8088H14.2564V27.8088H14.2596V26.8088ZM14.2629 26.8088H14.2596V27.8088H14.2629V26.8088ZM14.2661 26.8088H14.2629V27.8088H14.2661V26.8088ZM14.2693 26.8088H14.2661V27.8088H14.2693V26.8088ZM14.2726 26.8088H14.2693V27.8088H14.2726V26.8088ZM14.2758 26.8088H14.2726V27.8088H14.2758V26.8088ZM14.2791 26.8088H14.2758V27.8088H14.2791V26.8088ZM14.2824 26.8088H14.2791V27.8088H14.2824V26.8088ZM14.2856 26.8088H14.2824V27.8088H14.2856V26.8088ZM14.2889 26.8088H14.2856V27.8088H14.2889V26.8088ZM14.2922 26.8088H14.2889V27.8088H14.2922V26.8088ZM14.2954 26.8088H14.2922V27.8088H14.2954V26.8088ZM14.2987 26.8088H14.2954V27.8088H14.2987V26.8088ZM14.302 26.8088H14.2987V27.8088H14.302V26.8088ZM14.3053 26.8088H14.302V27.8088H14.3053V26.8088ZM14.3086 26.8088H14.3053V27.8088H14.3086V26.8088ZM14.3119 26.8088H14.3086V27.8088H14.3119V26.8088ZM14.3152 26.8088H14.3119V27.8088H14.3152V26.8088ZM14.3185 26.8088H14.3152V27.8088H14.3185V26.8088ZM14.3218 26.8088H14.3185V27.8088H14.3218V26.8088ZM14.3251 26.8088H14.3218V27.8088H14.3251V26.8088ZM14.3285 26.8088H14.3251V27.8088H14.3285V26.8088ZM14.3318 26.8088H14.3285V27.8088H14.3318V26.8088ZM14.3351 26.8088H14.3318V27.8088H14.3351V26.8088ZM14.3384 26.8088H14.3351V27.8088H14.3384V26.8088ZM14.3418 26.8088H14.3384V27.8088H14.3418V26.8088ZM14.3451 26.8088H14.3418V27.8088H14.3451V26.8088ZM14.3485 26.8088H14.3451V27.8088H14.3485V26.8088ZM14.3518 26.8088H14.3485V27.8088H14.3518V26.8088ZM14.3552 26.8088H14.3518V27.8088H14.3552V26.8088ZM14.3586 26.8088H14.3552V27.8088H14.3586V26.8088ZM14.3619 26.8088H14.3586V27.8088H14.3619V26.8088ZM14.3653 26.8088H14.3619V27.8088H14.3653V26.8088ZM14.3687 26.8088H14.3653V27.8088H14.3687V26.8088ZM14.3721 26.8088H14.3687V27.8088H14.3721V26.8088ZM14.3754 26.8088H14.3721V27.8088H14.3754V26.8088ZM14.3788 26.8088H14.3754V27.8088H14.3788V26.8088ZM14.3822 26.8088H14.3788V27.8088H14.3822V26.8088ZM14.3856 26.8088H14.3822V27.8088H14.3856V26.8088ZM14.389 26.8088H14.3856V27.8088H14.389V26.8088ZM14.3925 26.8088H14.389V27.8088H14.3925V26.8088ZM14.3959 26.8088H14.3925V27.8088H14.3959V26.8088ZM14.3993 26.8088H14.3959V27.8088H14.3993V26.8088ZM14.4027 26.8088H14.3993V27.8088H14.4027V26.8088ZM14.4062 26.8088H14.4027V27.8088H14.4062V26.8088ZM14.4096 26.8088H14.4062V27.8088H14.4096V26.8088ZM14.413 26.8088H14.4096V27.8088H14.413V26.8088ZM14.4165 26.8088H14.413V27.8088H14.4165V26.8088ZM14.4199 26.8088H14.4165V27.8088H14.4199V26.8088ZM14.4234 26.8088H14.4199V27.8088H14.4234V26.8088ZM14.4269 26.8088H14.4234V27.8088H14.4269V26.8088ZM14.4303 26.8088H14.4269V27.8088H14.4303V26.8088ZM14.4338 26.8088H14.4303V27.8088H14.4338V26.8088ZM14.4373 26.8088H14.4338V27.8088H14.4373V26.8088ZM14.4408 26.8088H14.4373V27.8088H14.4408V26.8088ZM14.4442 26.8088H14.4408V27.8088H14.4442V26.8088ZM14.4477 26.8088H14.4442V27.8088H14.4477V26.8088ZM14.4512 26.8088H14.4477V27.8088H14.4512V26.8088ZM14.4547 26.8088H14.4512V27.8088H14.4547V26.8088ZM14.4582 26.8088H14.4547V27.8088H14.4582V26.8088ZM14.4618 26.8088H14.4582V27.8088H14.4618V26.8088ZM14.4653 26.8088H14.4618V27.8088H14.4653V26.8088ZM14.4688 26.8088H14.4653V27.8088H14.4688V26.8088ZM14.4723 26.8088H14.4688V27.8088H14.4723V26.8088ZM14.4759 26.8088H14.4723V27.8088H14.4759V26.8088ZM14.4794 26.8088H14.4759V27.8088H14.4794V26.8088ZM14.483 26.8088H14.4794V27.8088H14.483V26.8088ZM14.4865 26.8088H14.483V27.8088H14.4865V26.8088ZM14.4901 26.8088H14.4865V27.8088H14.4901V26.8088ZM14.4936 26.8088H14.4901V27.8088H14.4936V26.8088ZM14.4972 26.8088H14.4936V27.8088H14.4972V26.8088ZM14.5008 26.8088H14.4972V27.8088H14.5008V26.8088ZM14.5043 26.8088H14.5008V27.8088H14.5043V26.8088ZM14.5079 26.8088H14.5043V27.8088H14.5079V26.8088ZM14.5115 26.8088H14.5079V27.8088H14.5115V26.8088ZM14.5151 26.8088H14.5115V27.8088H14.5151V26.8088ZM14.5187 26.8088H14.5151V27.8088H14.5187V26.8088ZM14.5223 26.8088H14.5187V27.8088H14.5223V26.8088ZM14.5259 26.8088H14.5223V27.8088H14.5259V26.8088ZM14.5296 26.8088H14.5259V27.8088H14.5296V26.8088ZM14.5332 26.8088H14.5296V27.8088H14.5332V26.8088ZM14.5368 26.8088H14.5332V27.8088H14.5368V26.8088ZM14.5404 26.8088H14.5368V27.8088H14.5404V26.8088ZM14.5441 26.8088H14.5404V27.8088H14.5441V26.8088ZM14.5477 26.8088H14.5441V27.8088H14.5477V26.8088ZM14.5514 26.8088H14.5477V27.8088H14.5514V26.8088ZM14.555 26.8088H14.5514V27.8088H14.555V26.8088ZM14.5587 26.8088H14.555V27.8088H14.5587V26.8088ZM14.5624 26.8088H14.5587V27.8088H14.5624V26.8088ZM14.5661 26.8088H14.5624V27.8088H14.5661V26.8088ZM14.5697 26.8088H14.5661V27.8088H14.5697V26.8088ZM14.5734 26.8088H14.5697V27.8088H14.5734V26.8088ZM14.5771 26.8088H14.5734V27.8088H14.5771V26.8088ZM14.5808 26.8088H14.5771V27.8088H14.5808V26.8088ZM14.5845 26.8088H14.5808V27.8088H14.5845V26.8088ZM14.5882 26.8088H14.5845V27.8088H14.5882V26.8088ZM14.592 26.8088H14.5882V27.8088H14.592V26.8088ZM14.5957 26.8088H14.592V27.8088H14.5957V26.8088ZM14.5994 26.8088H14.5957V27.8088H14.5994V26.8088ZM14.6031 26.8088H14.5994V27.8088H14.6031V26.8088ZM14.6069 26.8088H14.6031V27.8088H14.6069V26.8088ZM14.6106 26.8088H14.6069V27.8088H14.6106V26.8088ZM14.6144 26.8088H14.6106V27.8088H14.6144V26.8088ZM14.6181 26.8088H14.6144V27.8088H14.6181V26.8088ZM14.6219 26.8088H14.6181V27.8088H14.6219V26.8088ZM14.6257 26.8088H14.6219V27.8088H14.6257V26.8088ZM14.6295 26.8088H14.6257V27.8088H14.6295V26.8088ZM14.6332 26.8088H14.6295V27.8088H14.6332V26.8088ZM14.637 26.8088H14.6332V27.8088H14.637V26.8088ZM14.6408 26.8088H14.637V27.8088H14.6408V26.8088ZM14.6446 26.8088H14.6408V27.8088H14.6446V26.8088ZM14.6484 26.8088H14.6446V27.8088H14.6484V26.8088ZM14.6523 26.8088H14.6484V27.8088H14.6523V26.8088ZM14.6561 26.8088H14.6523V27.8088H14.6561V26.8088ZM14.6599 26.8088H14.6561V27.8088H14.6599V26.8088ZM14.6637 26.8088H14.6599V27.8088H14.6637V26.8088ZM14.6676 26.8088H14.6637V27.8088H14.6676V26.8088ZM14.6714 26.8088H14.6676V27.8088H14.6714V26.8088ZM14.6753 26.8088H14.6714V27.8088H14.6753V26.8088ZM14.6791 26.8088H14.6753V27.8088H14.6791V26.8088ZM14.683 26.8088H14.6791V27.8088H14.683V26.8088ZM14.6869 26.8088H14.683V27.8088H14.6869V26.8088ZM14.6908 26.8088H14.6869V27.8088H14.6908V26.8088ZM14.6946 26.8088H14.6908V27.8088H14.6946V26.8088ZM14.6985 26.8088H14.6946V27.8088H14.6985V26.8088ZM14.7024 26.8088H14.6985V27.8088H14.7024V26.8088ZM14.7063 26.8088H14.7024V27.8088H14.7063V26.8088ZM14.7103 26.8088H14.7063V27.8088H14.7103V26.8088ZM14.7142 26.8088H14.7103V27.8088H14.7142V26.8088ZM14.7181 26.8088H14.7142V27.8088H14.7181V26.8088ZM14.722 26.8088H14.7181V27.8088H14.722V26.8088ZM14.726 26.8088H14.722V27.8088H14.726V26.8088ZM14.7299 26.8088H14.726V27.8088H14.7299V26.8088ZM14.7339 26.8088H14.7299V27.8088H14.7339V26.8088ZM14.7378 26.8088H14.7339V27.8088H14.7378V26.8088ZM14.7418 26.8088H14.7378V27.8088H14.7418V26.8088ZM14.7458 26.8088H14.7418V27.8088H14.7458V26.8088ZM14.7497 26.8088H14.7458V27.8088H14.7497V26.8088ZM14.7537 26.8088H14.7497V27.8088H14.7537V26.8088ZM14.7577 26.8088H14.7537V27.8088H14.7577V26.8088ZM14.7617 26.8088H14.7577V27.8088H14.7617V26.8088ZM14.7657 26.8088H14.7617V27.8088H14.7657V26.8088ZM14.7697 26.8088H14.7657V27.8088H14.7697V26.8088ZM14.7737 26.8088H14.7697V27.8088H14.7737V26.8088ZM14.7778 26.8088H14.7737V27.8088H14.7778V26.8088ZM14.7818 26.8088H14.7778V27.8088H14.7818V26.8088ZM14.7858 26.8088H14.7818V27.8088H14.7858V26.8088ZM14.7899 26.8088H14.7858V27.8088H14.7899V26.8088ZM14.7939 26.8088H14.7899V27.8088H14.7939V26.8088ZM14.798 26.8088H14.7939V27.8088H14.798V26.8088ZM14.8021 26.8088H14.798V27.8088H14.8021V26.8088ZM14.8062 26.8088H14.8021V27.8088H14.8062V26.8088ZM14.8102 26.8088H14.8062V27.8088H14.8102V26.8088ZM14.8143 26.8088H14.8102V27.8088H14.8143V26.8088ZM14.8184 26.8088H14.8143V27.8088H14.8184V26.8088ZM14.8225 26.8088H14.8184V27.8088H14.8225V26.8088ZM14.8266 26.8088H14.8225V27.8088H14.8266V26.8088ZM14.8308 26.8088H14.8266V27.8088H14.8308V26.8088ZM14.8349 26.8088H14.8308V27.8088H14.8349V26.8088ZM14.839 26.8088H14.8349V27.8088H14.839V26.8088ZM14.8431 26.8088H14.839V27.8088H14.8431V26.8088ZM14.8473 26.8088H14.8431V27.8088H14.8473V26.8088ZM14.8514 26.8088H14.8473V27.8088H14.8514V26.8088ZM14.8556 26.8088H14.8514V27.8088H14.8556V26.8088ZM14.8598 26.8088H14.8556V27.8088H14.8598V26.8088ZM14.8639 26.8088H14.8598V27.8088H14.8639V26.8088ZM14.8681 26.8088H14.8639V27.8088H14.8681V26.8088ZM14.8723 26.8088H14.8681V27.8088H14.8723V26.8088ZM14.8765 26.8088H14.8723V27.8088H14.8765V26.8088ZM14.8807 26.8088H14.8765V27.8088H14.8807V26.8088ZM14.8849 26.8088H14.8807V27.8088H14.8849V26.8088ZM14.8892 26.8088H14.8849V27.8088H14.8892V26.8088ZM14.8934 26.8088H14.8892V27.8088H14.8934V26.8088ZM14.8976 26.8088H14.8934V27.8088H14.8976V26.8088ZM14.9019 26.8088H14.8976V27.8088H14.9019V26.8088ZM14.9061 26.8088H14.9019V27.8088H14.9061V26.8088ZM14.9104 26.8088H14.9061V27.8088H14.9104V26.8088ZM14.9146 26.8088H14.9104V27.8088H14.9146V26.8088ZM14.9189 26.8088H14.9146V27.8088H14.9189V26.8088ZM14.9232 26.8088H14.9189V27.8088H14.9232V26.8088ZM14.9275 26.8088H14.9232V27.8088H14.9275V26.8088ZM14.9318 26.8088H14.9275V27.8088H14.9318V26.8088ZM14.9361 26.8088H14.9318V27.8088H14.9361V26.8088ZM14.9404 26.8088H14.9361V27.8088H14.9404V26.8088ZM14.9447 26.8088H14.9404V27.8088H14.9447V26.8088ZM14.949 26.8088H14.9447V27.8088H14.949V26.8088ZM14.9533 26.8088H14.949V27.8088H14.9533V26.8088ZM14.9577 26.8088H14.9533V27.8088H14.9577V26.8088ZM14.962 26.8088H14.9577V27.8088H14.962V26.8088ZM14.9664 26.8088H14.962V27.8088H14.9664V26.8088ZM14.9707 26.8088H14.9664V27.8088H14.9707V26.8088ZM14.9751 26.8088H14.9707V27.8088H14.9751V26.8088ZM14.9795 26.8088H14.9751V27.8088H14.9795V26.8088ZM14.9839 26.8088H14.9795V27.8088H14.9839V26.8088ZM14.9883 26.8088H14.9839V27.8088H14.9883V26.8088ZM14.9927 26.8088H14.9883V27.8088H14.9927V26.8088ZM14.9971 26.8088H14.9927V27.8088H14.9971V26.8088ZM15.0015 26.8088H14.9971V27.8088H15.0015V26.8088ZM15.0059 26.8088H15.0015V27.8088H15.0059V26.8088ZM15.0104 26.8088H15.0059V27.8088H15.0104V26.8088ZM15.0148 26.8088H15.0104V27.8088H15.0148V26.8088ZM15.0193 26.8088H15.0148V27.8088H15.0193V26.8088ZM15.0237 26.8088H15.0193V27.8088H15.0237V26.8088ZM15.0282 26.8088H15.0237V27.8088H15.0282V26.8088ZM15.0326 26.8088H15.0282V27.8088H15.0326V26.8088ZM15.0371 26.8088H15.0326V27.8088H15.0371V26.8088ZM15.0416 26.8088H15.0371V27.8088H15.0416V26.8088ZM15.0461 26.8088H15.0416V27.8088H15.0461V26.8088ZM15.0506 26.8088H15.0461V27.8088H15.0506V26.8088ZM15.0551 26.8088H15.0506V27.8088H15.0551V26.8088ZM15.0597 26.8088H15.0551V27.8088H15.0597V26.8088ZM15.0642 26.8088H15.0597V27.8088H15.0642V26.8088ZM15.0687 26.8088H15.0642V27.8088H15.0687V26.8088ZM15.0733 26.8088H15.0687V27.8088H15.0733V26.8088ZM15.0778 26.8088H15.0733V27.8088H15.0778V26.8088ZM15.0824 26.8088H15.0778V27.8088H15.0824V26.8088ZM15.087 26.8088H15.0824V27.8088H15.087V26.8088ZM15.0915 26.8088H15.087V27.8088H15.0915V26.8088ZM15.0961 26.8088H15.0915V27.8088H15.0961V26.8088ZM15.1007 26.8088H15.0961V27.8088H15.1007V26.8088ZM15.1053 26.8088H15.1007V27.8088H15.1053V26.8088ZM15.1099 26.8088H15.1053V27.8088H15.1099V26.8088ZM15.1146 26.8088H15.1099V27.8088H15.1146V26.8088ZM15.1192 26.8088H15.1146V27.8088H15.1192V26.8088ZM15.1238 26.8088H15.1192V27.8088H15.1238V26.8088ZM15.1285 26.8088H15.1238V27.8088H15.1285V26.8088ZM15.1331 26.8088H15.1285V27.8088H15.1331V26.8088ZM15.1378 26.8088H15.1331V27.8088H15.1378V26.8088ZM15.1425 26.8088H15.1378V27.8088H15.1425V26.8088ZM15.1471 26.8088H15.1425V27.8088H15.1471V26.8088ZM15.1518 26.8088H15.1471V27.8088H15.1518V26.8088ZM15.1565 26.8088H15.1518V27.8088H15.1565V26.8088ZM15.1612 26.8088H15.1565V27.8088H15.1612V26.8088ZM15.1659 26.8088H15.1612V27.8088H15.1659V26.8088ZM15.1707 26.8088H15.1659V27.8088H15.1707V26.8088ZM15.1754 26.8088H15.1707V27.8088H15.1754V26.8088ZM15.1801 26.8088H15.1754V27.8088H15.1801V26.8088ZM15.1849 26.8088H15.1801V27.8088H15.1849V26.8088ZM15.1896 26.8088H15.1849V27.8088H15.1896V26.8088ZM15.1944 26.8088H15.1896V27.8088H15.1944V26.8088ZM15.1992 26.8088H15.1944V27.8088H15.1992V26.8088ZM15.204 26.8088H15.1992V27.8088H15.204V26.8088ZM15.2088 26.8088H15.204V27.8088H15.2088V26.8088ZM15.2136 26.8088H15.2088V27.8088H15.2136V26.8088ZM15.2184 26.8088H15.2136V27.8088H15.2184V26.8088ZM15.2232 26.8088H15.2184V27.8088H15.2232V26.8088ZM15.228 26.8088H15.2232V27.8088H15.228V26.8088ZM15.2328 26.8088H15.228V27.8088H15.2328V26.8088ZM15.2377 26.8088H15.2328V27.8088H15.2377V26.8088ZM15.2425 26.8088H15.2377V27.8088H15.2425V26.8088ZM15.2474 26.8088H15.2425V27.8088H15.2474V26.8088ZM15.2523 26.8088H15.2474V27.8088H15.2523V26.8088ZM15.2572 26.8088H15.2523V27.8088H15.2572V26.8088ZM15.262 26.8088H15.2572V27.8088H15.262V26.8088ZM15.2669 26.8088H15.262V27.8088H15.2669V26.8088ZM15.2719 26.8088H15.2669V27.8088H15.2719V26.8088ZM15.2768 26.8088H15.2719V27.8088H15.2768V26.8088ZM15.2817 26.8088H15.2768V27.8088H15.2817V26.8088ZM15.2866 26.8088H15.2817V27.8088H15.2866V26.8088ZM15.2916 26.8088H15.2866V27.8088H15.2916V26.8088ZM15.2965 26.8088H15.2916V27.8088H15.2965V26.8088ZM15.3015 26.8088H15.2965V27.8088H15.3015V26.8088ZM15.3065 26.8088H15.3015V27.8088H15.3065V26.8088ZM15.3114 26.8088H15.3065V27.8088H15.3114V26.8088ZM15.3164 26.8088H15.3114V27.8088H15.3164V26.8088ZM15.3214 26.8088H15.3164V27.8088H15.3214V26.8088ZM15.3264 26.8088H15.3214V27.8088H15.3264V26.8088ZM15.3314 26.8088H15.3264V27.8088H15.3314V26.8088ZM15.3365 26.8088H15.3314V27.8088H15.3365V26.8088ZM15.3415 26.8088H15.3365V27.8088H15.3415V26.8088ZM15.3465 26.8088H15.3415V27.8088H15.3465V26.8088ZM15.3516 26.8088H15.3465V27.8088H15.3516V26.8088ZM15.3567 26.8088H15.3516V27.8088H15.3567V26.8088ZM15.3617 26.8088H15.3567V27.8088H15.3617V26.8088ZM15.3668 26.8088H15.3617V27.8088H15.3668V26.8088ZM15.3719 26.8088H15.3668V27.8088H15.3719V26.8088ZM15.377 26.8088H15.3719V27.8088H15.377V26.8088ZM15.3821 26.8088H15.377V27.8088H15.3821V26.8088ZM15.3872 26.8088H15.3821V27.8088H15.3872V26.8088ZM15.3924 26.8088H15.3872V27.8088H15.3924V26.8088ZM15.3975 26.8088H15.3924V27.8088H15.3975V26.8088ZM15.4026 26.8088H15.3975V27.8088H15.4026V26.8088ZM15.4078 26.8088H15.4026V27.8088H15.4078V26.8088ZM15.413 26.8088H15.4078V27.8088H15.413V26.8088ZM15.4181 26.8088H15.413V27.8088H15.4181V26.8088ZM15.4233 26.8088H15.4181V27.8088H15.4233V26.8088ZM15.4285 26.8088H15.4233V27.8088H15.4285V26.8088ZM15.4337 26.8088H15.4285V27.8088H15.4337V26.8088ZM15.4389 26.8088H15.4337V27.8088H15.4389V26.8088ZM15.4442 26.8088H15.4389V27.8088H15.4442V26.8088ZM15.4494 26.8088H15.4442V27.8088H15.4494V26.8088ZM15.4546 26.8088H15.4494V27.8088H15.4546V26.8088ZM15.4599 26.8088H15.4546V27.8088H15.4599V26.8088ZM15.4651 26.8088H15.4599V27.8088H15.4651V26.8088ZM15.4704 26.8088H15.4651V27.8088H15.4704V26.8088ZM15.4757 26.8088H15.4704V27.8088H15.4757V26.8088ZM15.481 26.8088H15.4757V27.8088H15.481V26.8088ZM15.4863 26.8088H15.481V27.8088H15.4863V26.8088ZM15.4916 26.8088H15.4863V27.8088H15.4916V26.8088ZM15.4969 26.8088H15.4916V27.8088H15.4969V26.8088ZM15.5022 26.8088H15.4969V27.8088H15.5022V26.8088ZM15.5076 26.8088H15.5022V27.8088H15.5076V26.8088ZM15.5129 26.8088H15.5076V27.8088H15.5129V26.8088ZM15.5183 26.8088H15.5129V27.8088H15.5183V26.8088ZM15.5237 26.8088H15.5183V27.8088H15.5237V26.8088ZM15.529 26.8088H15.5237V27.8088H15.529V26.8088ZM15.5344 26.8088H15.529V27.8088H15.5344V26.8088ZM15.5398 26.8088H15.5344V27.8088H15.5398V26.8088ZM15.5452 26.8088H15.5398V27.8088H15.5452V26.8088ZM15.5507 26.8088H15.5452V27.8088H15.5507V26.8088ZM15.5561 26.8088H15.5507V27.8088H15.5561V26.8088ZM15.4959 26.8169C15.5244 26.8098 15.5455 26.8088 15.5561 26.8088V27.8088C15.6127 27.8088 15.674 27.803 15.7368 27.7874L15.4959 26.8169ZM17.0156 26.0656C16.6493 26.3034 15.9858 26.6953 15.4959 26.8169L15.7368 27.7874C16.4089 27.6206 17.2001 27.138 17.5601 26.9043L17.0156 26.0656ZM16.9113 26.2498C16.9113 26.1872 16.9431 26.1126 17.0156 26.0656L17.5601 26.9043C17.7855 26.758 17.9113 26.509 17.9113 26.2498H16.9113ZM16.9113 24.0088V26.2498H17.9113V24.0088H16.9113ZM17.1113 24.2088C17.0009 24.2088 16.9113 24.1192 16.9113 24.0088H17.9113C17.9113 23.567 17.5532 23.2088 17.1113 23.2088V24.2088ZM12.1113 24.0088V24.0088V23.0088C11.559 23.0088 11.1113 23.4565 11.1113 24.0088H12.1113ZM12.1113 26.2498V24.0088H11.1113V26.2498H12.1113ZM12.0981 26.2333C12.1038 26.237 12.1077 26.2418 12.1097 26.2456C12.1115 26.249 12.1113 26.2507 12.1113 26.2498H11.1113C11.1113 26.5725 11.2679 26.8866 11.5536 27.072L12.0981 26.2333ZM13.6786 27.011C13.1522 26.8803 12.4631 26.4702 12.0981 26.2333L11.5536 27.072C11.9126 27.3051 12.7293 27.8057 13.4377 27.9815L13.6786 27.011ZM13.6662 27.0088C13.6637 27.0088 13.6687 27.0085 13.6786 27.011L13.4377 27.9815C13.5185 28.0016 13.5957 28.0088 13.6662 28.0088V27.0088ZM15.5561 27.0088H13.6662V28.0088H15.5561V27.0088ZM15.544 27.011C15.5543 27.0085 15.559 27.0088 15.5561 27.0088V28.0088C15.6262 28.0088 15.7039 28.0017 15.785 27.9815L15.544 27.011ZM17.1245 26.2333C16.7596 26.4702 16.0705 26.8803 15.544 27.011L15.785 27.9815C16.4934 27.8057 17.3101 27.3051 17.669 27.072L17.1245 26.2333ZM17.1113 26.2498C17.1113 26.2507 17.1111 26.249 17.113 26.2456C17.1149 26.2418 17.1189 26.237 17.1245 26.2333L17.669 27.072C17.9547 26.8866 18.1113 26.5725 18.1113 26.2498H17.1113ZM17.1113 24.0088V26.2498H18.1113V24.0088H17.1113ZM17.1113 24.0088H18.1113C18.1113 23.4565 17.6636 23.0088 17.1113 23.0088V24.0088ZM12.1113 24.0088H17.1113V23.0088H12.1113V24.0088Z" fill="#2653F1"/>
<rect x="0.944895" y="16.3105" width="4.82929" height="0.466695" rx="0.233348" stroke="#2653F1" stroke-width="0.466695"/>
<mask id="path-5-inside-1_700_2085" fill="white">
<path d="M1.30496 8.43762C1.41389 8.20402 1.69157 8.10295 1.92517 8.21188L5.87902 10.0556C6.11262 10.1645 6.21368 10.4422 6.10475 10.6758V10.6758C5.99583 10.9094 5.71815 11.0105 5.48455 10.9015L1.5307 9.05782C1.2971 8.94889 1.19603 8.67122 1.30496 8.43762V8.43762Z"/>
</mask>
<path d="M1.50255 9.11819L5.4564 10.9619L6.30164 9.14929L2.34778 7.30557L1.50255 9.11819ZM5.90717 9.99522L1.95332 8.15151L1.10808 9.96413L5.06193 11.8078L5.90717 9.99522ZM1.95332 8.15151C2.22026 8.27599 2.33575 8.5933 2.21127 8.86024L0.398656 8.015C0.0563217 8.74914 0.373938 9.62179 1.10808 9.96413L1.95332 8.15151ZM5.19845 10.2532C5.32292 9.98624 5.64023 9.87075 5.90717 9.99522L5.06193 11.8078C5.79607 12.1502 6.66873 11.8326 7.01106 11.0984L5.19845 10.2532ZM5.4564 10.9619C5.18946 10.8374 5.07397 10.5201 5.19845 10.2532L7.01106 11.0984C7.3534 10.3643 7.03578 9.49162 6.30164 9.14929L5.4564 10.9619ZM2.34778 7.30557C1.61365 6.96324 0.74099 7.28086 0.398656 8.015L2.21127 8.86024C2.08679 9.12718 1.76949 9.24267 1.50255 9.11819L2.34778 7.30557Z" fill="#2653F1" mask="url(#path-5-inside-1_700_2085)"/>
<rect x="23.3278" y="10.4127" width="4.82929" height="0.466695" rx="0.233348" transform="rotate(-25 23.3278 10.4127)" stroke="#2653F1" stroke-width="0.466695"/>
<rect x="9.66052" y="1.011" width="4.82929" height="0.466695" rx="0.233348" transform="rotate(70 9.66052 1.011)" stroke="#2653F1" stroke-width="0.466695"/>
<rect x="17.9104" y="5.54901" width="4.82929" height="0.466695" rx="0.233348" transform="rotate(-70 17.9104 5.54901)" stroke="#2653F1" stroke-width="0.466695"/>
<rect x="23.5241" y="16.3251" width="4.82929" height="0.466695" rx="0.233348" stroke="#2653F1" stroke-width="0.466695"/>
</svg>
