<svg width="10" height="13" viewBox="0 0 10 13" fill="none" xmlns="http://www.w3.org/2000/svg">
<path d="M4.99994 0C3.64283 0 2.55354 1.12964 2.55354 2.53702V2.55549H0.75L0 11.2963V11.3148C0 12.2407 0.821493 13 1.83929 13H8.16072C9.17864 13 10 12.2407 10 11.3148L9.25 2.55545H7.44646V2.53698C7.44634 1.12959 6.35705 0 4.99994 0ZM3.14286 2.53702C3.14286 1.48139 3.98214 0.611148 4.99994 0.611148C6.01786 0.611148 6.85702 1.48153 6.85702 2.53702V2.55549L3.14286 2.53702ZM8.71429 3.16662L9.41071 11.3333C9.41071 11.926 8.83922 12.389 8.16075 12.389H1.83932C1.16071 12.389 0.58935 11.9075 0.58935 11.3333L1.28578 3.16662H2.5537V4.31475H3.14298L3.14286 3.16662H6.83929V4.31475H7.42857L7.42845 3.16662H8.71429Z" fill="#2653F1"/>
<path d="M5.17678 11.1768C5.07915 11.2744 4.92085 11.2744 4.82322 11.1768L3.23223 9.58579C3.1346 9.48816 3.1346 9.32986 3.23223 9.23223C3.32986 9.1346 3.48816 9.1346 3.58579 9.23223L5 10.6464L6.41421 9.23223C6.51184 9.1346 6.67014 9.1346 6.76777 9.23223C6.8654 9.32986 6.8654 9.48816 6.76777 9.58579L5.17678 11.1768ZM5.25 6L5.25 11L4.75 11L4.75 6L5.25 6Z" fill="#2653F1"/>
</svg>
