<svg width="171" height="21" viewBox="0 0 171 21" fill="none" xmlns="http://www.w3.org/2000/svg">
<path d="M0.44873 10.8241V10.7692C0.44873 5.64925 4.17916 1.42525 9.39449 1.42525C12.5998 1.42525 14.5193 2.59554 16.294 4.2961L14.9358 5.79553C13.4509 4.35096 11.7849 3.30868 9.37639 3.30868C5.46489 3.30868 2.53125 6.56353 2.53125 10.7144V10.7692C2.53125 14.9567 5.48299 18.2298 9.37639 18.2298C11.803 18.2298 13.3966 17.2789 15.0807 15.615L16.3845 16.9315C14.5374 18.8332 12.5273 20.1132 9.30396 20.1132C4.21537 20.1132 0.44873 16.0173 0.44873 10.8241ZM41.0307 19.8024V1.73611H43.0227V19.8024H41.0307ZM48.2018 1.73611H50.0669L61.2039 16.2184V1.73611H63.1416V19.8024H61.5479L50.1395 4.99096V19.8024H48.2018V1.73611ZM82.9164 1.73611H87.0815L90.7395 13.9693L94.7052 1.68126H98.0373L102.003 13.9693L105.661 1.73611H109.736L103.705 19.9303H100.319L96.3351 8.09953L92.3511 19.9303H88.9647L82.9164 1.73611ZM112.796 19.8024V1.73611H116.689V19.8024H112.796ZM125.219 5.41153H119.84V1.7544H134.49V5.41153H129.112V19.8207H125.219V5.41153ZM34.5477 10.8241V10.7692C34.5477 6.67326 31.614 3.30868 27.5757 3.30868C23.5376 3.30868 20.6582 6.61839 20.6582 10.7144V10.7692C20.6582 14.8653 23.5918 18.2298 27.6301 18.2298C31.6684 18.2298 34.5477 14.9201 34.5477 10.8241ZM18.5938 10.8241V10.7692C18.5938 5.79553 22.2517 1.42525 27.6301 1.42525C33.0084 1.42525 36.6302 5.74068 36.6302 10.7144V10.7692C36.6302 15.7429 32.9722 20.1132 27.594 20.1132C22.2155 20.1132 18.5938 15.7978 18.5938 10.8241ZM135.939 10.8241V10.7692C135.939 5.63097 139.724 1.42525 145.157 1.42525C148.489 1.42525 150.48 2.55897 152.129 4.20468L149.647 7.1304C148.29 5.86867 146.895 5.10067 145.12 5.10067C142.132 5.10067 139.995 7.62411 139.995 10.7327V10.7875C139.995 13.8778 142.096 16.456 145.12 16.456C147.148 16.456 148.381 15.6333 149.774 14.335L152.255 16.8949C150.445 18.8881 148.416 20.1132 145.012 20.1132C139.796 20.1132 135.939 16.0173 135.939 10.8241ZM155.37 1.73611H159.264V8.88582H166.435V1.73611H170.328V19.8024H166.435V12.5613H159.264V19.8207H155.37V1.73611ZM71.6346 18.4126C71.6165 18.4126 71.6165 18.4309 71.5984 18.4309C71.4897 18.5041 71.3812 18.5772 71.2725 18.6321C71.037 18.76 70.7654 18.8333 70.4937 18.8515C70.4214 18.8515 70.3489 18.8698 70.2765 18.8698C70.2583 18.8698 70.2402 18.8698 70.2221 18.8698C68.9907 18.8515 68.0128 17.8092 68.031 16.5292C68.0491 15.2857 69.0451 14.2984 70.2583 14.2984C70.2765 14.2984 70.2946 14.2984 70.3127 14.2984C71.5078 14.3167 72.4495 15.2857 72.4857 16.4926C72.4857 16.5475 72.5038 16.5841 72.4857 16.6207C72.4857 16.767 72.4676 16.9132 72.4314 17.0595C72.4133 17.1144 72.3952 17.1693 72.3771 17.224C72.359 17.2972 72.3408 17.3887 72.3046 17.4618C72.2684 17.535 72.2323 17.608 72.1959 17.6812C72.1778 17.7361 72.1417 17.7727 72.1236 17.8275C72.0692 17.919 71.9968 17.992 71.9424 18.0652C71.9243 18.0835 71.9062 18.1201 71.8881 18.1384C71.8158 18.2664 71.7252 18.3396 71.6346 18.4126ZM75.8721 4.07668C75.8539 3.94867 75.8358 3.82068 75.8358 3.69268C75.8358 3.54639 75.8539 3.41839 75.8902 3.2904C75.8902 3.25383 75.9083 3.21724 75.9083 3.18067C75.9264 3.07096 75.9626 2.96125 76.017 2.85154C76.0351 2.81496 76.0532 2.7601 76.0713 2.72353C76.1074 2.65039 76.1438 2.57725 76.198 2.50411C76.2342 2.44926 76.2704 2.39439 76.3067 2.33953C76.3248 2.30296 76.361 2.26639 76.3972 2.22982C76.4878 2.12011 76.5784 2.02867 76.7051 1.93725C76.7232 1.91896 76.7413 1.91896 76.7594 1.90068C76.8318 1.84582 76.9043 1.79097 76.9768 1.7544C77.3027 1.55325 77.683 1.42525 78.0994 1.42525C78.1176 1.42525 78.1357 1.42525 78.1538 1.42525C79.3852 1.44354 80.3631 2.48583 80.345 3.76582C80.3268 5.00925 79.3308 5.99668 78.1176 5.99668C78.0994 5.99668 78.0813 5.99668 78.0632 5.99668C77.0672 5.9784 76.2523 5.30182 75.9807 4.38754C75.9264 4.2961 75.8902 4.18639 75.8721 4.07668ZM75.6729 8.6664C79.2404 9.69039 81.2323 11.0618 81.178 14.207V14.2618C81.1236 16.6024 79.9647 18.2481 78.0813 19.0893C76.6507 19.912 73.2101 20.0035 71.4173 20.0035C72.7573 19.528 73.7533 18.2298 73.7896 16.6938C73.7896 16.6207 73.7896 16.5475 73.7896 16.4743C74.4958 16.4196 75.2383 16.2915 75.9626 16.072C76.7956 15.8344 77.3027 15.304 77.3208 14.5727V14.5178C77.3389 13.5121 76.7413 12.9818 73.8077 12.1407C70.2583 11.135 67.9947 10.0927 68.0491 6.50868V6.45382C68.0853 4.35096 69.1899 2.74182 70.9102 1.86411C72.214 1.05954 74.532 0.968109 75.9083 0.986395C75.1296 1.62639 74.6226 2.59554 74.6045 3.69268C74.6045 3.96696 74.6226 4.22296 74.6769 4.47897C74.0974 4.53382 73.536 4.66182 72.866 4.89954C72.2684 5.17383 71.9425 5.63097 71.9243 6.17953V6.23439C71.8881 7.40467 72.6305 7.80696 75.6729 8.6664Z" fill="#231F20"/>
</svg>
