<svg width="120" height="24" viewBox="0 0 120 24" fill="none" xmlns="http://www.w3.org/2000/svg">
<path d="M18.0853 16.6591L21.1169 19.2591C20.5369 20.0692 19.8362 20.7871 19.0387 21.3881C18.047 22.1644 16.9449 22.7908 15.7684 23.2471C14.4663 23.7521 13.0786 24.0047 11.6807 23.9911C9.5549 24.0281 7.45904 23.4906 5.61762 22.4361C3.88217 21.4256 2.45711 19.965 1.49564 18.2111C0.477651 16.3458 -0.0368692 14.251 0.0020554 12.1301C-0.0118484 10.5365 0.275648 8.95452 0.849631 7.46612C1.40866 6.03655 2.2417 4.72808 3.30266 3.61312C4.34833 2.50396 5.6119 1.61911 7.01546 1.01312C8.53236 0.369299 10.168 0.0467542 11.8177 0.0661251C13.7875 -0.00661667 15.7406 0.44868 17.4716 1.38412C18.9046 2.21112 20.1462 3.32797 21.1159 4.66212L18.0511 7.36612C17.3707 6.3668 16.5034 5.50625 15.4963 4.83112C14.3915 4.16146 13.1112 3.83223 11.8177 3.88512C10.4379 3.8449 9.07993 4.23446 7.9346 4.99912C6.83697 5.75825 5.96645 6.79754 5.41505 8.00712C4.81908 9.27791 4.51611 10.6645 4.52817 12.0661C4.51285 13.4342 4.81601 14.7873 5.41404 16.0201C5.96197 17.1645 6.80729 18.1434 7.86304 18.8561C8.96528 19.5701 10.2599 19.9355 11.5758 19.9041C12.6841 19.9513 13.7891 19.755 14.8119 19.3291C15.5473 19.0005 16.2165 18.5424 16.7873 17.9771L18.0813 16.6591" fill="#1C2951"/>
<path d="M22.3105 15.3763C22.2954 13.8868 22.6712 12.4191 23.401 11.1173C24.1281 9.83043 25.1859 8.75768 26.4667 8.00836C27.8558 7.25449 29.4136 6.85938 30.9969 6.85938C32.5801 6.85938 34.138 7.25449 35.527 8.00836C36.8079 8.75768 37.8657 9.83043 38.5928 11.1173C39.3081 12.4245 39.6827 13.8884 39.6827 15.3758C39.6827 16.8633 39.3081 18.3271 38.5928 19.6343C37.8173 20.9483 36.7095 22.0386 35.3789 22.7973C34.0484 23.5561 32.5413 23.957 31.0067 23.9604C29.4721 23.9639 27.9631 23.5697 26.6292 22.8169C25.2952 22.0641 24.1825 20.9788 23.401 19.6683C22.6714 18.3669 22.2956 16.8995 22.3105 15.4103V15.3763ZM30.9626 20.4803C31.8783 20.5153 32.7788 20.2414 33.5174 19.7033C34.1916 19.1935 34.7199 18.5179 35.0503 17.7433C35.3759 17.0076 35.5496 16.2147 35.5613 15.4113C35.5534 14.6075 35.3795 13.8138 35.0503 13.0793C34.7186 12.3056 34.1905 11.6303 33.5174 11.1193C32.7633 10.6127 31.8734 10.342 30.9626 10.342C30.0519 10.342 29.162 10.6127 28.4078 11.1193C27.7509 11.624 27.235 12.287 26.9092 13.0453C26.58 13.7798 26.4061 14.5735 26.3982 15.3773C26.4043 16.1923 26.5782 16.9974 26.9092 17.7433C27.2382 18.5187 27.7668 19.1946 28.4421 19.7033C29.1807 20.2414 30.0813 20.5153 30.9969 20.4803" fill="#1C2951"/>
<path d="M40.498 0.605469H44.5515V4.86447H40.498V0.605469ZM40.498 7.36547H44.5515V23.4195H40.498V7.36547Z" fill="#1C2951"/>
<path d="M46.1523 23.4217V7.40165H50.0355L50.1363 9.22664C50.6714 8.6756 51.2785 8.19804 51.9413 7.80664C52.8713 7.27491 53.9346 7.01686 55.007 7.06265C55.859 7.00837 56.7126 7.14067 57.5073 7.45018C58.302 7.75969 59.0184 8.23883 59.6057 8.85365C60.7297 10.2094 61.301 11.9337 61.2071 13.6867V23.4207H57.1194V13.7207C57.1451 13.2897 57.0828 12.8581 56.9365 12.4516C56.7902 12.0451 56.5628 11.672 56.2678 11.3547C55.9825 11.0727 55.6417 10.8522 55.2666 10.7068C54.8915 10.5614 54.4903 10.4943 54.0879 10.5097C53.5608 10.4957 53.0371 10.5976 52.5543 10.808C52.0715 11.0184 51.6415 11.3321 51.2952 11.7267C50.5611 12.5562 50.1714 13.6312 50.2048 14.7347V23.4207L46.1523 23.4217Z" fill="#1C2951"/>
<path d="M111.282 11.1851L118.438 0.602083H111.659L107.946 6.51708L104.127 0.602083H96.6325L96.9731 1.07508L96.7343 0.975083C94.9617 0.30842 93.0787 -0.0216462 91.1832 0.00208258C88.9987 -0.0383589 86.8442 0.51087 84.9498 1.59108C83.5969 2.37792 82.4249 3.43694 81.5092 4.70008C80.5142 3.46263 79.2272 2.48755 77.7621 1.86108C75.7598 1.01848 73.6015 0.602501 71.4269 0.640083H62.6045V23.4201H71.3927C73.5701 23.4554 75.7299 23.0289 77.7278 22.1691C79.1831 21.5418 80.4674 20.5804 81.4749 19.3641C82.4056 20.6385 83.6021 21.6989 84.9831 22.4731C86.8784 23.513 89.0169 24.0377 91.1822 23.9941C93.2317 24.0304 95.2614 23.5907 97.1092 22.7101L96.6325 23.4201H103.308L107.771 16.4201L112.37 23.4201H120L111.282 11.1851ZM75.823 16.3851C75.2086 16.9675 74.4799 17.4181 73.6823 17.7088C72.8847 17.9996 72.0353 18.1243 71.1871 18.0751H68.7018V5.91308H71.1881C72.0586 5.83989 72.9347 5.95289 73.7575 6.24443C74.5802 6.53598 75.3303 6.99929 75.9571 7.60308C77.0124 8.82115 77.5605 10.3923 77.49 11.9971C77.5232 12.8031 77.3926 13.6076 77.1059 14.3625C76.8191 15.1174 76.3822 15.8073 75.821 16.3911L75.823 16.3851ZM100.243 18.0471L97.348 15.3471C96.6697 16.2198 95.8392 16.9649 94.896 17.5471C93.8875 18.0642 92.7596 18.3091 91.6256 18.2571C90.5035 18.2843 89.3955 18.0037 88.4238 17.4461C87.514 16.9085 86.7793 16.1226 86.3074 15.1821C85.7978 14.1643 85.5407 13.0404 85.5576 11.9041C85.5357 10.7926 85.781 9.69185 86.2731 8.69308C86.7394 7.7608 87.4592 6.97657 88.3512 6.42908C89.3497 5.84298 90.4953 5.54997 91.6549 5.58408C92.7289 5.56263 93.7886 5.8312 94.7207 6.36108C95.6299 6.89649 96.4188 7.61121 97.0386 8.46108L100.07 5.45308L104.499 11.7731L100.243 18.0471Z" fill="#F94A29"/>
</svg>
