<svg width="22" height="22" viewBox="0 0 22 22" fill="none" xmlns="http://www.w3.org/2000/svg">
<path d="M0 10.9754C0 17.0331 4.89058 21.9578 10.8743 21.9997C16.8445 22.0416 21.9814 17.295 21.9861 11.0018C21.9902 4.82501 17.0345 0.0317392 11.0942 0.000167035C4.92318 -0.0329578 0 4.86486 0 10.9754Z" fill="white"/>
<path d="M0 10.9754C0 4.86486 4.92318 -0.0324454 11.0942 0.000161887C17.0345 0.031734 21.9902 4.825 21.9861 11.0018C21.982 17.295 16.845 22.0416 10.8743 21.9997C4.89058 21.9573 0 17.0331 0 10.9754ZM8.22894 19.6039C9.98145 19.6282 11.7298 19.6246 13.4135 19.1106C14.797 18.6883 15.9196 17.8907 16.549 16.5269C16.9884 15.5745 17.0696 14.5699 16.9527 13.542C16.8191 12.3661 16.254 11.4319 15.2742 10.7864C14.7318 10.4293 14.1453 10.1126 13.5387 9.88431C12.5818 9.52356 11.5859 9.26787 10.6165 8.93766C10.1134 8.76634 9.62122 8.55362 9.14557 8.31709C8.78481 8.13749 8.55035 7.82539 8.49911 7.4046C8.40957 6.66809 8.71132 6.13602 9.41729 5.89225C9.92555 5.71679 10.455 5.60292 10.9928 5.45696C10.7915 4.2624 11.1755 3.23501 12.0492 2.34478C11.2293 2.36238 10.4286 2.39188 9.63468 2.48039C8.47789 2.60926 7.4298 3.03575 6.54216 3.79917C5.21975 4.93628 4.80466 6.42017 4.95268 8.1054C5.0474 9.18196 5.44542 10.1203 6.30821 10.7973C6.72435 11.1239 7.1824 11.4324 7.67047 11.6254C8.6606 12.0178 9.68229 12.3319 10.6947 12.6678C11.4301 12.9116 12.1868 13.1067 12.8343 13.5539C13.6656 14.1279 13.6314 15.293 12.7707 15.8245C12.5828 15.9405 12.3711 16.0367 12.1573 16.088C11.515 16.2412 10.866 16.3675 10.1999 16.5082C10.1766 17.9119 9.50683 18.9429 8.22894 19.6039ZM14.1541 6.92999C15.2814 6.93154 16.2063 6.00352 16.2069 4.87055C16.2074 3.73344 15.2866 2.78627 14.1759 2.7811C13.0367 2.77592 12.103 3.68841 12.0994 4.81C12.0952 5.97972 13.0155 6.92843 14.1541 6.92999ZM9.0317 16.5911C9.03894 15.442 8.13733 14.5145 7.0085 14.5088C5.88173 14.5037 4.95165 15.425 4.93974 16.5574C4.92836 17.6873 5.86569 18.6665 6.9557 18.6645C8.09023 18.6629 9.02497 17.7292 9.0317 16.5911Z" fill="black"/>
<path d="M8.22894 19.6038C9.50632 18.9429 10.1766 17.9124 10.1999 16.5082C10.866 16.3674 11.5145 16.2411 12.1573 16.0879C12.3711 16.0372 12.5833 15.9409 12.7707 15.8245C13.6314 15.2929 13.6656 14.1279 12.8343 13.5539C12.1868 13.1067 11.4302 12.9116 10.6947 12.6678C9.6823 12.3324 8.6606 12.0182 7.67048 11.6254C7.18241 11.4318 6.72487 11.1238 6.30822 10.7973C5.44542 10.1203 5.04741 9.1819 4.95269 8.10535C4.80415 6.42012 5.21924 4.93623 6.54217 3.79911C7.42981 3.03569 8.4779 2.60921 9.63468 2.48033C10.4286 2.39183 11.2293 2.36284 12.0492 2.34473C11.1755 3.23547 10.7915 4.26286 10.9928 5.45691C10.455 5.60287 9.92556 5.71673 9.4173 5.89219C8.71184 6.13597 8.40958 6.66804 8.49912 7.40455C8.55036 7.82534 8.78482 8.13743 9.14557 8.31703C9.62122 8.55357 10.114 8.76629 10.6165 8.93761C11.5859 9.26782 12.5818 9.5235 13.5388 9.88425C14.1454 10.113 14.7318 10.4293 15.2742 10.7864C16.254 11.4313 16.8191 12.366 16.9527 13.542C17.0697 14.5699 16.9884 15.574 16.549 16.5268C15.9196 17.8906 14.797 18.6882 13.4135 19.1106C11.7303 19.6245 9.98146 19.6276 8.22894 19.6038Z" fill="white"/>
<path d="M14.1542 6.93016C13.0155 6.92861 12.0958 5.97937 12.0994 4.81017C12.103 3.68858 13.0367 2.7761 14.1759 2.78127C15.2866 2.78645 16.2074 3.73309 16.2069 4.87073C16.2063 6.00422 15.2814 6.93171 14.1542 6.93016Z" fill="white"/>
<path d="M9.03151 16.5915C9.02426 17.7296 8.09004 18.6628 6.95551 18.6654C5.8655 18.6675 4.92817 17.6882 4.93956 16.5584C4.95094 15.4259 5.88155 14.5046 7.00831 14.5098C8.13766 14.515 9.03876 15.4425 9.03151 16.5915Z" fill="white"/>
</svg>