<svg width="60" height="60" viewBox="0 0 60 60" fill="none" xmlns="http://www.w3.org/2000/svg">
<circle cx="30" cy="30" r="29.5" stroke="#E9EDF2"/>
<path d="M12.5355 31.9403L13.7987 33.0237C13.557 33.3612 13.2651 33.6603 12.9328 33.9107C12.5196 34.2342 12.0604 34.4952 11.5702 34.6853C11.0276 34.8958 10.4494 35.001 9.86696 34.9953C8.98121 35.0107 8.10793 34.7868 7.34067 34.3474C6.61757 33.9264 6.0238 33.3178 5.62318 32.587C5.19902 31.8098 4.98464 30.937 5.00086 30.0532C4.99506 29.3892 5.11485 28.7301 5.35401 28.1099C5.58694 27.5143 5.93404 26.9691 6.37611 26.5045C6.8118 26.0423 7.33829 25.6737 7.92311 25.4212C8.55515 25.1529 9.23667 25.0185 9.92404 25.0266C10.7448 24.9963 11.5586 25.186 12.2798 25.5757C12.8769 25.9203 13.3942 26.3857 13.7983 26.9416L12.5213 28.0682C12.2378 27.6519 11.8764 27.2933 11.4568 27.012C10.9965 26.733 10.463 26.5958 9.92404 26.6178C9.34913 26.6011 8.7833 26.7634 8.30608 27.082C7.84874 27.3983 7.48602 27.8313 7.25627 28.3353C7.00795 28.8648 6.88171 29.4426 6.88674 30.0266C6.88035 30.5966 7.00667 31.1604 7.25585 31.6741C7.48415 32.1509 7.83637 32.5588 8.27627 32.8557C8.73553 33.1532 9.27496 33.3055 9.82325 33.2924C10.285 33.3121 10.7455 33.2303 11.1716 33.0528C11.478 32.9159 11.7569 32.725 11.9947 32.4895L12.5339 31.9403" fill="#1C2951"/>
<path d="M14.2961 31.4081C14.2898 30.7875 14.4464 30.1759 14.7505 29.6335C15.0534 29.0973 15.4942 28.6503 16.0278 28.3381C16.6066 28.024 17.2557 27.8594 17.9154 27.8594C18.5751 27.8594 19.2242 28.024 19.803 28.3381C20.3367 28.6503 20.7774 29.0973 21.0804 29.6335C21.3784 30.1782 21.5345 30.7882 21.5345 31.4079C21.5345 32.0277 21.3784 32.6376 21.0804 33.1823C20.7572 33.7298 20.2957 34.1841 19.7412 34.5002C19.1869 34.8164 18.5589 34.9834 17.9195 34.9848C17.2801 34.9863 16.6513 34.822 16.0955 34.5084C15.5397 34.1947 15.0761 33.7425 14.7505 33.1964C14.4465 32.6542 14.2899 32.0428 14.2961 31.4223V31.4081ZM17.9011 33.5348C18.2827 33.5494 18.6579 33.4352 18.9656 33.211C19.2465 32.9986 19.4667 32.7171 19.6043 32.3944C19.74 32.0878 19.8124 31.7574 19.8172 31.4227C19.814 31.0878 19.7415 30.7571 19.6043 30.451C19.4661 30.1287 19.2461 29.8473 18.9656 29.6344C18.6514 29.4233 18.2806 29.3105 17.9011 29.3105C17.5217 29.3105 17.1509 29.4233 16.8366 29.6344C16.5629 29.8447 16.348 30.1209 16.2122 30.4369C16.075 30.7429 16.0026 31.0736 15.9993 31.4085C16.0018 31.7481 16.0743 32.0836 16.2122 32.3944C16.3493 32.7174 16.5695 32.9991 16.8509 33.211C17.1587 33.4352 17.5339 33.5494 17.9154 33.5348" fill="#1C2951"/>
<path d="M21.8741 25.2539H23.5631V27.0285H21.8741V25.2539ZM21.8741 28.0706H23.5631V34.7597H21.8741V28.0706Z" fill="#1C2951"/>
<path d="M24.2301 34.7587V28.0837H25.8481L25.8901 28.8441C26.1131 28.6145 26.366 28.4155 26.6422 28.2524C27.0297 28.0309 27.4727 27.9234 27.9196 27.9424C28.2746 27.9198 28.6302 27.975 28.9614 28.1039C29.2925 28.2329 29.591 28.4325 29.8357 28.6887C30.304 29.2536 30.5421 29.972 30.5029 30.7025V34.7583H28.7997V30.7166C28.8104 30.537 28.7845 30.3572 28.7235 30.1878C28.6626 30.0185 28.5678 29.863 28.4449 29.7308C28.326 29.6133 28.184 29.5214 28.0277 29.4608C27.8714 29.4003 27.7043 29.3723 27.5366 29.3787C27.317 29.3729 27.0988 29.4153 26.8976 29.503C26.6964 29.5907 26.5173 29.7214 26.373 29.8858C26.0671 30.2314 25.9047 30.6793 25.9186 31.1391V34.7583L24.2301 34.7587Z" fill="#1C2951"/>
<path d="M51.3675 29.6605L54.3492 25.2509H51.5246L49.9775 27.7154L48.3862 25.2509H45.2635L45.4055 25.448L45.306 25.4063C44.5674 25.1285 43.7828 24.991 42.993 25.0009C42.0828 24.984 41.1851 25.2129 40.3957 25.6629C39.832 25.9908 39.3437 26.4321 38.9622 26.9584C38.5476 26.4428 38.0113 26.0365 37.4009 25.7755C36.5666 25.4244 35.6673 25.251 34.7612 25.2667H31.0852V34.7584H34.747C35.6542 34.7731 36.5541 34.5954 37.3866 34.2371C37.993 33.9757 38.5281 33.5752 38.9479 33.0684C39.3357 33.5994 39.8342 34.0412 40.4096 34.3638C41.1993 34.7971 42.0904 35.0157 42.9926 34.9975C43.8465 35.0127 44.6922 34.8295 45.4622 34.4625L45.2635 34.7584H48.045L49.9046 31.8417L51.8208 34.7584H55L51.3675 29.6605ZM36.5929 31.8271C36.3369 32.0698 36.0333 32.2575 35.701 32.3787C35.3686 32.4998 35.0147 32.5518 34.6613 32.5313H33.6257V27.4638H34.6617C35.0244 27.4333 35.3895 27.4804 35.7323 27.6018C36.0751 27.7233 36.3876 27.9164 36.6488 28.1679C37.0885 28.6755 37.3169 29.3301 37.2875 29.9988C37.3013 30.3346 37.2469 30.6698 37.1275 30.9844C37.008 31.2989 36.8259 31.5864 36.5921 31.8296L36.5929 31.8271ZM46.7679 32.5196L45.5617 31.3946C45.279 31.7582 44.933 32.0687 44.54 32.3113C44.1198 32.5267 43.6498 32.6288 43.1773 32.6071C42.7098 32.6185 42.2481 32.5015 41.8432 32.2692C41.4642 32.0452 41.158 31.7177 40.9614 31.3259C40.7491 30.9018 40.642 30.4335 40.649 29.96C40.6399 29.4969 40.7421 29.0383 40.9471 28.6221C41.1414 28.2337 41.4413 27.9069 41.813 27.6788C42.229 27.4346 42.7064 27.3125 43.1895 27.3267C43.637 27.3178 44.0786 27.4297 44.467 27.6505C44.8458 27.8735 45.1745 28.1713 45.4327 28.5254L46.6958 27.2721L48.5412 29.9055L46.7679 32.5196Z" fill="#F94A29"/>
</svg>
