<svg width="23" height="22" viewBox="0 0 23 22" fill="none" xmlns="http://www.w3.org/2000/svg">
<path d="M0.562931 16.9264C0.671877 15.9163 1.20283 15.0875 1.69244 14.2399C2.10669 13.5228 2.51664 12.8026 2.92831 12.0837C4.6568 9.06379 6.38788 6.04521 8.11249 3.02316C8.74076 1.92091 9.64764 1.22723 10.8969 0.981656C12.3127 0.703052 13.9822 1.35632 14.7414 2.59287C15.5553 3.91765 16.3119 5.27894 17.0857 6.6285C18.7164 9.47192 20.3403 12.3192 21.9706 15.1631C22.4977 16.0819 22.6923 17.0516 22.4684 18.0995C22.0782 19.9267 20.4815 21.2133 18.5661 21.2194C16.4888 21.2263 14.412 21.2211 12.3347 21.2211C9.74884 21.2211 7.16342 21.2224 4.57757 21.2207C3.3249 21.2198 2.27463 20.7634 1.46766 19.7824C0.990533 19.2022 0.708048 18.5316 0.600394 17.7857C0.592213 17.7301 0.575418 17.6757 0.5625 17.6205V16.9264H0.562931ZM11.5458 19.4304C13.8513 19.4304 16.1573 19.4386 18.4628 19.4217C18.812 19.4191 19.1871 19.3626 19.5044 19.2239C20.7011 18.7011 21.13 17.292 20.4708 16.1271C19.644 14.6667 18.8064 13.2129 17.9732 11.7564C16.4785 9.14333 14.9825 6.53071 13.4909 3.91591C13.2179 3.43781 12.8622 3.06097 12.3429 2.85843C11.4265 2.50072 10.2742 2.80541 9.66444 3.88027C7.74604 7.26307 5.80396 10.6328 3.87222 14.0083C3.43213 14.7771 2.97309 15.536 2.56745 16.3227C2.19454 17.046 2.26516 17.7801 2.70439 18.4624C3.14921 19.1527 3.81021 19.4321 4.60814 19.4313C6.92098 19.4295 9.23382 19.4308 11.5467 19.4308L11.5458 19.4304Z" fill="white"/>
<path d="M12.6838 8.52149C12.5959 10.0419 12.5085 11.5627 12.4211 13.083C12.409 13.2917 12.4185 13.5033 12.3845 13.708C12.3156 14.1253 11.9612 14.4109 11.5512 14.4052C11.1426 14.3996 10.7916 14.1262 10.7447 13.7102C10.681 13.1448 10.6607 12.5736 10.6258 12.0051C10.5544 10.8451 10.4902 9.68502 10.4135 8.5254C10.3494 7.55441 11.2063 6.86768 12.0266 7.25147C12.5597 7.50095 12.7178 7.96471 12.6838 8.52149Z" fill="white"/>
<path d="M10.4414 16.3249C10.4426 15.699 10.959 15.184 11.5782 15.19C12.1931 15.1966 12.6672 15.6955 12.6711 16.3405C12.675 16.9582 12.163 17.471 11.5515 17.4628C10.937 17.4541 10.4396 16.9447 10.4409 16.3249H10.4414Z" fill="white"/>
</svg>
