<svg width="15" height="15" viewBox="0 0 15 15" fill="none" xmlns="http://www.w3.org/2000/svg">
<path fill-rule="evenodd" clip-rule="evenodd" d="M9.04828 2.77631L13.5913 10.6608C13.6912 10.8961 13.735 11.0875 13.7475 11.2863C13.7725 11.7507 13.61 12.2022 13.2913 12.5497C12.9726 12.8959 12.5414 13.1002 12.0728 13.125H2.92431C2.7306 13.1132 2.53688 13.0693 2.35566 13.0011C1.44956 12.6357 1.01214 11.6077 1.38083 10.7165L5.95505 2.77073C6.11128 2.49142 6.34874 2.25051 6.64244 2.09568C7.49229 1.62439 8.57336 1.93404 9.04828 2.77631ZM8.0422 7.97233C8.0422 8.2696 7.79849 8.51794 7.49854 8.51794C7.19859 8.51794 6.94864 8.2696 6.94864 7.97233V6.2203C6.94864 5.92241 7.19859 5.6815 7.49854 5.6815C7.79849 5.6815 8.0422 5.92241 8.0422 6.2203V7.97233ZM7.49854 10.636C7.19859 10.636 6.94864 10.3876 6.94864 10.091C6.94864 9.79311 7.19859 9.54538 7.49854 9.54538C7.79849 9.54538 8.0422 9.78753 8.0422 10.0842C8.0422 10.3876 7.79849 10.636 7.49854 10.636Z" fill="#F64040"/>
</svg>
