<svg width="12" height="12" viewBox="0 0 12 12" fill="none" xmlns="http://www.w3.org/2000/svg">
<path d="M10.1842 4.50684C10.1842 4.50684 9.86404 8.47841 9.67828 10.1514C9.58983 10.9504 9.09626 11.4186 8.28779 11.4334C6.74928 11.4611 5.20901 11.4628 3.67109 11.4304C2.89329 11.4145 2.40797 10.9404 2.32128 10.1555C2.13435 8.4678 1.81592 4.50684 1.81592 4.50684" stroke="#F64040" stroke-linecap="round" stroke-linejoin="round"/>
<path d="M11 2.60246H1" stroke="#F64040" stroke-linecap="round" stroke-linejoin="round"/>
<path d="M9.07312 2.60333C8.61021 2.60333 8.21158 2.27606 8.12077 1.82258L7.97747 1.10552C7.88902 0.774699 7.58945 0.545898 7.24802 0.545898H4.75185C4.41042 0.545898 4.11086 0.774699 4.02241 1.10552L3.87911 1.82258C3.7883 2.27606 3.38967 2.60333 2.92676 2.60333" stroke="#F64040" stroke-linecap="round" stroke-linejoin="round"/>
</svg>
