<svg width="13" height="10" viewBox="0 0 13 10" fill="none" xmlns="http://www.w3.org/2000/svg">
<path d="M9.95811 3.29614C9.74865 3.29614 9.55313 3.32411 9.3576 3.35197V3.32401V2.29053H9.34366C9.3576 2.24864 9.3576 2.20674 9.3576 2.16485V1.11735C9.3576 0.237433 6.87154 0 5.55868 0C4.24581 0 1.75975 0.23742 1.75975 1.11735V2.16485C1.75975 2.20674 1.77369 2.24864 1.77369 2.29053H1.75975V3.33803C1.75975 3.37992 1.77369 3.42181 1.77369 3.4637H1.75975V4.5112C1.75975 4.55309 1.77369 4.59498 1.77369 4.63688H1.75975V5.68437C1.75975 5.71233 1.75975 5.72626 1.77369 5.75423C1.0475 5.82408 0 6.03353 0 6.56429V7.34639C0 7.37436 -9.68575e-08 7.41625 0.0139314 7.44421L0 7.44411V8.22622C0 8.25418 -9.68575e-08 8.29607 0.0139314 8.32403H0V9.10614C0 9.80447 1.8296 10 2.90506 10C3.98051 10 5.81011 9.8184 5.81011 9.10614V8.32403H5.79618C5.81011 8.29607 5.81011 8.25418 5.81011 8.22622V7.94691C6.34087 7.93298 6.87155 7.90502 7.33245 7.83516C7.87715 8.77093 8.86883 9.34356 9.94421 9.34356C11.6202 9.34356 12.975 7.9888 12.975 6.3128C12.975 4.63683 11.6341 3.29614 9.95811 3.29614ZM5.55862 0.419021C7.77929 0.419021 8.93855 0.907903 8.93855 1.11735C8.93855 1.32681 7.79323 1.81568 5.55862 1.81568C3.32392 1.81568 2.1787 1.3268 2.1787 1.11735C2.1787 0.907893 3.33793 0.419021 5.55862 0.419021ZM2.19267 1.66205C2.96086 2.09499 4.59493 2.22067 5.57259 2.22067C6.55023 2.22067 8.18435 2.09499 8.95251 1.66205V2.15093C8.95251 2.36039 7.8072 2.84926 5.57259 2.84926C3.33788 2.84926 2.19267 2.36038 2.19267 2.15093V1.66205ZM2.19267 2.70955C2.96086 3.14249 4.59493 3.26816 5.57259 3.26816C6.55023 3.26816 8.18435 3.14248 8.95251 2.70955V3.33802C8.95251 3.54748 7.8072 4.03635 5.57259 4.03635C3.33788 4.03635 2.19267 3.54747 2.19267 3.33802V2.70955ZM2.19267 3.88282C2.96086 4.31576 4.59493 4.44143 5.57259 4.44143C6.17311 4.44143 7.02507 4.38561 7.7654 4.25984C7.52798 4.51119 7.34638 4.79059 7.20679 5.09788C6.70399 5.16774 6.14535 5.1957 5.57269 5.1957C3.35202 5.1957 2.19277 4.70682 2.19277 4.49737L2.19267 3.88282ZM5.81002 7.45827C5.82396 7.43031 5.82396 7.38842 5.82396 7.36046V6.7878C6.21502 6.7878 6.60606 6.75984 6.96927 6.71795C6.99723 6.9693 7.06708 7.22075 7.15086 7.44424C6.73184 7.50006 6.28496 7.52802 5.82406 7.54205L5.81002 7.45827ZM2.19267 5.05601C2.96086 5.48895 4.59493 5.61463 5.57259 5.61463C6.08933 5.61463 6.57819 5.58667 7.05303 5.53084C6.98318 5.78219 6.94128 6.03364 6.94128 6.29903C6.56416 6.34093 6.17309 6.35486 5.76811 6.36889C5.4469 5.83813 3.88257 5.6845 2.91892 5.6845C2.6815 5.6845 2.44408 5.69843 2.20665 5.71246C2.19272 5.69853 2.19272 5.6845 2.19272 5.6845L2.19267 5.05601ZM1.99714 6.14541H2.03903C2.06699 6.14541 2.09486 6.14541 2.12282 6.13148C2.37417 6.11755 2.63956 6.10352 2.90492 6.10352C4.3994 6.10352 5.30718 6.41078 5.39098 6.56442C5.3072 6.73199 4.3993 7.03926 2.90492 7.03926C2.7094 7.03926 2.51386 7.03926 2.31833 7.02533C1.0753 6.95547 0.474683 6.6901 0.418867 6.57834C0.474788 6.48063 0.921688 6.24313 1.99714 6.14541ZM0.418889 7.06723C0.977504 7.34654 1.92728 7.4164 2.30443 7.44436C2.51389 7.45829 2.70941 7.45829 2.90495 7.45829C3.65909 7.45829 4.79049 7.36047 5.39101 7.06722V7.34653C5.39101 7.36046 5.32115 7.44434 5.04184 7.54206C4.55296 7.70963 3.75691 7.82136 2.90495 7.82136C1.39655 7.82136 0.474731 7.5141 0.418889 7.34652V7.06723ZM0.418889 7.84934C1.0194 8.14269 2.15077 8.2404 2.90495 8.2404C3.79881 8.2404 4.60887 8.12866 5.13966 7.94705H5.39101V8.21244C5.32115 8.38001 4.41337 8.68728 2.90495 8.68728C1.39653 8.68728 0.474731 8.38002 0.418889 8.21244V7.84934ZM2.90495 9.59517C1.39663 9.59517 0.488747 9.27396 0.418889 9.12033V8.72926C1.0194 9.02261 2.15077 9.12033 2.90495 9.12033C3.65912 9.12033 4.79049 9.02251 5.39101 8.72926V9.10638C5.32125 9.28788 4.41337 9.59517 2.90495 9.59517ZM9.95809 8.93873C8.98045 8.93873 8.08659 8.39404 7.63961 7.51411C7.47204 7.19291 7.37422 6.84374 7.3603 6.46662V6.41079V6.31298C7.3603 5.97776 7.41612 5.65655 7.5419 5.34926C7.83524 4.60903 8.46372 4.03637 9.21786 3.81288C9.46921 3.74303 9.72066 3.70113 9.97201 3.70113C11.4106 3.70113 12.5838 4.87431 12.5838 6.31289C12.5839 7.75155 11.3967 8.93873 9.95809 8.93873Z" fill="#2653F1"/>
</svg>
