<svg width="41" height="41" viewBox="0 0 41 41" fill="none" xmlns="http://www.w3.org/2000/svg">
<path fill-rule="evenodd" clip-rule="evenodd" d="M11.9717 0.158876C11.5099 0.38798 0.288682 11.6298 0.12332 12.0291C0.0150547 12.2906 0 13.3247 0 20.5121C0 28.5021 0.00376368 28.7053 0.158314 29.023C0.383734 29.4867 11.6209 40.7076 12.0292 40.8767C12.2906 40.9849 13.3248 41 20.5122 41C28.5021 41 28.7053 40.9962 29.023 40.8417C29.4867 40.6163 40.7076 29.379 40.8767 28.9708C40.9849 28.7094 41 27.6764 41 20.5C41 13.3235 40.9849 12.2905 40.8767 12.0291C40.7076 11.6209 29.4867 0.383656 29.023 0.158236C28.7052 0.00368473 28.5021 -7.89572e-05 20.4947 1.12111e-06C12.4755 8.11994e-05 12.2849 0.00360465 11.9717 0.158876ZM23.7031 6.0934C24.6121 6.52222 25.2161 7.40396 25.2835 8.40061C25.3032 8.69106 25.1704 11.9281 24.9885 15.5941C24.7397 20.6064 24.628 22.3437 24.5382 22.5984C24.23 23.472 23.6086 24.1163 22.8038 24.3968C22.4406 24.5234 22.1197 24.5439 20.5 24.5439C18.8803 24.5439 18.5594 24.5234 18.1962 24.3968C17.3914 24.1163 16.77 23.472 16.4618 22.5984C16.372 22.3437 16.2603 20.6064 16.0115 15.5941C15.8296 11.9281 15.6967 8.69386 15.7161 8.40686C15.7904 7.30674 16.4029 6.46632 17.4453 6.03382C17.8925 5.84828 17.9268 5.84644 20.5801 5.86598L23.2627 5.88567L23.7031 6.0934ZM18.1749 8.37154C18.0912 8.47244 18.1324 9.72503 18.3994 15.1854C18.6898 21.1261 18.742 21.8928 18.8649 22.0287C18.9917 22.1688 19.1285 22.1816 20.5 22.1816C21.8686 22.1816 22.0084 22.1686 22.1343 22.0295C22.2563 21.8948 22.3096 21.1112 22.6 15.1865C22.8682 9.71814 22.9094 8.473 22.8254 8.37179C22.6711 8.186 18.3291 8.18568 18.1749 8.37154ZM21.4976 27.1089C24.0539 27.7748 25.318 30.5967 24.1283 32.9817C23.6608 33.9188 22.4964 34.8288 21.4587 35.0679C20.9978 35.1741 20.0011 35.1738 19.5391 35.0674C18.5175 34.8321 17.3326 33.9056 16.8717 32.9817C15.6946 30.6219 16.898 27.8602 19.4189 27.1358C20.0253 26.9616 20.8889 26.9503 21.4976 27.1089ZM19.8186 29.538C18.6017 30.0909 18.4747 31.7554 19.592 32.5117C19.8435 32.682 19.9791 32.7119 20.5 32.7119C21.0209 32.7119 21.1565 32.682 21.408 32.5117C22.2834 31.9191 22.4417 30.7537 21.7535 29.9698C21.4374 29.6099 20.965 29.3922 20.5 29.3922C20.3018 29.3922 19.9952 29.4578 19.8186 29.538Z" fill="#F64040"/>
</svg>
