<svg width="370" height="266" viewBox="0 0 370 266" fill="none" xmlns="http://www.w3.org/2000/svg">
<path d="M11 265H338" stroke="#3C53D7" stroke-dasharray="6 6"/>
<mask id="mask0_2174_14699" style="mask-type:alpha" maskUnits="userSpaceOnUse" x="0" y="0" width="370" height="265">
<rect x="0.5" y="-0.5" width="369" height="264" transform="matrix(1 0 0 -1 0 264)" fill="white" stroke="#3C53D7"/>
</mask>
<g mask="url(#mask0_2174_14699)">
<path d="M345.822 164.366C345.822 254.849 269.583 328.232 175.497 328.232C81.4106 328.232 5.17188 254.849 5.17188 164.366C5.17188 73.8833 81.4106 0.5 175.497 0.5C269.583 0.5 345.822 73.8833 345.822 164.366Z" fill="white" stroke="#3C53D7"/>
</g>
<mask id="mask1_2174_14699" style="mask-type:alpha" maskUnits="userSpaceOnUse" x="20" y="17" width="328" height="248">
<rect width="328" height="248" transform="matrix(1 0 0 -1 20 265)" fill="#BBC5FF"/>
</mask>
<g mask="url(#mask1_2174_14699)">
<circle cx="175.5" cy="168.5" r="151.5" fill="#E9EDF2"/>
</g>
<ellipse cx="309.5" cy="46" rx="25.5" ry="26" fill="white"/>
<circle cx="283.5" cy="37.5" r="2.5" fill="#3C53D7"/>
<g clip-path="url(#clip0_2174_14699)">
<g opacity="0.8">
<path opacity="0.8" d="M265.345 129.817C264.424 132.348 263.296 134.747 261.983 136.996C258.831 142.393 254.628 146.93 249.739 150.438C238.38 158.592 223.323 161.18 209.192 156.04C192.381 149.927 181.583 134.594 180.434 117.821C180.28 115.61 180.296 113.375 180.49 111.133C180.808 107.367 181.627 103.58 182.978 99.8617C184.071 96.8532 185.46 94.0358 187.098 91.4337C187.116 91.4036 187.136 91.375 187.154 91.3449C191.703 84.1571 198.164 78.6082 205.595 75.1301C207.703 74.1429 209.89 73.3226 212.134 72.68C213.204 72.373 214.29 72.1066 215.382 71.8839C223.05 70.3051 231.235 70.7642 239.134 73.6372C240.181 74.0179 241.205 74.4348 242.204 74.8863C243.615 75.5199 244.977 76.2228 246.287 76.9873C251.806 80.2065 256.424 84.5273 259.966 89.557H259.967C262.174 92.6889 263.96 96.0947 265.282 99.681C265.977 101.565 266.544 103.498 266.976 105.468C267.245 106.694 267.462 107.931 267.626 109.184C268.02 112.189 268.101 115.255 267.854 118.337C267.544 122.17 266.722 126.029 265.345 129.82V129.817Z" fill="white"/>
<g opacity="0.8">
<path opacity="0.8" d="M216.873 91.3087C214.284 93.3148 214.97 98.6831 210.487 95.6581C206.004 92.6316 203.191 90.9866 201.922 93.6279C200.65 96.2691 204.623 97.7139 203.578 100.591C202.532 103.469 200.405 103.773 198.164 101.41C195.919 99.0473 195.855 96.7733 192.223 96.8485C188.59 96.9238 187.041 95.4293 187.218 92.7008C187.249 92.2207 187.2 91.8053 187.1 91.4351C187.118 91.405 187.137 91.3764 187.155 91.3463C191.704 84.1585 198.165 78.6096 205.597 75.1315C207.704 74.1442 209.892 73.324 212.136 72.6814C213.206 72.3744 214.292 72.108 215.384 71.8853C216.65 72.4 218.009 73.4444 218.728 75.5394C220.309 80.1492 222.874 79.0641 220.695 82.9259C218.516 86.7862 219.414 87.7343 221.791 88.4432C224.169 89.152 226.908 90.1483 226.535 92.0296C226.161 93.9108 219.463 89.301 216.873 91.3087Z" fill="#809CFF"/>
<path opacity="0.8" d="M265.346 129.817C264.425 132.348 263.297 134.747 261.984 136.995C258.832 142.392 254.629 146.93 249.74 150.438C248.521 150.4 247.413 149.987 246.479 149.151C242.089 145.228 247.906 141.062 250.969 139.033C254.032 137.006 248.345 136.333 245.478 132.383C242.611 128.432 249.325 123.077 245.01 122.788C240.696 122.499 235.449 122.219 234.57 117.596C233.692 112.973 238.23 113.924 237.436 110.029C236.642 106.134 240.395 105.404 244.41 106.516C248.425 107.627 248.92 104.667 253.896 106.011C258.874 107.355 256.53 113.483 262.021 115.015C267.512 116.547 266.823 117.692 266.823 117.692C267.211 117.822 267.556 118.039 267.853 118.332C267.544 122.165 266.721 126.024 265.344 129.815L265.346 129.817Z" fill="#809CFF"/>
<path opacity="0.8" d="M267.627 109.182C262.399 109.728 262.753 103.199 258.315 103.588C253.84 103.978 255.755 100.794 253.54 97.5076C251.323 94.2207 243.854 96.0026 245.372 92.675C246.89 89.3505 251.061 91.9511 253.015 89.5612C254.969 87.1698 259.103 89.4483 259.103 89.4483C259.386 89.4438 259.675 89.4799 259.967 89.5567C259.967 89.5567 259.967 89.5552 259.968 89.5567C262.175 92.6886 263.961 96.0929 265.283 99.6808C265.978 101.565 266.545 103.497 266.977 105.467C267.246 106.694 267.463 107.931 267.627 109.183V109.182Z" fill="#809CFF"/>
<path opacity="0.8" d="M234.501 83.7579C234.501 83.7579 238.05 81.2446 234.713 78.9073C231.375 76.5716 230.972 77.8945 228.209 76.5415C225.444 75.1885 223.505 77.005 224.779 80.2212C226.052 83.4374 226.103 88.7394 228.958 86.962C231.813 85.1847 232.121 83.1634 234.503 83.7579H234.501Z" fill="#809CFF"/>
</g>
</g>
<path d="M152.303 164.841L144.816 253.907C144.816 253.907 144.032 259.305 148.045 259.316C154.645 259.331 180.897 259.316 180.897 259.316C180.897 259.316 175.93 258.191 175.99 255.663C176.06 252.683 184.74 163.999 184.74 163.999L152.303 164.841Z" fill="#7599EA"/>
<path d="M183.367 257.735C182.069 257.74 156.655 257.782 150.227 257.699C147.426 257.664 146.934 255.207 146.911 253.617C146.899 252.856 146.997 252.292 146.997 252.292L147.191 249.977L147.687 244.077L148.125 238.864L148.689 232.165L149.163 226.511L154.484 163.223L186.921 162.38C186.921 162.38 183.266 199.495 180.68 226.51C180.391 229.52 180.117 232.406 179.863 235.1C179.78 235.961 179.702 236.801 179.624 237.619C179.385 240.175 179.165 242.523 178.974 244.595C178.873 245.688 178.78 246.702 178.697 247.632C178.368 251.276 178.174 253.602 178.171 254.045C178.171 254.302 178.192 254.543 178.234 254.766C178.767 257.604 182.879 257.732 183.367 257.732V257.735Z" fill="#90AFF4"/>
<path d="M73.5273 116.375L91.7657 189.665L94.2628 199.703L102.756 233.839H260.567L229.259 116.375H73.5273Z" fill="#AEC3FF"/>
<path d="M73.5273 116.375L71 117.217L99.397 236.389L102.758 233.839L73.5273 116.375Z" fill="#90AFF4"/>
<path d="M99.3965 236.388H256.235L260.566 233.839H102.757L99.3965 236.388Z" fill="#7599EA"/>
<path d="M154.475 259.349H188.434V257.734H154.475V259.349Z" fill="#AEC3FF"/>
<path d="M179.801 236.387L179.625 237.623L147.689 244.076L148.127 238.864L148.336 236.387H179.801Z" fill="#5888DD"/>
<path opacity="0.4" d="M183.366 257.735C182.068 257.74 156.654 257.782 150.226 257.699C147.425 257.665 146.933 255.207 146.91 253.618L178.695 247.635C178.365 251.279 178.171 253.606 178.168 254.048C178.168 254.305 178.189 254.546 178.232 254.769C178.764 257.607 182.877 257.735 183.364 257.735H183.366Z" fill="#5888DD"/>
<path d="M73.5273 116.375H229.259L254.525 210.778H97.0187L73.5273 116.375Z" fill="#AEC3FF"/>
<path d="M247.182 206.687H101.37L96.1589 185.922L94.1432 177.886L93.3218 174.61L87.9664 153.269L87.6881 152.157L84.8585 140.877L83.5919 135.829L82.5118 131.524L79.9785 121.431H223.687L226.469 131.524L227.656 135.829L229.046 140.877L238.209 174.128V174.13L238.986 176.947L239.346 178.255L245.673 201.212L247.182 206.687Z" fill="white"/>
<path d="M226.47 131.525H82.5118L79.9785 121.431H223.689L226.47 131.525Z" fill="#2653F1"/>
<path d="M85.9235 125.993C85.7505 125.296 86.1732 124.732 86.8697 124.732C87.5662 124.732 88.2717 125.296 88.4447 125.993C88.6177 126.69 88.195 127.254 87.4985 127.254C86.802 127.254 86.0965 126.69 85.9235 125.993Z" fill="#E9F3FE"/>
<path d="M90.1129 125.993C89.9399 125.296 90.3627 124.732 91.0592 124.732C91.7557 124.732 92.4612 125.296 92.6342 125.993C92.8072 126.69 92.3845 127.254 91.688 127.254C90.9915 127.254 90.2859 126.69 90.1129 125.993Z" fill="#E9F3FE"/>
<path d="M94.6266 125.993C94.4536 125.296 94.8763 124.732 95.5728 124.732C96.2693 124.732 96.9749 125.296 97.1479 125.993C97.3209 126.69 96.8981 127.254 96.2016 127.254C95.5051 127.254 94.7996 126.69 94.6266 125.993Z" fill="#E9F3FE"/>
<path d="M125.524 105.751C131.418 98.8279 140.505 84.9218 146.623 77.8017C147.882 76.3358 146.835 74.0738 144.904 74.0738H133.77L144.273 50.316C144.722 49.3017 143.341 48.4935 142.676 49.3814L117.283 83.3822C116.543 84.374 117.352 85.7706 118.581 85.6186L131.186 84.0655L123.687 104.675C123.275 105.81 124.743 106.669 125.525 105.749L125.524 105.751Z" fill="#F69A40"/>
<path d="M253.551 208.697L126.853 219.376C117.233 220.188 110.271 210.375 114.209 201.557L167.886 81.3732C171.959 72.256 184.476 71.201 190.015 79.5086L263.036 189.013C268.394 197.048 263.171 207.887 253.551 208.699V208.697Z" fill="#E6EFFF"/>
<path d="M253.954 213.492L127.256 224.171C121.025 224.696 115.143 221.965 111.524 216.863C107.904 211.761 107.266 205.306 109.818 199.595L163.495 79.4091C166.132 73.5035 171.553 69.6537 177.996 69.1104C184.439 68.5671 190.428 71.4552 194.016 76.837L267.037 186.342C270.507 191.546 270.959 198.017 268.243 203.652C265.528 209.287 260.186 212.965 253.955 213.49L253.954 213.492ZM178.804 78.7002C175.904 78.944 173.464 80.6778 172.277 83.3356L118.6 203.52C117.452 206.09 117.74 208.996 119.369 211.291C120.998 213.588 123.645 214.818 126.45 214.581L253.148 203.902C255.952 203.666 258.357 202.01 259.578 199.474C260.8 196.938 260.598 194.025 259.035 191.683L186.014 82.1767C184.399 79.7552 181.705 78.4549 178.804 78.6987V78.7002Z" fill="#F69A40"/>
<path d="M175.836 190.311C175.699 188.678 175.861 187.143 176.329 185.707C176.795 184.273 177.517 183.002 178.497 181.898C179.476 180.794 180.689 179.893 182.137 179.198C183.584 178.504 185.247 178.075 187.123 177.917C188.997 177.759 190.721 177.902 192.288 178.341C193.857 178.782 195.217 179.467 196.367 180.391C197.517 181.317 198.441 182.448 199.141 183.783C199.84 185.121 200.258 186.605 200.397 188.24C200.534 189.873 200.368 191.396 199.9 192.806C199.432 194.218 198.709 195.474 197.729 196.579C196.75 197.684 195.524 198.585 194.051 199.282C192.579 199.979 190.904 200.408 189.029 200.566C187.153 200.724 185.442 200.581 183.9 200.138C182.357 199.696 181.01 199.011 179.86 198.085C178.71 197.161 177.785 196.043 177.089 194.729C176.391 193.417 175.974 191.943 175.836 190.311ZM195.423 167.379L177.173 168.917L169.334 106.75L192.755 104.776L195.423 167.379Z" fill="#F69A40"/>
</g>
<path d="M298.26 44.8985C299.823 43.0811 302.232 39.4304 303.854 37.5612C304.188 37.1763 303.911 36.5825 303.399 36.5825H300.447L303.231 30.3455C303.35 30.0792 302.984 29.867 302.808 30.1001L296.075 39.0262C295.879 39.2866 296.093 39.6532 296.419 39.6133L299.761 39.2056L297.773 44.616C297.664 44.914 298.053 45.1396 298.26 44.8981L298.26 44.8985Z" fill="#F69A40"/>
<path d="M312.26 62.8985C313.823 61.0811 316.232 57.4304 317.854 55.5612C318.188 55.1763 317.911 54.5825 317.399 54.5825H314.447L317.231 48.3455C317.35 48.0792 316.984 47.867 316.808 48.1001L310.075 57.0262C309.879 57.2866 310.093 57.6532 310.419 57.6133L313.761 57.2056L311.773 62.616C311.664 62.914 312.053 63.1396 312.26 62.8981L312.26 62.8985Z" fill="#F69A40"/>
<path d="M296.825 64.8715C298.778 62.5694 301.79 57.9451 303.818 55.5775C304.235 55.09 303.888 54.3379 303.248 54.3379H299.558L303.039 46.4376C303.188 46.1003 302.73 45.8316 302.51 46.1268L294.094 57.4332C293.848 57.763 294.117 58.2274 294.524 58.1769L298.702 57.6604L296.216 64.5137C296.08 64.891 296.566 65.1768 296.826 64.871L296.825 64.8715Z" fill="#F69A40"/>
<path d="M296.825 64.8715C298.778 62.5694 301.79 57.9451 303.818 55.5775C304.235 55.09 303.888 54.3379 303.248 54.3379H299.558L303.039 46.4376C303.188 46.1003 302.73 45.8316 302.51 46.1268L294.094 57.4332C293.848 57.763 294.117 58.2274 294.524 58.1769L298.702 57.6604L296.216 64.5137C296.08 64.891 296.566 65.1768 296.826 64.871L296.825 64.8715Z" fill="#F69A40"/>
<defs>
<clipPath id="clip0_2174_14699">
<rect width="199" height="253.349" fill="white" transform="translate(71 6)"/>
</clipPath>
</defs>
</svg>
