<svg width="18" height="19" viewBox="0 0 18 19" fill="none" xmlns="http://www.w3.org/2000/svg">
<path fill-rule="evenodd" clip-rule="evenodd" d="M9.14454 0.318617C8.78228 0.318617 8.48828 0.612617 8.48828 0.974867V11.5107C8.48828 11.873 8.78228 12.167 9.14454 12.167C9.50679 12.167 9.80079 11.873 9.80079 11.5107V0.974867C9.80079 0.612617 9.50679 0.318617 9.14454 0.318617Z" fill="white"/>
<path fill-rule="evenodd" clip-rule="evenodd" d="M9.14474 0.319078C8.97061 0.319078 8.80261 0.388203 8.68011 0.512453L6.12858 3.07358C5.87308 3.33083 5.87395 3.74645 6.13033 4.00195C6.38758 4.25745 6.80234 4.25745 7.05784 4.0002L9.14474 1.90458L11.2316 4.0002C11.4871 4.25745 11.9019 4.25745 12.1591 4.00195C12.4155 3.74645 12.4164 3.33083 12.1609 3.07358L9.60937 0.512453C9.48686 0.388203 9.31886 0.319078 9.14474 0.319078Z" fill="white"/>
<mask id="mask0_4226_19922" style="mask-type:alpha" maskUnits="userSpaceOnUse" x="0" y="6" width="18" height="13">
<path fill-rule="evenodd" clip-rule="evenodd" d="M0.394531 18.0264H17.8945V6.00037H0.394531V18.0264Z" fill="white"/>
</mask>
<g mask="url(#mask0_4226_19922)">
<path fill-rule="evenodd" clip-rule="evenodd" d="M14.0228 18.026H4.2752C2.1358 18.026 0.394531 16.2856 0.394531 14.1454V9.871C0.394531 7.736 2.13142 6 4.26732 6H5.0907C5.45296 6 5.74696 6.294 5.74696 6.65625C5.74696 7.0185 5.45296 7.3125 5.0907 7.3125H4.26732C2.85506 7.3125 1.70704 8.45963 1.70704 9.871V14.1454C1.70704 15.562 2.85856 16.7135 4.2752 16.7135H14.0228C15.4333 16.7135 16.5822 15.5646 16.5822 14.1541V9.88063C16.5822 8.464 15.4298 7.3125 14.0149 7.3125H13.1994C12.8372 7.3125 12.5432 7.0185 12.5432 6.65625C12.5432 6.294 12.8372 6 13.1994 6H14.0149C16.1543 6 17.8947 7.74125 17.8947 9.88063V14.1541C17.8947 16.2891 16.1569 18.026 14.0228 18.026Z" fill="white"/>
</g>
</svg>
