<svg width="17" height="12" viewBox="0 0 17 12" fill="none" xmlns="http://www.w3.org/2000/svg">
<path fill-rule="evenodd" clip-rule="evenodd" d="M13.9559 0.0389895C13.9072 0.0573293 13.4425 0.480338 12.9233 0.97899L11.9792 1.88565L11.5946 1.73034C10.1198 1.13481 8.57078 0.955026 7.15639 1.21526C5.10431 1.59283 3.01962 2.77135 1.07656 4.65241C0.497963 5.21252 0.0883398 5.67044 0.0250591 5.82786C-0.0323754 5.9708 0.0116305 6.18777 0.129299 6.34175C0.357442 6.64016 1.11915 7.4148 1.57777 7.8148C2.22387 8.37825 2.77656 8.79833 3.41504 9.21122C3.70735 9.40027 3.95374 9.56121 3.9626 9.56891C3.97146 9.57661 3.60949 9.93898 3.15823 10.3742C2.70698 10.8094 2.32106 11.2087 2.30065 11.2614C2.23935 11.4199 2.25654 11.6056 2.34409 11.7306C2.51664 11.9769 2.79049 12.0628 3.053 11.9529C3.12028 11.9247 5.5291 9.6303 8.93126 6.35382C14.0821 1.39317 14.698 0.788843 14.7194 0.674611C14.8022 0.23166 14.3794 -0.120308 13.9559 0.0389895ZM12.634 4.32427L11.2992 5.60898L11.3214 5.88404C11.3942 6.78954 10.8745 7.7577 10.0303 8.28898C9.55794 8.5863 9.13928 8.70305 8.52532 8.70875L8.07283 8.71294L7.13464 9.6151C6.61861 10.1113 6.19641 10.5252 6.19641 10.5348C6.19641 10.5969 7.28731 10.8214 7.84128 10.8735C10.0924 11.0848 12.4808 10.2154 14.824 8.33162C15.6232 7.68911 16.8042 6.51301 16.9528 6.2117C17.043 6.02902 17.0039 5.83181 16.8353 5.61763C16.5927 5.30957 15.8641 4.56732 15.4272 4.18304C15.0346 3.83782 14.1478 3.13337 14.0244 3.06864C13.9812 3.046 13.6719 3.32536 12.634 4.32427ZM8.98533 3.32519C9.13992 3.35342 9.36661 3.41427 9.48906 3.46042C9.73386 3.55273 10.023 3.70627 10.023 3.74394C10.023 3.77547 6.18653 7.46682 6.15375 7.46682C6.11439 7.46682 5.95502 7.18923 5.85882 6.9531C5.48877 6.04456 5.67383 4.99964 6.33814 4.24685C7.00028 3.49652 8.00583 3.14643 8.98533 3.32519Z" fill="#B4B7BD"/>
</svg>
