<svg width="17" height="10" viewBox="0 0 17 10" fill="none" xmlns="http://www.w3.org/2000/svg">
<path fill-rule="evenodd" clip-rule="evenodd" d="M7.98056 0.0160399C5.1738 0.175918 2.52472 1.66211 0.412753 4.26171C-0.138693 4.94048 -0.138261 5.06107 0.418131 5.74778C2.52575 8.34912 5.18396 9.83446 8.00396 9.98659C11.1957 10.1588 14.2114 8.66805 16.5872 5.74367C17.1387 5.06491 17.1383 4.94431 16.5819 4.25761C15.0423 2.35738 13.2106 1.0518 11.1849 0.410912C10.5557 0.211819 9.79333 0.0663465 9.19711 0.0315289C8.54644 -0.00643892 8.40616 -0.00821098 7.98056 0.0160399ZM9.20212 1.54388C10.1562 1.72141 11.073 2.36293 11.5695 3.20048C12.1688 4.21124 12.232 5.43389 11.7384 6.46703C11.5458 6.87021 11.3618 7.13244 11.0447 7.45544C9.27024 9.26317 6.24698 8.71048 5.21785 6.39021C4.84646 5.55288 4.83945 4.53005 5.19916 3.65725C5.54911 2.80811 6.31009 2.0646 7.17447 1.72735C7.83181 1.4709 8.48981 1.41133 9.20212 1.54388ZM8.15145 3.13088C7.61162 3.24629 7.1338 3.57918 6.86017 4.03053C6.659 4.36233 6.59152 4.60868 6.59384 5.00269C6.59613 5.3829 6.63036 5.53625 6.78409 5.85505C6.92537 6.14796 7.33795 6.55455 7.64047 6.69898C8.70575 7.20749 9.94481 6.69025 10.3282 5.57697C10.4379 5.25849 10.4409 4.7592 10.3352 4.42704C10.0939 3.66896 9.38964 3.14073 8.58299 3.1128C8.41867 3.10712 8.22448 3.11526 8.15145 3.13088Z" fill="#B4B7BD"/>
</svg>
