<svg width="96" height="40" viewBox="0 0 96 24" fill="none" xmlns="http://www.w3.org/2000/svg">
<path fill-rule="evenodd" clip-rule="evenodd" d="M14.7377 2.76175H8.08468C6.00468 2.75375 4.29968 4.41175 4.25068 6.49075V17.2037C4.20468 19.3167 5.87968 21.0677 7.99268 21.1147C8.02368 21.1147 8.05368 21.1157 8.08468 21.1147H16.0737C18.1677 21.0297 19.8177 19.2997 19.8027 17.2037V8.03775L14.7377 2.76175Z" stroke="#1A191C" stroke-width="1.5" stroke-linecap="round" stroke-linejoin="round"/>
<path d="M14.4751 2.75V5.659C14.4751 7.079 15.6231 8.23 17.0431 8.234H19.7981" stroke="#1A191C" stroke-width="1.5" stroke-linecap="round" stroke-linejoin="round"/>
<path d="M14.2879 15.3584H8.88794" stroke="#1A191C" stroke-width="1.5" stroke-linecap="round" stroke-linejoin="round"/>
<path d="M12.243 11.6064H8.88696" stroke="#1A191C" stroke-width="1.5" stroke-linecap="round" stroke-linejoin="round"/>
<path d="M33.8651 12.0298C33.7827 11.7713 33.6719 11.5398 33.5327 11.3352C33.3963 11.1278 33.233 10.9517 33.0426 10.8068C32.8523 10.6591 32.6349 10.5469 32.3906 10.4702C32.1491 10.3935 31.8835 10.3551 31.5938 10.3551C31.1023 10.3551 30.6591 10.4815 30.2642 10.7344C29.8693 10.9872 29.5568 11.358 29.3267 11.8466C29.0994 12.3324 28.9858 12.9276 28.9858 13.6321C28.9858 14.3395 29.1009 14.9375 29.331 15.4261C29.5611 15.9148 29.8764 16.2855 30.277 16.5384C30.6776 16.7912 31.1335 16.9176 31.6449 16.9176C32.1193 16.9176 32.5327 16.821 32.8849 16.6278C33.2401 16.4347 33.5142 16.1619 33.7074 15.8097C33.9034 15.4545 34.0014 15.0369 34.0014 14.5568L34.3423 14.6207H31.8452V13.5341H35.2756V14.527C35.2756 15.2599 35.1193 15.8963 34.8068 16.4361C34.4972 16.973 34.0682 17.3878 33.5199 17.6804C32.9744 17.973 32.3494 18.1193 31.6449 18.1193C30.8551 18.1193 30.1619 17.9375 29.5653 17.5739C28.9716 17.2102 28.5085 16.6946 28.1761 16.027C27.8438 15.3565 27.6776 14.5611 27.6776 13.6406C27.6776 12.9446 27.7741 12.3196 27.9673 11.7656C28.1605 11.2116 28.4318 10.7415 28.7812 10.3551C29.1335 9.96591 29.5469 9.66903 30.0213 9.46449C30.4986 9.2571 31.0199 9.15341 31.5852 9.15341C32.0568 9.15341 32.4957 9.22301 32.902 9.36222C33.3111 9.50142 33.6747 9.69886 33.9929 9.95455C34.3139 10.2102 34.5795 10.5142 34.7898 10.8665C35 11.2159 35.142 11.6037 35.2159 12.0298H33.8651ZM39.0658 18.1321C38.421 18.1321 37.8656 17.9943 37.3996 17.7188C36.9366 17.4403 36.5786 17.0497 36.3258 16.5469C36.0758 16.0412 35.9508 15.4489 35.9508 14.7699C35.9508 14.0994 36.0758 13.5085 36.3258 12.9972C36.5786 12.4858 36.9309 12.0866 37.3826 11.7997C37.8371 11.5128 38.3684 11.3693 38.9763 11.3693C39.3457 11.3693 39.7036 11.4304 40.0502 11.5526C40.3968 11.6747 40.7079 11.8665 40.9835 12.1278C41.259 12.3892 41.4763 12.7287 41.6354 13.1463C41.7945 13.5611 41.8741 14.0653 41.8741 14.6591V15.1108H36.671V14.1562H40.6255C40.6255 13.821 40.5573 13.5241 40.421 13.2656C40.2846 13.0043 40.0928 12.7983 39.8457 12.6477C39.6013 12.4972 39.3144 12.4219 38.9849 12.4219C38.6269 12.4219 38.3144 12.5099 38.0474 12.6861C37.7832 12.8594 37.5786 13.0866 37.4337 13.3679C37.2917 13.6463 37.2207 13.9489 37.2207 14.2756V15.0213C37.2207 15.4588 37.2974 15.831 37.4508 16.1378C37.607 16.4446 37.8244 16.679 38.1028 16.8409C38.3812 17 38.7065 17.0795 39.0786 17.0795C39.3201 17.0795 39.5403 17.0455 39.7391 16.9773C39.938 16.9062 40.1099 16.8011 40.2548 16.6619C40.3996 16.5227 40.5104 16.3509 40.5871 16.1463L41.7931 16.3636C41.6965 16.7187 41.5232 17.0298 41.2732 17.2969C41.0261 17.5611 40.715 17.767 40.34 17.9148C39.9678 18.0597 39.5431 18.1321 39.0658 18.1321ZM43.9619 14.1136V18H42.6878V11.4545H43.9108V12.5199H43.9918C44.1423 12.1733 44.3781 11.8949 44.6991 11.6847C45.023 11.4744 45.4307 11.3693 45.9222 11.3693C46.3682 11.3693 46.7588 11.4631 47.094 11.6506C47.4293 11.8352 47.6892 12.1108 47.8739 12.4773C48.0585 12.8437 48.1509 13.2969 48.1509 13.8366V18H46.8767V13.9901C46.8767 13.5156 46.7531 13.1449 46.506 12.8778C46.2588 12.608 45.9193 12.473 45.4875 12.473C45.192 12.473 44.9293 12.5369 44.6991 12.6648C44.4719 12.7926 44.2915 12.9801 44.158 13.2273C44.0273 13.4716 43.9619 13.767 43.9619 14.1136ZM52.0807 18.1321C51.4358 18.1321 50.8804 17.9943 50.4145 17.7188C49.9514 17.4403 49.5935 17.0497 49.3406 16.5469C49.0906 16.0412 48.9656 15.4489 48.9656 14.7699C48.9656 14.0994 49.0906 13.5085 49.3406 12.9972C49.5935 12.4858 49.9457 12.0866 50.3974 11.7997C50.852 11.5128 51.3832 11.3693 51.9912 11.3693C52.3605 11.3693 52.7185 11.4304 53.0651 11.5526C53.4116 11.6747 53.7227 11.8665 53.9983 12.1278C54.2739 12.3892 54.4912 12.7287 54.6503 13.1463C54.8094 13.5611 54.8889 14.0653 54.8889 14.6591V15.1108H49.6858V14.1562H53.6403C53.6403 13.821 53.5722 13.5241 53.4358 13.2656C53.2994 13.0043 53.1077 12.7983 52.8605 12.6477C52.6162 12.4972 52.3293 12.4219 51.9997 12.4219C51.6418 12.4219 51.3293 12.5099 51.0622 12.6861C50.798 12.8594 50.5935 13.0866 50.4486 13.3679C50.3065 13.6463 50.2355 13.9489 50.2355 14.2756V15.0213C50.2355 15.4588 50.3122 15.831 50.4656 16.1378C50.6219 16.4446 50.8392 16.679 51.1176 16.8409C51.396 17 51.7213 17.0795 52.0935 17.0795C52.3349 17.0795 52.5551 17.0455 52.754 16.9773C52.9528 16.9062 53.1247 16.8011 53.2696 16.6619C53.4145 16.5227 53.5253 16.3509 53.602 16.1463L54.808 16.3636C54.7114 16.7187 54.5381 17.0298 54.2881 17.2969C54.0409 17.5611 53.7298 17.767 53.3548 17.9148C52.9827 18.0597 52.558 18.1321 52.0807 18.1321ZM55.7026 18V11.4545H56.9342V12.4943H57.0023C57.1217 12.142 57.3319 11.8651 57.633 11.6634C57.937 11.4588 58.2808 11.3565 58.6643 11.3565C58.7438 11.3565 58.8376 11.3594 58.9455 11.3651C59.0563 11.3707 59.143 11.3778 59.2055 11.3864V12.6051C59.1543 12.5909 59.0634 12.5753 58.9327 12.5582C58.8021 12.5384 58.6714 12.5284 58.5407 12.5284C58.2396 12.5284 57.9711 12.5923 57.7353 12.7202C57.5023 12.8452 57.3177 13.0199 57.1813 13.2443C57.045 13.4659 56.9768 13.7187 56.9768 14.0028V18H55.7026ZM59.7081 18V11.4545H60.9822V18H59.7081ZM60.3516 10.4446C60.13 10.4446 59.9396 10.3707 59.7805 10.223C59.6243 10.0724 59.5462 9.89347 59.5462 9.68608C59.5462 9.47585 59.6243 9.29687 59.7805 9.14915C59.9396 8.99858 60.13 8.9233 60.3516 8.9233C60.5732 8.9233 60.7621 8.99858 60.9183 9.14915C61.0774 9.29687 61.157 9.47585 61.157 9.68608C61.157 9.89347 61.0774 10.0724 60.9183 10.223C60.7621 10.3707 60.5732 10.4446 60.3516 10.4446ZM64.8535 18.1321C64.22 18.1321 63.6745 17.9886 63.2171 17.7017C62.7626 17.4119 62.4131 17.0128 62.1688 16.5043C61.9245 15.9957 61.8023 15.4134 61.8023 14.7571C61.8023 14.0923 61.9273 13.5057 62.1773 12.9972C62.4273 12.4858 62.7796 12.0866 63.2342 11.7997C63.6887 11.5128 64.2242 11.3693 64.8407 11.3693C65.3379 11.3693 65.781 11.4616 66.1702 11.6463C66.5594 11.8281 66.8734 12.0838 67.112 12.4134C67.3535 12.7429 67.4969 13.1278 67.5424 13.5682H66.3023C66.2342 13.2614 66.0779 12.9972 65.8336 12.7756C65.5921 12.554 65.2683 12.4432 64.862 12.4432C64.5069 12.4432 64.1958 12.5369 63.9288 12.7244C63.6646 12.9091 63.4586 13.1733 63.3109 13.517C63.1631 13.858 63.0893 14.2614 63.0893 14.7273C63.0893 15.2045 63.1617 15.6165 63.3066 15.9631C63.4515 16.3097 63.656 16.5781 63.9202 16.7685C64.1873 16.9588 64.5012 17.054 64.862 17.054C65.1035 17.054 65.3222 17.0099 65.5183 16.9219C65.7171 16.831 65.8833 16.7017 66.0168 16.5341C66.1532 16.3665 66.2484 16.1648 66.3023 15.929H67.5424C67.4969 16.3523 67.3592 16.7301 67.1291 17.0625C66.8989 17.3949 66.5907 17.6562 66.2043 17.8466C65.8208 18.0369 65.3705 18.1321 64.8535 18.1321ZM73.9958 11.4545V12.4773H70.2969V11.4545H73.9958ZM71.3112 18V10.696C71.3112 10.2869 71.4006 9.94744 71.5796 9.67756C71.7586 9.40483 71.9958 9.2017 72.2913 9.06818C72.5867 8.93182 72.9077 8.86364 73.2543 8.86364C73.51 8.86364 73.7288 8.88494 73.9106 8.92756C74.0924 8.96733 74.2273 9.00426 74.3154 9.03835L74.0171 10.0696C73.9575 10.0526 73.8808 10.0327 73.787 10.0099C73.6933 9.98437 73.5796 9.97159 73.4461 9.97159C73.1364 9.97159 72.9148 10.0483 72.7813 10.2017C72.6506 10.3551 72.5853 10.5767 72.5853 10.8665V18H71.3112ZM74.7104 18V11.4545H75.9846V18H74.7104ZM75.3539 10.4446C75.1323 10.4446 74.942 10.3707 74.7829 10.223C74.6266 10.0724 74.5485 9.89347 74.5485 9.68608C74.5485 9.47585 74.6266 9.29687 74.7829 9.14915C74.942 8.99858 75.1323 8.9233 75.3539 8.9233C75.5755 8.9233 75.7644 8.99858 75.9207 9.14915C76.0798 9.29687 76.1593 9.47585 76.1593 9.68608C76.1593 9.89347 76.0798 10.0724 75.9207 10.223C75.7644 10.3707 75.5755 10.4446 75.3539 10.4446ZM78.3729 9.27273V18H77.0987V9.27273H78.3729ZM82.308 18.1321C81.6631 18.1321 81.1077 17.9943 80.6418 17.7188C80.1788 17.4403 79.8208 17.0497 79.568 16.5469C79.318 16.0412 79.193 15.4489 79.193 14.7699C79.193 14.0994 79.318 13.5085 79.568 12.9972C79.8208 12.4858 80.1731 12.0866 80.6248 11.7997C81.0793 11.5128 81.6106 11.3693 82.2185 11.3693C82.5879 11.3693 82.9458 11.4304 83.2924 11.5526C83.639 11.6747 83.9501 11.8665 84.2256 12.1278C84.5012 12.3892 84.7185 12.7287 84.8776 13.1463C85.0367 13.5611 85.1163 14.0653 85.1163 14.6591V15.1108H79.9131V14.1562H83.8677C83.8677 13.821 83.7995 13.5241 83.6631 13.2656C83.5268 13.0043 83.335 12.7983 83.0879 12.6477C82.8435 12.4972 82.5566 12.4219 82.2271 12.4219C81.8691 12.4219 81.5566 12.5099 81.2896 12.6861C81.0254 12.8594 80.8208 13.0866 80.6759 13.3679C80.5339 13.6463 80.4629 13.9489 80.4629 14.2756V15.0213C80.4629 15.4588 80.5396 15.831 80.693 16.1378C80.8492 16.4446 81.0665 16.679 81.345 16.8409C81.6234 17 81.9487 17.0795 82.3208 17.0795C82.5623 17.0795 82.7825 17.0455 82.9813 16.9773C83.1802 16.9062 83.3521 16.8011 83.4969 16.6619C83.6418 16.5227 83.7526 16.3509 83.8293 16.1463L85.0353 16.3636C84.9387 16.7187 84.7654 17.0298 84.5154 17.2969C84.2683 17.5611 83.9572 17.767 83.5822 17.9148C83.21 18.0597 82.7853 18.1321 82.308 18.1321Z" fill="#4B5563"/>
</svg>
