<svg width="18" height="18" viewBox="0 0 18 18" fill="none" xmlns="http://www.w3.org/2000/svg">
<path d="M6.40225 0.494864L6.26673 0.544437C6.05409 0.624635 5.94651 0.86217 6.02691 1.07481C6.08911 1.2398 6.24588 1.34124 6.41182 1.34124C6.46006 1.34124 6.50925 1.33282 6.55691 1.31464L6.67788 1.27042C6.89225 1.19405 7.00384 0.958625 6.92766 0.744658C6.85205 0.530285 6.61644 0.41812 6.40224 0.494873L6.40225 0.494864Z" fill="#07B055"/>
<path d="M17.8717 7.45265C17.8405 7.22756 17.6311 7.07176 17.4077 7.10123C17.1824 7.13243 17.0249 7.3403 17.0563 7.5652C17.0683 7.65171 17.0789 7.73842 17.0875 7.82475C17.1091 8.03625 17.2879 8.19435 17.4963 8.19435C17.5107 8.19435 17.5249 8.19359 17.5388 8.19225C17.7649 8.16889 17.9295 7.96696 17.9063 7.74053C17.8964 7.64483 17.8847 7.54855 17.8717 7.45266L17.8717 7.45265Z" fill="#07B055"/>
<path d="M17.4974 9.57743C17.2746 9.54011 17.0612 9.69151 17.024 9.91603C17.0095 10.0022 16.9938 10.0887 16.9766 10.1742C16.9324 10.3974 17.0771 10.6141 17.3001 10.6585C17.3274 10.664 17.354 10.6661 17.381 10.6661C17.5734 10.6661 17.7451 10.5306 17.7843 10.335C17.8029 10.2401 17.8205 10.1453 17.836 10.0504C17.8733 9.82645 17.7215 9.61418 17.4974 9.57743L17.4974 9.57743Z" fill="#07B055"/>
<path d="M16.3892 5.31194C16.4264 5.39061 16.4621 5.47023 16.4966 5.55043C16.5632 5.7068 16.7154 5.8004 16.8752 5.8004C16.929 5.8004 16.9839 5.79007 17.0366 5.76729C17.2459 5.6781 17.3428 5.43635 17.2536 5.22732C17.2151 5.13812 17.1757 5.05007 17.1342 4.96203C17.0373 4.75627 16.7923 4.66841 16.5867 4.7645C16.381 4.86077 16.2924 5.10616 16.3892 5.31192V5.31194Z" fill="#07B055"/>
<path d="M16.8498 11.9691C16.6462 11.8665 16.3991 11.9484 16.2968 12.1515C16.2576 12.2294 16.2172 12.3067 16.1753 12.3838C16.0664 12.5833 16.1397 12.8333 16.3393 12.9422C16.4019 12.9764 16.4697 12.9927 16.5363 12.9927C16.6818 12.9927 16.823 12.9154 16.8977 12.7783C16.944 12.6934 16.9888 12.608 17.032 12.5219C17.1342 12.3186 17.0525 12.0711 16.8498 11.9691L16.8498 11.9691Z" fill="#07B055"/>
<path d="M11.2529 0.213938C11.0315 0.162258 10.8106 0.300834 10.7593 0.522675C10.7082 0.744319 10.8462 0.965008 11.068 1.0163C11.1534 1.03582 11.2382 1.05668 11.3226 1.07907C11.358 1.08845 11.3936 1.09286 11.4284 1.09286C11.6107 1.09286 11.7772 0.971312 11.826 0.78699C11.8842 0.567257 11.7533 0.341977 11.5337 0.283422C11.4403 0.258731 11.3467 0.235571 11.2529 0.213941L11.2529 0.213938Z" fill="#07B055"/>
<path d="M15.687 2.80364C15.5331 2.63577 15.2731 2.62563 15.1055 2.77837C14.9382 2.93226 14.9269 3.19238 15.0802 3.35985C15.1395 3.42435 15.1974 3.48962 15.2536 3.55546C15.3352 3.65097 15.4506 3.69978 15.567 3.69978C15.6613 3.69978 15.7563 3.66744 15.834 3.60121C16.0072 3.45364 16.0275 3.19409 15.8797 3.02106C15.8169 2.94775 15.7524 2.8752 15.687 2.80362L15.687 2.80364Z" fill="#07B055"/>
<path d="M13.6684 1.17096C13.4722 1.05593 13.2198 1.12139 13.1051 1.31777C12.9901 1.51396 13.0557 1.76623 13.2519 1.88107C13.3272 1.92528 13.4024 1.97084 13.4764 2.01735C13.5446 2.06022 13.6202 2.08051 13.6954 2.08051C13.8321 2.08051 13.9657 2.01237 14.0442 1.88815C14.1651 1.69579 14.1073 1.44141 13.915 1.32064C13.833 1.26915 13.7513 1.21958 13.6684 1.17096L13.6684 1.17096Z" fill="#07B055"/>
<path d="M8.66253 0.0171834C8.43591 0.0344097 8.26594 0.232321 8.28298 0.458753C8.29963 0.675042 8.47993 0.839264 8.69296 0.839264C8.7033 0.839264 8.71402 0.839072 8.72455 0.838115C8.81106 0.831608 8.89796 0.826249 8.98448 0.822995C9.21167 0.814573 9.38891 0.62317 9.38011 0.395973C9.37188 0.168777 9.18373 -0.00884647 8.95309 0.000340949C8.85623 0.00436043 8.75919 0.00991105 8.66253 0.0171846L8.66253 0.0171834Z" fill="#07B055"/>
<path d="M14.9291 14.073L14.8378 14.166C13.3607 15.6431 11.3971 16.4567 9.30867 16.4567C7.21986 16.4567 5.25586 15.6431 3.77857 14.166C0.873046 11.2607 0.738493 6.62005 3.37031 3.55072L3.63655 5.96316C3.65991 6.1739 3.83791 6.3297 4.0452 6.3297C4.06032 6.3297 4.07544 6.32894 4.09075 6.32721C4.3168 6.30233 4.47988 6.09887 4.45481 5.87301L4.09363 2.59979C4.06836 2.37393 3.86432 2.21181 3.63943 2.23574L0.366597 2.59692C0.140547 2.6218 -0.0225288 2.82527 0.00254429 3.05112C0.0274268 3.27698 0.230314 3.43776 0.456746 3.41517L2.60562 3.17803C-0.160746 6.57012 0.0361826 11.5883 3.19651 14.7478C4.82917 16.3805 6.99971 17.2797 9.30822 17.2797C11.6167 17.2797 13.7873 16.3809 15.4194 14.7478L15.5205 14.6452C15.6786 14.4818 15.6744 14.2213 15.5109 14.0631C15.3481 13.9052 15.0872 13.9096 14.9287 14.0727L14.9291 14.073Z" fill="#07B055"/>
</svg>
