<svg width="20" height="21" viewBox="0 0 20 21" fill="current" xmlns="http://www.w3.org/2000/svg">
<path d="M7.30684 18.7834V15.8781C7.30682 15.1391 7.90927 14.5387 8.6557 14.5337H11.3899C12.1399 14.5337 12.7478 15.1356 12.7478 15.8781V15.8781V18.7925C12.7477 19.4199 13.2535 19.9327 13.8871 19.9474H15.7099C17.527 19.9474 19 18.4891 19 16.6902V16.6902V8.42532C18.9903 7.71763 18.6547 7.05307 18.0886 6.62077L11.8547 1.64923C10.7626 0.783589 9.21009 0.783589 8.11797 1.64923L1.91139 6.62979C1.34319 7.06034 1.007 7.726 1 8.43434V16.6902C1 18.4891 2.47304 19.9474 4.29013 19.9474H6.11291C6.76223 19.9474 7.28861 19.4263 7.28861 18.7834V18.7834" stroke="current" stroke-width="1.5" stroke-linecap="round" stroke-linejoin="round"/>
</svg>
