<svg width="29" height="29" viewBox="0 0 29 29" fill="none" xmlns="http://www.w3.org/2000/svg">
<path fill-rule="evenodd" clip-rule="evenodd" d="M14.6855 20.107L18.119 16.6391C18.466 16.2766 18.466 15.7087 18.1071 15.3582C17.7601 15.0078 17.1978 15.0078 16.8509 15.3582L14.9487 17.2916V11.4674C14.9487 10.9599 14.5539 10.5612 14.0633 10.5612C13.5728 10.5612 13.1661 10.9599 13.1661 11.4674V17.2916L11.2638 15.3582C10.9169 15.0078 10.3546 15.0078 10.0077 15.3582C9.66071 15.7087 9.66071 16.2766 10.0077 16.6391L13.4293 20.107C13.513 20.1916 13.6087 20.252 13.7164 20.3003C13.8241 20.3487 13.9437 20.3728 14.0633 20.3728C14.183 20.3728 14.2907 20.3487 14.3983 20.3003C14.506 20.252 14.6017 20.1916 14.6855 20.107ZM23.3549 10.9063C23.6361 10.903 23.9423 10.8995 24.2205 10.8995C24.5316 10.8995 24.7709 11.1412 24.7709 11.4432V21.1582C24.7709 24.1549 22.3542 26.5837 19.3872 26.5837H9.87605C6.75353 26.5837 4.22919 24.0341 4.22919 20.8924V7.86658C4.22919 4.86991 6.63389 2.41699 9.62481 2.41699H16.0134C16.3125 2.41699 16.5638 2.67074 16.5638 2.97283V6.86366C16.5638 9.07491 18.3583 10.8874 20.5596 10.8995C21.0653 10.8995 21.5177 10.9033 21.9127 10.9067C22.2186 10.9093 22.4901 10.9116 22.7251 10.9116C22.8954 10.9116 23.1161 10.909 23.3549 10.9063ZM23.6887 9.1427C22.7065 9.14632 21.5472 9.1427 20.7134 9.13424C19.3902 9.13424 18.3003 8.03345 18.3003 6.69703V3.51186C18.3003 2.99107 18.926 2.73249 19.2825 3.10828C20.2034 4.07448 21.6129 5.55499 22.8046 6.80673C23.2881 7.31453 23.7357 7.78468 24.1003 8.16757C24.4496 8.5337 24.1936 9.14149 23.6887 9.1427Z" fill="#2653F1"/>
</svg>
