<svg width="12" height="13" viewBox="0 0 12 13" fill="none" xmlns="http://www.w3.org/2000/svg">
<path d="M10.1842 4.96143C10.1842 4.96143 9.86404 8.933 9.67828 10.606C9.58983 11.405 9.09626 11.8732 8.28779 11.8879C6.74928 11.9157 5.20901 11.9174 3.67109 11.885C2.89329 11.8691 2.40797 11.395 2.32128 10.6101C2.13435 8.92239 1.81592 4.96143 1.81592 4.96143" stroke="#F64040" stroke-width="0.5" stroke-linecap="round" stroke-linejoin="round"/>
<path d="M11 3.05705H1" stroke="#F64040" stroke-width="0.5" stroke-linecap="round" stroke-linejoin="round"/>
<path d="M9.07312 3.05744C8.61021 3.05744 8.21158 2.73016 8.12077 2.27668L7.97747 1.55962C7.88902 1.2288 7.58945 1 7.24802 1H4.75185C4.41042 1 4.11086 1.2288 4.02241 1.55962L3.87911 2.27668C3.7883 2.73016 3.38967 3.05744 2.92676 3.05744" stroke="#F64040" stroke-width="0.5" stroke-linecap="round" stroke-linejoin="round"/>
</svg>
