<svg width="16" height="10" viewBox="0 0 16 10" fill="none" xmlns="http://www.w3.org/2000/svg">
<path d="M8.12575 0.0799084C7.91776 0.19212 7.78809 0.405493 7.78809 0.637567V4.2513H0.652706C0.292412 4.2513 0 4.53693 0 4.88887C0 5.2408 0.292412 5.52643 0.652706 5.52643H7.78809V9.14016C7.78809 9.37309 7.91776 9.58646 8.12575 9.69782C8.33375 9.81089 8.58787 9.80324 8.7889 9.67997L15.6954 5.42867C15.8851 5.31136 16 5.10819 16 4.88887C16 4.66954 15.8851 4.46637 15.6954 4.34906L8.7889 0.0977603C8.68273 0.0331535 8.56176 0 8.44079 0C8.33288 0 8.2241 0.0272029 8.12575 0.0799084Z" fill="#5E7799"/>
</svg>
