<svg width="60" height="59" viewBox="0 0 60 59" fill="none" xmlns="http://www.w3.org/2000/svg">
<path fill-rule="evenodd" clip-rule="evenodd" d="M29.9869 16.561C13.4927 25.68 -0.00140978 33.1686 1.1047e-07 33.2024C0.00411228 33.3004 18.9922 40.1658 19.1287 40.1185C19.2263 40.0847 35.4238 25.2021 46.5687 14.9057C47.6685 13.8897 48.5212 13.1363 48.4634 13.2316C48.4056 13.3268 43.3719 20.0174 37.2773 28.0994L26.1963 42.7941L26.2264 50.897L26.2566 59L31.5312 52.944C34.4322 49.6132 36.8424 46.8472 36.8872 46.7972C36.932 46.7472 40.0306 47.8211 43.7729 49.1836L50.5771 51.6608L50.6689 51.3526C50.7742 50.9992 60.0356 0.0291069 59.9999 1.10961e-05C59.987 -0.0104957 46.4812 7.44196 29.9869 16.561Z" fill="#2653F1"/>
</svg>
