<svg width="149" height="48" viewBox="0 0 149 48" fill="none" xmlns="http://www.w3.org/2000/svg">
<path d="M46.2295 24.5596H37.5615V28.8936H46.2295V24.5596Z" fill="url(#paint0_radial_1383_100205)"/>
<path d="M46.2295 20.2256H37.5615V23.1149H46.2295V20.2256Z" fill="url(#paint1_radial_1383_100205)"/>
<path d="M5.77882 28.8936H14.4468V24.5596H5.77882V28.8936Z" fill="url(#paint2_radial_1383_100205)"/>
<path d="M5.77882 23.1147H14.4468V20.2254H5.77882V23.1147Z" fill="url(#paint3_radial_1383_100205)"/>
<path d="M41.8953 14.9483V33.2803L29.4907 40.4365V23.7858H36.5487V18.2686H15.4594V23.7858H22.5528V40.4507L10.1128 33.2803V14.9483L26.0041 5.77881L41.8953 14.9483Z" fill="url(#paint4_radial_1383_100205)"/>
<path d="M55.402 38.7773C55.1033 38.6147 54.8546 38.3747 54.6825 38.0829C54.5194 37.7823 54.4341 37.4463 54.4341 37.1049C54.4341 36.7635 54.5194 36.4275 54.6825 36.1269C54.8531 35.8305 55.1064 35.5894 55.4119 35.4325C55.7146 35.2692 56.053 35.1819 56.3976 35.1783C56.6666 35.1767 56.9337 35.2231 57.1861 35.3152C57.4234 35.4053 57.6361 35.5493 57.8071 35.7357L57.5509 35.99C57.4017 35.841 57.2232 35.7241 57.0265 35.6467C56.8297 35.5693 56.619 35.533 56.4075 35.5401C56.1184 35.5383 55.8336 35.6089 55.5795 35.7455C55.3359 35.8767 55.1343 36.0733 54.9979 36.3127C54.8581 36.557 54.7866 36.8338 54.7909 37.1147C54.7824 37.3942 54.8514 37.6706 54.9905 37.9138C55.1296 38.157 55.3333 38.3576 55.5795 38.4937C55.8336 38.6303 56.1184 38.7009 56.4075 38.699C56.6269 38.7059 56.8453 38.6658 57.0477 38.5815C57.2501 38.4971 57.4318 38.3704 57.5804 38.21L57.8367 38.4643C57.6657 38.6507 57.453 38.7947 57.2157 38.8849C56.9652 38.9851 56.6972 39.0349 56.4272 39.0316C56.0693 39.034 55.7166 38.9466 55.402 38.7773V38.7773Z" fill="#1D1D1B"/>
<path d="M59.8276 36.2539C60.035 36.1498 60.2656 36.0994 60.4979 36.1072V36.4789H60.3993C60.268 36.4701 60.1364 36.4901 60.0137 36.5374C59.8911 36.5847 59.7804 36.6582 59.6896 36.7527C59.505 36.9706 59.4131 37.2512 59.4333 37.5351V38.9923H59.0391V36.1268H59.4136V36.694C59.4966 36.5045 59.6428 36.3491 59.8276 36.2539V36.2539Z" fill="#1D1D1B"/>
<path d="M64.3604 36.127L62.9114 39.3348C62.83 39.5589 62.6906 39.7579 62.5073 39.9118C62.3441 40.0206 62.1519 40.0785 61.9553 40.0781C61.8206 40.0809 61.6867 40.0577 61.561 40.0096C61.4421 39.9693 61.3342 39.9024 61.2456 39.814L61.4329 39.5304C61.5001 39.6003 61.5813 39.6556 61.6712 39.6927C61.7612 39.7297 61.8579 39.7477 61.9553 39.7455C62.079 39.7477 62.2001 39.7099 62.3003 39.638C62.4114 39.5336 62.4988 39.4069 62.5566 39.2663L62.6847 38.9925L61.3935 36.127H61.7976L62.8818 38.5622L63.976 36.127H64.3604Z" fill="#1D1D1B"/>
<path d="M67.6447 36.293C67.8621 36.4123 68.0427 36.5881 68.1671 36.8015C68.2838 37.0391 68.3445 37.3 68.3445 37.5644C68.3445 37.8287 68.2838 38.0896 68.1671 38.3272C68.0451 38.5425 67.8639 38.7189 67.6447 38.8358C67.423 38.9622 67.1709 39.0264 66.9153 39.0216C66.6928 39.0254 66.4728 38.975 66.2746 38.8749C66.0851 38.7783 65.9251 38.6331 65.8113 38.4543V40.0974H65.4663V36.1854H65.831V36.7526C65.9457 36.5687 66.1095 36.4197 66.3041 36.3223C66.503 36.2134 66.7277 36.1594 66.9547 36.1658C67.1918 36.1498 67.4292 36.1935 67.6447 36.293ZM67.4377 38.5424C67.604 38.4475 67.7405 38.3087 67.832 38.1414C67.925 37.9632 67.9724 37.765 67.97 37.5644C67.972 37.3606 67.9247 37.1594 67.832 36.9776C67.7372 36.8153 67.6012 36.6804 67.4377 36.5864C67.2741 36.4897 67.0858 36.4422 66.8956 36.4494C66.702 36.4403 66.51 36.4879 66.3436 36.5864C66.1806 36.6779 66.0472 36.8136 65.9592 36.9776C65.8616 37.1576 65.814 37.3601 65.8212 37.5644C65.8143 37.7655 65.862 37.9648 65.9592 38.1414C66.0457 38.309 66.1792 38.4482 66.3436 38.5424C66.5117 38.6322 66.6997 38.6793 66.8906 38.6793C67.0816 38.6793 67.2696 38.6322 67.4377 38.5424Z" fill="#1D1D1B"/>
<path d="M71.1144 38.8164C71.0384 38.8873 70.9475 38.9407 70.8483 38.9728C70.7338 38.9878 70.6178 38.9878 70.5033 38.9728C70.3902 38.9853 70.2758 38.9723 70.1685 38.9349C70.0611 38.8975 69.9636 38.8367 69.8832 38.7569C69.8027 38.677 69.7414 38.5803 69.7037 38.4738C69.666 38.3673 69.653 38.2537 69.6655 38.1416V36.4594H69.1431V36.1269H69.6655V35.501H70.0499V36.1269H70.9272V36.4594H70.0499V38.1416C70.0446 38.2104 70.0532 38.2796 70.0752 38.3451C70.0972 38.4106 70.1322 38.4711 70.178 38.523C70.2277 38.57 70.2866 38.6063 70.351 38.6299C70.4155 38.6534 70.4841 38.6637 70.5526 38.6599C70.6274 38.6746 70.7045 38.6746 70.7793 38.6599C70.8519 38.6381 70.919 38.6015 70.9764 38.5523L71.1144 38.8164Z" fill="#1D1D1B"/>
<path d="M72.6311 38.8359C72.4105 38.7129 72.2268 38.534 72.0988 38.3175C71.9712 38.087 71.9066 37.8274 71.9115 37.5645C71.9057 37.3014 71.9703 37.0416 72.0988 36.8114C72.2241 36.5928 72.4084 36.4133 72.6311 36.2931C72.8617 36.1715 73.119 36.1079 73.3802 36.1079C73.6414 36.1079 73.8986 36.1715 74.1293 36.2931C74.3513 36.4107 74.5331 36.5911 74.6517 36.8114C74.7837 37.0406 74.8517 37.3005 74.8489 37.5645C74.8503 37.8282 74.7824 38.0878 74.6517 38.3175C74.5304 38.5358 74.3493 38.7155 74.1293 38.8359C73.8989 38.9583 73.6416 39.0223 73.3802 39.0223C73.1188 39.0223 72.8615 38.9583 72.6311 38.8359ZM73.9322 38.5425C74.1006 38.4471 74.2402 38.3086 74.3363 38.1415C74.4293 37.9633 74.4767 37.7651 74.4743 37.5645C74.4764 37.3607 74.429 37.1595 74.3363 36.9777C74.2455 36.8008 74.1025 36.6555 73.9264 36.5612C73.7504 36.4668 73.5495 36.4279 73.3506 36.4496C73.1571 36.4404 72.9651 36.488 72.7986 36.5865C72.6335 36.6752 72.4994 36.8116 72.4142 36.9777C72.3215 37.1595 72.2742 37.3607 72.2762 37.5645C72.2738 37.7651 72.3212 37.9633 72.4142 38.1415C72.5008 38.3091 72.6342 38.4483 72.7986 38.5425C72.9676 38.6347 73.1578 38.6819 73.3506 38.6794C73.5533 38.6857 73.754 38.6385 73.9322 38.5425V38.5425Z" fill="#1D1D1B"/>
<path d="M79.0091 35.5303H77.6587V35.2075H80.7636V35.5596H79.4132V39.0217H79.0091V35.5303Z" fill="#1D1D1B"/>
<path d="M83.2869 36.3913C83.392 36.5016 83.4726 36.6326 83.5236 36.7758C83.5745 36.919 83.5946 37.0712 83.5826 37.2226V38.9927H83.208V38.5526C83.1163 38.7052 82.9783 38.825 82.8137 38.8949C82.6269 38.9858 82.4204 39.0295 82.2124 39.0221C81.9379 39.0357 81.6668 38.9564 81.4436 38.7971C81.3526 38.7243 81.2796 38.6318 81.2301 38.5267C81.1805 38.4216 81.1558 38.3067 81.1577 38.1908C81.1535 38.0792 81.1753 37.9682 81.2215 37.8664C81.2676 37.7646 81.3369 37.6748 81.4239 37.604C81.6702 37.4308 81.971 37.351 82.2716 37.379H83.208V37.1639C83.2142 37.0603 83.199 36.9566 83.1634 36.8591C83.1278 36.7616 83.0726 36.6722 83.001 36.5966C82.8281 36.4606 82.6099 36.3943 82.3899 36.4108C82.2087 36.4105 82.0288 36.4403 81.8576 36.4988C81.6989 36.5527 81.5518 36.6356 81.4239 36.7433L81.2366 36.4988C81.3892 36.3673 81.5668 36.2675 81.759 36.2054C81.9691 36.1381 82.1888 36.1051 82.4096 36.1076C82.7279 36.0869 83.042 36.1884 83.2869 36.3913V36.3913ZM82.8433 38.5624C83.006 38.4633 83.1335 38.3163 83.208 38.1419V37.6724H82.3012C81.8083 37.6724 81.5619 37.8485 81.5619 38.1908C81.5583 38.2662 81.5735 38.3414 81.6062 38.4096C81.6388 38.4779 81.688 38.537 81.7492 38.582C81.9091 38.6879 82.0993 38.7393 82.2913 38.7287C82.4879 38.7291 82.6801 38.6712 82.8433 38.5624Z" fill="#1D1D1B"/>
<path d="M86.9644 38.9925L86.0478 37.7993L85.1803 38.9925H84.6875L85.8309 37.5255L84.7466 36.127H85.1803L86.0478 37.2516L86.9152 36.127H87.3489L86.2646 37.5255L87.4179 38.9925H86.9644Z" fill="#1D1D1B"/>
<path d="M90.3649 36.3905C90.47 36.5008 90.5507 36.6318 90.6016 36.775C90.6525 36.9182 90.6726 37.0704 90.6606 37.2218V38.9919H90.286V38.5518C90.1979 38.7037 90.0632 38.8236 89.9016 38.8941C89.7144 38.9839 89.5081 39.0275 89.3003 39.0213C89.0258 39.0349 88.7546 38.9556 88.5315 38.7963C88.4388 38.725 88.3645 38.6328 88.3148 38.5274C88.2651 38.422 88.2414 38.3063 88.2456 38.19C88.2414 38.0784 88.2632 37.9674 88.3094 37.8656C88.3555 37.7638 88.4248 37.674 88.5118 37.6032C88.7573 37.4284 89.0587 37.3484 89.3595 37.3782H90.2761V37.1631C90.2823 37.0595 90.2672 36.9558 90.2316 36.8583C90.196 36.7608 90.1407 36.6715 90.0692 36.5958C89.8958 36.4607 89.6779 36.3945 89.458 36.41C89.2768 36.409 89.0968 36.4388 88.9258 36.498C88.7671 36.5519 88.6199 36.6348 88.4921 36.7425L88.3146 36.4589C88.4707 36.3271 88.6517 36.2274 88.8469 36.1655C89.057 36.0982 89.2767 36.0652 89.4975 36.0677C89.8177 36.0603 90.1285 36.1759 90.3649 36.3905V36.3905ZM89.9213 38.5616C90.0819 38.4584 90.206 38.308 90.2761 38.1313V37.6619H89.3693C88.8765 37.6619 88.6301 37.8379 88.6301 38.1802C88.6265 38.2556 88.6417 38.3308 88.6743 38.399C88.707 38.4673 88.7561 38.5265 88.8173 38.5714C88.9766 38.6786 89.1673 38.7302 89.3595 38.7181C89.5584 38.7234 89.7542 38.6688 89.9213 38.5616V38.5616Z" fill="#1D1D1B"/>
<path d="M93.6378 38.8164C93.5618 38.8873 93.4709 38.9407 93.3717 38.9729C93.2605 38.9878 93.1477 38.9878 93.0365 38.9729C92.9222 38.9812 92.8073 38.9664 92.6989 38.9294C92.5904 38.8924 92.4907 38.834 92.4057 38.7577C92.3295 38.6748 92.271 38.5775 92.2338 38.4716C92.1965 38.3657 92.1812 38.2535 92.1888 38.1416V36.4594H91.6763V36.1269H92.1888V35.501H92.5733V36.1269H93.4604V36.4594H92.5733V38.1416C92.5693 38.2111 92.5794 38.2807 92.6031 38.3462C92.6268 38.4117 92.6636 38.4719 92.7112 38.523C92.7587 38.5702 92.8158 38.6068 92.8787 38.6304C92.9416 38.6541 93.0089 38.6641 93.076 38.6599C93.1542 38.674 93.2343 38.674 93.3125 38.6599C93.3832 38.6338 93.4496 38.5976 93.5097 38.5523L93.6378 38.8164Z" fill="#1D1D1B"/>
<path d="M94.78 35.4226C94.7294 35.3699 94.7012 35.2998 94.7012 35.227C94.7012 35.1542 94.7294 35.0841 94.78 35.0314C94.8372 34.9813 94.9108 34.9535 94.987 34.9532C95.0235 34.9526 95.0596 34.9593 95.0935 34.9727C95.1273 34.9861 95.1581 35.0061 95.1842 35.0314C95.2117 35.0541 95.2338 35.0825 95.2492 35.1146C95.2645 35.1467 95.2726 35.1817 95.2729 35.2172C95.2729 35.2556 95.265 35.2936 95.2498 35.3289C95.2345 35.3642 95.2122 35.3961 95.1842 35.4226C95.1581 35.4479 95.1273 35.4678 95.0935 35.4813C95.0596 35.4947 95.0235 35.5013 94.987 35.5008C94.9108 35.5004 94.8372 35.4726 94.78 35.4226V35.4226ZM94.78 36.1267H95.1644V38.9923H94.78V36.1267Z" fill="#1D1D1B"/>
<path d="M97.1566 38.8358C96.9367 38.7154 96.7555 38.5357 96.6342 38.3175C96.499 38.0896 96.4307 37.8287 96.4371 37.5644C96.4297 37.2999 96.498 37.0388 96.6342 36.8113C96.7528 36.5911 96.9346 36.4107 97.1566 36.293C97.3855 36.1668 97.6439 36.1027 97.9057 36.1072C98.1708 36.1023 98.4324 36.1664 98.6647 36.293C98.8825 36.4163 99.0629 36.5953 99.1871 36.8113C99.3156 37.0415 99.3803 37.3014 99.3744 37.5644C99.3793 37.8273 99.3148 38.087 99.1871 38.3175C99.06 38.5313 98.8803 38.7097 98.6647 38.8358C98.4324 38.9624 98.1708 39.0265 97.9057 39.0216C97.6439 39.0261 97.3855 38.962 97.1566 38.8358V38.8358ZM98.4577 38.5424C98.6221 38.4482 98.7556 38.309 98.8422 38.1414C98.9352 37.9632 98.9826 37.7651 98.9801 37.5644C98.9822 37.3607 98.9349 37.1594 98.8422 36.9776C98.7569 36.8116 98.6229 36.6751 98.4577 36.5864C98.2913 36.4879 98.0993 36.4403 97.9057 36.4495C97.7068 36.4278 97.506 36.4668 97.3299 36.5611C97.1539 36.6554 97.0109 36.8007 96.9201 36.9776C96.8273 37.1594 96.78 37.3607 96.7821 37.5644C96.8065 37.7729 96.8845 37.9716 97.0088 38.1414C97.0995 38.3061 97.232 38.4443 97.3932 38.5424C97.5626 38.6335 97.7525 38.6806 97.9452 38.6793C98.1246 38.6753 98.3005 38.6284 98.4577 38.5424V38.5424Z" fill="#1D1D1B"/>
<path d="M102.991 36.4206C103.102 36.5435 103.188 36.6873 103.242 36.8436C103.296 36.9998 103.318 37.1653 103.306 37.3302V38.9927H102.922V37.3693C102.934 37.1241 102.853 36.8832 102.695 36.6945C102.611 36.6129 102.51 36.5498 102.4 36.5094C102.29 36.4689 102.172 36.452 102.054 36.4597C101.919 36.4524 101.783 36.4729 101.656 36.5201C101.529 36.5672 101.413 36.6399 101.315 36.7336C101.218 36.8326 101.143 36.951 101.096 37.0808C101.048 37.2106 101.029 37.3489 101.039 37.4866V38.9927H100.655V36.1272H101.029V36.6553C101.129 36.4807 101.28 36.3407 101.463 36.2544C101.668 36.1544 101.895 36.1041 102.123 36.1077C102.282 36.1006 102.44 36.1246 102.589 36.1783C102.737 36.232 102.874 36.3143 102.991 36.4206V36.4206Z" fill="#1D1D1B"/>
<path d="M110.975 35.2075V39.0217H110.591V35.941L109.083 38.5131H108.886L107.378 35.9606V38.9924H106.983V35.2075H107.319L108.994 38.0339L110.64 35.2075H110.975Z" fill="#1D1D1B"/>
<path d="M114.493 36.3907C114.599 36.5005 114.681 36.6312 114.734 36.7743C114.787 36.9175 114.809 37.0699 114.798 37.222V38.9921H114.424V38.552C114.333 38.7018 114.199 38.8211 114.039 38.8943C113.849 38.9842 113.639 39.0278 113.428 39.0215C113.154 39.0352 112.883 38.9558 112.659 38.7965C112.568 38.7237 112.495 38.6312 112.446 38.5261C112.396 38.4211 112.372 38.3062 112.374 38.1902C112.369 38.0786 112.391 37.9676 112.437 37.8658C112.483 37.764 112.553 37.6742 112.64 37.6034C112.886 37.4302 113.187 37.3504 113.487 37.3784H114.404V37.1633C114.41 37.0597 114.395 36.956 114.36 36.8585C114.324 36.761 114.269 36.6717 114.197 36.596C114.024 36.4601 113.806 36.3937 113.586 36.4102C113.408 36.4101 113.231 36.4399 113.064 36.4982C112.904 36.5498 112.756 36.633 112.63 36.7427L112.452 36.4591C112.606 36.3294 112.784 36.2299 112.975 36.1657C113.185 36.0984 113.405 36.0654 113.625 36.0679C113.946 36.0584 114.258 36.1743 114.493 36.3907V36.3907ZM114.049 38.5618C114.21 38.4586 114.334 38.3082 114.404 38.1315V37.6621H113.497C113.004 37.6621 112.758 37.8381 112.758 38.1804C112.756 38.2566 112.773 38.332 112.808 38.4002C112.842 38.4683 112.893 38.5272 112.955 38.5716C113.111 38.6774 113.299 38.729 113.487 38.7183C113.686 38.7236 113.882 38.669 114.049 38.5618V38.5618Z" fill="#1D1D1B"/>
<path d="M118.969 34.9531V38.9922H118.594V38.425C118.486 38.6136 118.325 38.7666 118.131 38.8651C117.932 38.974 117.707 39.028 117.48 39.0216C117.225 39.0264 116.972 38.9622 116.751 38.8358C116.531 38.7154 116.35 38.5357 116.228 38.3174C116.104 38.0855 116.04 37.8269 116.041 37.5644C116.04 37.2988 116.104 37.0369 116.228 36.8015C116.35 36.5862 116.531 36.4099 116.751 36.293C116.972 36.1665 117.225 36.1023 117.48 36.1072C117.702 36.1045 117.922 36.1548 118.121 36.2539C118.309 36.3531 118.468 36.4977 118.584 36.6744V34.9531H118.969ZM118.062 38.5424C118.226 38.4482 118.36 38.309 118.446 38.1414C118.539 37.9632 118.587 37.765 118.584 37.5644C118.586 37.3606 118.539 37.1594 118.446 36.9776C118.361 36.8115 118.227 36.6751 118.062 36.5864C117.898 36.4897 117.71 36.4422 117.52 36.4495C117.326 36.4403 117.134 36.4879 116.968 36.5864C116.802 36.6751 116.668 36.8115 116.583 36.9776C116.483 37.1568 116.432 37.3593 116.435 37.5644C116.431 37.7664 116.483 37.9657 116.583 38.1414C116.67 38.309 116.803 38.4482 116.968 38.5424C117.137 38.6347 117.327 38.6818 117.52 38.6793C117.709 38.6793 117.895 38.6322 118.062 38.5424V38.5424Z" fill="#1D1D1B"/>
<path d="M123.06 37.6819H120.665C120.671 37.8192 120.705 37.9539 120.764 38.0781C120.824 38.2024 120.907 38.3137 121.01 38.4056C121.228 38.5932 121.51 38.6911 121.799 38.6795C121.968 38.6829 122.136 38.6495 122.292 38.5817C122.445 38.5213 122.58 38.4238 122.686 38.298L122.903 38.5523C122.775 38.7095 122.609 38.8309 122.42 38.9044C122.219 38.9845 122.005 39.0243 121.789 39.0218C121.514 39.029 121.242 38.965 121 38.8359C120.78 38.7129 120.596 38.5341 120.468 38.3176C120.337 38.0879 120.269 37.8283 120.271 37.5645C120.265 37.3015 120.33 37.0416 120.458 36.8115C120.572 36.5943 120.746 36.4143 120.961 36.2932C121.179 36.1671 121.428 36.1028 121.68 36.1073C121.933 36.1012 122.182 36.1656 122.4 36.2932C122.614 36.4143 122.789 36.5943 122.903 36.8115C123.025 37.0437 123.086 37.3027 123.08 37.5645L123.06 37.6819ZM120.961 36.7039C120.865 36.7917 120.788 36.8974 120.734 37.0149C120.68 37.1324 120.65 37.2594 120.645 37.3885H122.696C122.676 37.1283 122.56 36.8844 122.37 36.7039C122.176 36.5334 121.925 36.4393 121.666 36.4393C121.406 36.4393 121.155 36.5334 120.961 36.7039V36.7039Z" fill="#1D1D1B"/>
<path d="M129.192 38.6501V38.9924H126.481V35.2075H129.113V35.5596H126.885V36.919H128.856V37.2613H126.885V38.6794L129.192 38.6501Z" fill="#1D1D1B"/>
<path d="M132.393 36.3905C132.498 36.5008 132.578 36.6318 132.629 36.775C132.68 36.9182 132.7 37.0704 132.688 37.2218V38.9919H132.324V38.5518C132.232 38.7044 132.094 38.8242 131.929 38.8941C131.743 38.985 131.536 39.0287 131.328 39.0213C131.054 39.0349 130.782 38.9556 130.559 38.7963C130.467 38.725 130.392 38.6328 130.343 38.5274C130.293 38.422 130.269 38.3063 130.273 38.19C130.269 38.0784 130.291 37.9674 130.337 37.8656C130.383 37.7638 130.453 37.674 130.54 37.6032C130.786 37.43 131.087 37.3502 131.387 37.3782H132.304V37.1631C132.31 37.0595 132.295 36.9558 132.259 36.8583C132.224 36.7608 132.169 36.6715 132.097 36.5958C131.924 36.4598 131.706 36.3935 131.486 36.41C131.305 36.4097 131.125 36.4395 130.954 36.498C130.795 36.5519 130.648 36.6348 130.52 36.7425L130.352 36.4589C130.503 36.3253 130.682 36.2252 130.875 36.1655C131.085 36.0982 131.305 36.0652 131.525 36.0677C131.846 36.0603 132.156 36.1759 132.393 36.3905V36.3905ZM131.949 38.5616C132.11 38.4584 132.234 38.308 132.304 38.1313V37.6619H131.397C130.904 37.6619 130.658 37.8379 130.658 38.1802C130.654 38.2556 130.67 38.3308 130.702 38.399C130.735 38.4673 130.784 38.5265 130.845 38.5714C131.005 38.6773 131.195 38.7288 131.387 38.7181C131.586 38.7234 131.782 38.6688 131.949 38.5616V38.5616Z" fill="#1D1D1B"/>
<path d="M134.356 38.9241C134.174 38.8719 134.003 38.7856 133.854 38.6698L134.031 38.3666C134.169 38.4646 134.322 38.5405 134.484 38.5916C134.669 38.6501 134.862 38.6798 135.056 38.6796C135.257 38.6944 135.458 38.6537 135.638 38.5622C135.699 38.5284 135.749 38.4786 135.784 38.4183C135.819 38.358 135.836 38.2894 135.835 38.2199C135.837 38.1722 135.828 38.1247 135.809 38.0807C135.791 38.0367 135.762 37.9974 135.726 37.9656C135.649 37.9009 135.558 37.8541 135.46 37.8287L135.036 37.7407C134.846 37.7088 134.658 37.663 134.474 37.6038C134.334 37.5637 134.208 37.4859 134.11 37.3788C134.006 37.2524 133.953 37.092 133.962 36.929C133.96 36.8133 133.985 36.6988 134.037 36.595C134.088 36.4912 134.164 36.4011 134.258 36.3324C134.509 36.1705 134.806 36.0917 135.105 36.1074C135.292 36.1094 135.478 36.1357 135.657 36.1857C135.821 36.2226 135.977 36.2854 136.121 36.3715L135.953 36.6845C135.704 36.5162 135.407 36.4307 135.105 36.44C134.906 36.4239 134.707 36.4682 134.534 36.5671C134.477 36.6049 134.43 36.6558 134.398 36.7154C134.365 36.775 134.347 36.8416 134.346 36.9094C134.347 36.9577 134.358 37.0053 134.378 37.0491C134.398 37.0929 134.428 37.132 134.465 37.1637C134.539 37.2352 134.631 37.2858 134.731 37.3104L135.174 37.4082C135.36 37.4407 135.545 37.4832 135.726 37.5353C135.864 37.5756 135.987 37.6536 136.081 37.7603C136.185 37.8792 136.238 38.0335 136.229 38.1906C136.232 38.3084 136.204 38.425 136.149 38.5294C136.094 38.6337 136.013 38.7224 135.914 38.7872C135.652 38.9502 135.345 39.0287 135.036 39.0121C134.806 39.0181 134.577 38.9884 134.356 38.9241V38.9241Z" fill="#1D1D1B"/>
<path d="M139.983 36.127L138.544 39.3348C138.459 39.557 138.32 39.755 138.14 39.9118C137.974 40.0225 137.778 40.0805 137.578 40.0781C137.447 40.0809 137.316 40.0576 137.194 40.0096C137.074 39.9717 136.965 39.9045 136.878 39.814L137.056 39.5304C137.125 39.6006 137.208 39.656 137.299 39.693C137.391 39.73 137.489 39.7479 137.588 39.7455C137.709 39.7477 137.827 39.7098 137.923 39.638C138.038 39.5346 138.129 39.4078 138.189 39.2663L138.308 38.9925L137.016 36.127H137.421L138.505 38.5622L139.589 36.127H139.983Z" fill="#1D1D1B"/>
<path d="M65.8609 11.2954V14.2294H60.617V28.4494H57.305V14.249H52.1006V11.315L65.8609 11.2954Z" fill="#1D1D1B"/>
<path d="M69.2703 28.694C68.7156 28.7415 68.1569 28.6749 67.6294 28.4982C67.1019 28.3215 66.6169 28.0385 66.2048 27.6671C65.4703 26.7608 65.1171 25.608 65.2191 24.4495C65.1579 23.8675 65.2318 23.2794 65.4351 22.7301C65.6385 22.1809 65.9658 21.6851 66.3921 21.2808C67.5967 20.5287 69.015 20.1855 70.4334 20.3028C70.9657 20.3028 71.5078 20.3028 72.0598 20.381C72.5406 20.4253 73.018 20.5005 73.489 20.6059V19.5008C73.5154 19.2078 73.4691 18.9128 73.3539 18.6417C73.2388 18.3706 73.0584 18.1317 72.8286 17.9458C72.2034 17.563 71.4713 17.3883 70.739 17.447C69.8715 17.447 69.1027 17.4764 68.4324 17.535C67.7895 17.583 67.1506 17.6745 66.5202 17.8089V15.1487C67.2708 14.9809 68.0313 14.86 68.7971 14.7869C69.7798 14.6917 70.7669 14.6492 71.7542 14.6597C73.1019 14.5587 74.4387 14.9636 75.4998 15.7942C75.9377 16.2421 76.2748 16.777 76.4889 17.3637C76.703 17.9504 76.7892 18.5755 76.7418 19.1976V28.4495H73.7847L73.6467 27.2465H73.5482C72.9284 27.6949 72.2438 28.0477 71.5176 28.293C70.7968 28.5519 70.0369 28.6875 69.2703 28.694V28.694ZM70.8178 22.6206C70.1196 22.5649 69.4184 22.6825 68.7774 22.9629C68.579 23.113 68.4236 23.3121 68.3268 23.5403C68.2299 23.7685 68.195 24.0179 68.2254 24.2636C68.2027 24.503 68.2314 24.7444 68.3095 24.972C68.3877 25.1996 68.5136 25.4081 68.6789 25.5839C69.1355 25.8925 69.686 26.0343 70.2362 25.9849C70.8092 25.9799 71.3791 25.901 71.9316 25.7502C72.4727 25.6177 72.9957 25.4207 73.489 25.1634V22.8358C73.0553 22.7673 72.6118 22.7086 72.1879 22.6793C71.7641 22.65 71.3008 22.6206 70.8178 22.6206V22.6206Z" fill="#1D1D1B"/>
<path d="M86.3423 21.4177L90.699 28.4495H87.1505L84.3413 23.6084L81.5518 28.4495H78.2793L82.6163 21.4177L78.3779 14.9336H82.1235L84.6074 19.3346L87.2195 14.9336H90.561L86.3423 21.4177Z" fill="#1D1D1B"/>
<path d="M99.3545 25.6034C100.165 25.5946 100.974 25.5128 101.769 25.3589C102.558 25.2141 103.33 24.9947 104.076 24.7037V27.6376C103.196 27.996 102.286 28.2742 101.355 28.4689C100.534 28.6278 99.6986 28.7064 98.8616 28.7037C96.1214 28.7037 94.2092 28.0191 93.1249 26.6694C92.0407 25.3198 91.4985 23.0313 91.4985 19.8235C91.4985 16.6156 92.1392 14.5423 93.4699 13.134C94.8006 11.7257 96.8213 11.0117 99.6699 11.0117C100.518 11.0117 101.277 11.0117 101.937 11.0606C102.535 11.0946 103.13 11.1599 103.721 11.2562V14.1315C103.031 14.0728 102.351 14.0337 101.75 14.0044C101.148 13.975 100.419 14.0044 99.7192 14.0044C97.8661 14.0044 96.6143 14.4347 95.9539 15.2856C95.2934 16.1364 94.9682 17.6719 94.9682 19.8626C94.9682 22.0533 95.2639 23.5594 95.8651 24.3907C96.4664 25.222 97.5704 25.6034 99.3545 25.6034Z" fill="#1D1D1B"/>
<path d="M109.369 28.4496H106.166V14.9337H109.123L109.261 16.029H109.349C109.998 15.6226 110.693 15.2943 111.419 15.0511C112.078 14.8344 112.766 14.7222 113.46 14.7185H113.824C113.876 14.7065 113.93 14.7065 113.982 14.7185V17.7797C113.841 17.7371 113.695 17.7141 113.548 17.7112H112.661C112.059 17.7037 111.458 17.7594 110.867 17.8775C110.355 17.9733 109.856 18.1276 109.379 18.3371L109.369 28.4496Z" fill="#1D1D1B"/>
<path d="M117.5 30.1121C118.031 30.1517 118.562 30.0251 119.018 29.7502C119.445 29.3275 119.74 28.7907 119.865 28.205L114.523 14.9336H118.101L121.492 25.0852L124.725 14.9336H128.165L122.96 29.0461C122.608 30.1756 121.954 31.1894 121.068 31.98C120.215 32.6046 119.17 32.9158 118.111 32.8602C117.746 32.8602 117.372 32.8602 116.977 32.8016C116.646 32.7752 116.317 32.7294 115.992 32.6646V30.0338C116.163 30.0743 116.338 30.0972 116.514 30.1023L117.5 30.1121Z" fill="#1D1D1B"/>
<path d="M133.025 32.6063H129.822V14.934H132.611L132.799 16.1662H132.937C133.464 15.6611 134.096 15.2771 134.79 15.0416C135.57 14.776 136.39 14.6469 137.214 14.6601C137.956 14.5844 138.705 14.6931 139.393 14.9766C140.081 15.26 140.688 15.7093 141.157 16.2836C141.946 17.3692 142.33 19.2176 142.33 21.6626C142.33 24.1076 141.847 25.9364 140.871 27.0416C139.896 28.1467 138.299 28.6944 136.071 28.6944C135.5 28.6999 134.93 28.6574 134.366 28.5672C133.914 28.5041 133.47 28.3892 133.045 28.2249L133.025 32.6063ZM139.117 21.6626C139.217 20.5378 139.003 19.4072 138.496 18.3961C138.197 18.0634 137.821 17.8083 137.4 17.6532C136.979 17.498 136.526 17.4475 136.081 17.5061C135.533 17.5017 134.987 17.5641 134.455 17.6919C133.957 17.8138 133.476 17.9978 133.025 18.2396V25.3007C133.391 25.457 133.775 25.5687 134.169 25.6332C134.655 25.7075 135.146 25.7435 135.637 25.7408C137.057 25.7408 137.993 25.4572 138.437 24.9095C138.995 23.9225 139.232 22.7886 139.117 21.6626V21.6626Z" fill="#1D1D1B"/>
<defs>
<radialGradient id="paint0_radial_1383_100205" cx="0" cy="0" r="1" gradientUnits="userSpaceOnUse" gradientTransform="translate(38.4128 23.1084) scale(10.9552 14.4141)">
<stop stop-color="#002F72"/>
<stop offset="0.06" stop-color="#003477"/>
<stop offset="0.14" stop-color="#004185"/>
<stop offset="0.2" stop-color="#005196"/>
<stop offset="0.32" stop-color="#0066A8"/>
<stop offset="0.4" stop-color="#006EAF"/>
<stop offset="0.58" stop-color="#005FA1"/>
<stop offset="0.62" stop-color="#004F8D"/>
<stop offset="0.69" stop-color="#003D77"/>
<stop offset="0.75" stop-color="#00326A"/>
<stop offset="0.8" stop-color="#002E65"/>
<stop offset="1" stop-color="#163582"/>
</radialGradient>
<radialGradient id="paint1_radial_1383_100205" cx="0" cy="0" r="1" gradientUnits="userSpaceOnUse" gradientTransform="translate(38.4128 23.3292) scale(10.9552 9.60942)">
<stop stop-color="#002F72"/>
<stop offset="0.06" stop-color="#003477"/>
<stop offset="0.14" stop-color="#004185"/>
<stop offset="0.2" stop-color="#005196"/>
<stop offset="0.32" stop-color="#0066A8"/>
<stop offset="0.4" stop-color="#006EAF"/>
<stop offset="0.58" stop-color="#005FA1"/>
<stop offset="0.62" stop-color="#004F8D"/>
<stop offset="0.69" stop-color="#003D77"/>
<stop offset="0.75" stop-color="#00326A"/>
<stop offset="0.8" stop-color="#002E65"/>
<stop offset="1" stop-color="#163582"/>
</radialGradient>
<radialGradient id="paint2_radial_1383_100205" cx="0" cy="0" r="1" gradientUnits="userSpaceOnUse" gradientTransform="translate(21.0199 23.7123) scale(22.8357 30.0457)">
<stop stop-color="#002F72"/>
<stop offset="0.06" stop-color="#003477"/>
<stop offset="0.14" stop-color="#004185"/>
<stop offset="0.2" stop-color="#005196"/>
<stop offset="0.32" stop-color="#0066A8"/>
<stop offset="0.4" stop-color="#006EAF"/>
<stop offset="0.58" stop-color="#005FA1"/>
<stop offset="0.62" stop-color="#004F8D"/>
<stop offset="0.69" stop-color="#003D77"/>
<stop offset="0.75" stop-color="#00326A"/>
<stop offset="0.8" stop-color="#002E65"/>
<stop offset="1" stop-color="#163582"/>
</radialGradient>
<radialGradient id="paint3_radial_1383_100205" cx="0" cy="0" r="1" gradientUnits="userSpaceOnUse" gradientTransform="translate(21.0199 23.7316) scale(22.8357 20.0305)">
<stop stop-color="#002F72"/>
<stop offset="0.06" stop-color="#003477"/>
<stop offset="0.14" stop-color="#004185"/>
<stop offset="0.2" stop-color="#005196"/>
<stop offset="0.32" stop-color="#0066A8"/>
<stop offset="0.4" stop-color="#006EAF"/>
<stop offset="0.58" stop-color="#005FA1"/>
<stop offset="0.62" stop-color="#004F8D"/>
<stop offset="0.69" stop-color="#003D77"/>
<stop offset="0.75" stop-color="#00326A"/>
<stop offset="0.8" stop-color="#002E65"/>
<stop offset="1" stop-color="#163582"/>
</radialGradient>
<radialGradient id="paint4_radial_1383_100205" cx="0" cy="0" r="1" gradientUnits="userSpaceOnUse" gradientTransform="translate(26.0041 23.1147) scale(16.6409 16.6224)">
<stop offset="0.2" stop-color="#005FA1"/>
<stop offset="0.35" stop-color="#0069AB"/>
<stop offset="0.52" stop-color="#006EAF"/>
<stop offset="0.55" stop-color="#0069AB"/>
<stop offset="0.75" stop-color="#005196"/>
<stop offset="0.82" stop-color="#004382"/>
<stop offset="0.93" stop-color="#00346D"/>
<stop offset="1" stop-color="#002E65"/>
</radialGradient>
</defs>
</svg>
