<svg width="11" height="10" viewBox="0 0 11 10" fill="none" xmlns="http://www.w3.org/2000/svg">
<path d="M4.15786 0.000596619C4.09731 0.0121756 4.05383 0.0656507 4.05489 0.127258V2.5346H3.54808C3.49761 2.53504 3.45226 2.56527 3.43247 2.61167C3.41267 2.65807 3.4223 2.71181 3.45704 2.74841L4.59742 3.88879C4.62128 3.91345 4.65416 3.92741 4.68846 3.92741C4.72284 3.92741 4.75572 3.91345 4.77958 3.88879L5.91996 2.74841C5.95461 2.71181 5.96433 2.65807 5.94453 2.61167C5.92473 2.56527 5.87939 2.53504 5.82892 2.5346H5.32211V0.127258C5.32211 0.0573441 5.26537 0.000596619 5.19536 0.000596619H4.18163C4.17376 -0.000198873 4.16582 -0.000198873 4.15786 0.000596619ZM7.44831 0.507407C7.42418 0.512887 7.40226 0.525261 7.38503 0.543027L6.24465 1.68341C6.20708 1.71965 6.19568 1.77524 6.21583 1.82341C6.23598 1.8715 6.28354 1.90243 6.33569 1.9012H6.8425V4.30853C6.8425 4.37845 6.89924 4.4352 6.96925 4.4352H7.98298C8.05299 4.4352 8.10973 4.37845 8.10973 4.30853V1.9012H8.61654C8.66869 1.90243 8.71633 1.8715 8.7364 1.82341C8.75655 1.77524 8.74515 1.71965 8.70758 1.68341L7.5672 0.543027C7.53653 0.511296 7.49144 0.497772 7.44831 0.507407ZM0.102992 4.81552C0.0424456 4.82701 -0.00104222 4.88057 1.90068e-05 4.94218V9.50365C1.90068e-05 9.57357 0.0567642 9.63032 0.126769 9.63032H1.90072C1.97072 9.63032 2.02747 9.57357 2.02747 9.50365V8.47818C2.49273 8.80743 2.86618 9.13005 3.32624 9.38884C3.8495 9.68318 4.48149 9.88373 5.44872 9.88382C6.44698 9.88382 7.65852 9.33377 8.63241 8.79098C9.60177 8.25066 10.3283 7.71104 10.3351 7.70611L10.3391 7.70222C10.5289 7.57555 10.6673 7.47558 10.7628 7.34185C10.8593 7.20679 10.8975 7.04708 10.8975 6.84289C10.8975 6.6845 10.833 6.55023 10.7391 6.45884C10.6451 6.36744 10.5256 6.31211 10.4104 6.27667C10.1801 6.20578 9.94711 6.20931 9.88384 6.20931C9.6093 6.20931 9.29102 6.34473 9.02452 6.47458C8.78082 6.59337 8.62041 6.68874 8.58894 6.70818C8.52327 6.35542 8.22787 6.08258 7.85637 6.08258H5.49633C4.81556 5.44573 3.55523 5.32827 2.02754 5.32234V4.94218C2.02754 4.87217 1.97079 4.81551 1.90079 4.81551H0.126837C0.118882 4.81481 0.110859 4.81481 0.102992 4.81552ZM0.253429 5.06892H1.77397V5.43714C1.77371 5.44112 1.7738 5.4451 1.77406 5.44907V8.23655C1.77371 8.24186 1.77371 8.24707 1.77406 8.25237V9.37685H0.253517L0.253429 5.06892ZM2.02738 5.57972C3.56772 5.58785 4.79562 5.73448 5.35769 6.29637C5.38138 6.32139 5.41435 6.33571 5.44882 6.33597H7.85638C8.13941 6.33597 8.36319 6.55986 8.36319 6.84278C8.36319 7.12581 8.1393 7.34959 7.85638 7.34959H4.18168C4.14774 7.34915 4.11512 7.36223 4.09099 7.3861C4.06677 7.40988 4.05325 7.4424 4.05325 7.47634C4.05325 7.5102 4.06677 7.54272 4.09099 7.5665C4.11512 7.59037 4.14774 7.60345 4.18168 7.60301H7.85638C8.23159 7.60301 8.53158 7.32351 8.59293 6.96554C8.62422 6.97191 8.65674 6.96625 8.68406 6.94963C8.68406 6.94963 8.88213 6.82368 9.13545 6.70021C9.38886 6.57673 9.70345 6.46262 9.88383 6.46262C9.94721 6.46262 10.1577 6.46262 10.3392 6.51804C10.43 6.54597 10.5084 6.58964 10.561 6.64081C10.6135 6.6919 10.6442 6.74777 10.6442 6.84278C10.6442 7.01876 10.619 7.10847 10.557 7.19518C10.495 7.28189 10.38 7.37125 10.1927 7.49615L10.1888 7.50004C10.1888 7.50004 9.46432 8.03498 8.50584 8.5691C7.54737 9.10331 6.35137 9.63028 5.44887 9.63028C4.5154 9.63028 3.94362 9.44687 3.45315 9.17092C2.98019 8.90487 2.57493 8.54079 2.02762 8.16914L2.02738 5.57972Z" fill="#2653F1"/>
</svg>
