<svg width="11" height="7" viewBox="0 0 11 7" fill="none" xmlns="http://www.w3.org/2000/svg">
<path d="M1.69862 5.00016L2.84713 6.14656L2.87358 6.17552C2.89512 6.20248 2.9016 6.20894 2.91957 6.23891C3.10003 6.53233 2.87861 7 2.49258 7C2.36155 7 2.23611 6.94308 2.13856 6.85329L0.135146 4.85403C0.111597 4.82808 0.104678 4.82262 0.0841415 4.7941C-0.112394 4.52407 0.0511078 4.06344 0.411134 4.00663C0.445619 4.00117 0.454659 4.00162 0.489592 4.00061H8.50283C8.51578 4.00106 8.52884 4.00162 8.54178 4.00206C8.57683 4.00607 8.58531 4.00607 8.61924 4.01409C8.95774 4.09541 9.12368 4.58756 8.85673 4.85403C8.76376 4.94638 8.63475 4.99529 8.50271 5.0003H1.6983L1.69862 5.00016ZM10.5058 3.00045H2.4926C2.45812 2.99945 2.44908 3 2.41459 2.99443C2.10857 2.94597 1.89663 2.56723 2.04662 2.27378C2.12966 2.11114 2.30566 2.00832 2.49259 2.00074H9.297L8.14848 0.854347L8.12203 0.825384C8.10049 0.798425 8.09402 0.791964 8.07605 0.761997C7.90753 0.487956 8.08152 0.0613083 8.42458 0.00692435C8.49914 -0.0045496 8.51755 0.00146571 8.5421 0.00246841C8.57715 0.00647862 8.58563 0.00647862 8.61956 0.0149451C8.70906 0.0364451 8.78853 0.0843467 8.85705 0.147731L10.8605 2.14699C10.884 2.17295 10.8909 2.1784 10.9115 2.20692C11.072 2.42749 11.0085 2.77985 10.7679 2.92712C10.7119 2.96109 10.6494 2.98404 10.5845 2.99451C10.55 2.99997 10.5409 2.99953 10.506 3.00053L10.5058 3.00045Z" fill="#2653F1"/>
</svg>
