<svg width="18" height="20" viewBox="0 0 18 20" fill="none" xmlns="http://www.w3.org/2000/svg">
<g clip-path="url(#clip0_5933_25351)">
<path d="M11.881 5.96521C11.6244 6.99451 10.9696 7.87978 10.0604 8.42639C9.1513 8.973 8.06231 9.1362 7.03289 8.88011C4.89119 8.34551 3.58574 6.17604 4.1194 4.03481C4.65306 1.89311 6.82065 0.585308 8.96094 1.11944C11.1078 1.64651 12.4137 3.82257 11.881 5.96568V5.96521Z" stroke="#4B5563"/>
<path d="M6.89129 6.36987L7.68801 3.17356M7.31765 4.65783L8.57368 4.97078M7.91625 3.2305L8.08708 2.54578M6.94823 7.11201L7.11906 6.42682M8.82922 3.45827L9.00005 2.77355M7.86166 7.33978L8.03249 6.65459M7.00282 3.00273L8.9704 3.49357C10.2542 3.81357 9.96807 5.31808 8.60051 4.97737C10.0989 5.35103 9.94642 7.13178 8.17367 6.68988C7.3073 6.47341 6.37927 6.24281 6.37927 6.24281L7.00282 3.00273Z" stroke="#4B5563" stroke-width="0.5" stroke-linecap="square" stroke-linejoin="round"/>
</g>
<path d="M15.0044 18H12V19H15.0044V18ZM16.0044 17C16.0044 17.5523 15.5567 18 15.0044 18V19C16.109 19 17.0044 18.1046 17.0044 17H16.0044ZM16.0044 9V17H17.0044V9H16.0044ZM15.0045 8C15.5567 8 16.0044 8.44771 16.0044 9H17.0044C17.0044 7.89543 16.109 7 15.0045 7V8ZM12 8H15.0045V7H12V8ZM12 8C12.5523 8 13 8.44772 13 9H14C14 7.89543 13.1046 7 12 7V8ZM13 9V17H14V9H13ZM13 17C13 17.5523 12.5523 18 12 18V19C13.1046 19 14 18.1046 14 17H13Z" fill="#4B5563"/>
<rect x="1.5" y="7.5" width="12" height="11" rx="1.5" stroke="#4B5563" stroke-width="1.1"/>
<circle cx="5.75" cy="12.75" r="0.75" stroke="#4B5563"/>
<defs>
<clipPath id="clip0_5933_25351">
<rect width="12" height="7" fill="white" transform="translate(2)"/>
</clipPath>
</defs>
</svg>
