<svg width="352" height="245" viewBox="0 0 352 245" fill="none" xmlns="http://www.w3.org/2000/svg">
<path d="M161.815 0.0830078C160.898 0.0830078 158.399 1.82899 155.331 5.14875H168.466C165.391 1.82899 162.844 0.0830078 161.815 0.0830078Z" fill="#D65430"/>
<path d="M44.5859 244.84C45.52 244.792 46.4477 244.658 47.3571 244.439C47.4892 244.583 47.6294 244.719 47.7575 244.84H89.4328C89.629 244.631 89.8332 244.439 90.0334 244.211C92.2964 243.153 94.3618 241.716 96.1404 239.962C96.4866 241.619 96.9523 243.249 97.5339 244.84H166.056C168.018 239.368 168.589 233.495 167.717 227.748C169.217 229.909 171.158 231.727 173.412 233.082C172.494 236.927 172.276 240.905 172.767 244.828H331.103C329.447 238.011 325.323 232.051 319.527 228.099C313.732 224.147 306.677 222.484 299.727 223.431C297.147 220.511 294.006 218.139 290.49 216.458C286.975 214.776 283.157 213.82 279.264 213.644C278.148 213.599 277.03 213.617 275.916 213.696C273.746 197.998 260.527 185.568 243.948 184.796C237.081 184.459 230.274 186.218 224.429 189.838C218.584 193.458 213.977 198.769 211.219 205.066C211.003 205.066 210.79 205.014 210.57 205.002C206.382 204.817 202.192 205.351 198.184 206.58C196.538 204.317 194.402 202.455 191.937 201.131C189.472 199.806 186.74 199.055 183.944 198.932C173.664 198.447 164.938 206.296 164.454 216.459C164.454 216.728 164.454 216.996 164.454 217.26C161.567 211.432 157.17 206.485 151.72 202.935C146.27 199.385 139.968 197.362 133.471 197.077C133.046 197.053 132.634 197.077 132.209 197.077C129.193 193.581 125.338 190.907 121.006 189.307C116.673 187.706 112.006 187.232 107.441 187.929C102.875 188.625 98.5612 190.469 94.9031 193.288C91.245 196.107 88.3624 199.808 86.5255 204.045C83.1186 201.296 79.1244 199.369 74.8525 198.412C70.5806 197.455 66.1457 197.495 61.8917 198.529C57.6378 199.562 53.679 201.562 50.3223 204.372C46.9656 207.182 44.3012 210.728 42.5356 214.733C40.5263 214.876 38.565 215.414 36.7644 216.317C34.9639 217.22 33.3596 218.47 32.0437 219.995C29.4266 218.801 26.6042 218.121 23.7303 217.993C11.4243 217.421 0.980478 226.803 0.403824 238.969C0.309908 240.946 0.485042 242.926 0.924416 244.856L44.5859 244.84Z" fill="#B7DFE5"/>
<path d="M168.631 244.84C169.408 244.06 170.118 243.216 170.753 242.317C170.633 243.15 170.585 243.999 170.517 244.84H351.254C348.357 239.242 343.416 234.976 337.455 232.927C331.495 230.878 324.975 231.205 319.249 233.839C317.809 232.171 316.053 230.804 314.083 229.817C312.113 228.829 309.967 228.241 307.768 228.085C305.836 223.698 302.918 219.816 299.243 216.739C295.567 213.663 291.232 211.475 286.574 210.344C281.915 209.214 277.059 209.173 272.383 210.223C267.706 211.273 263.334 213.386 259.606 216.399C257.595 211.762 254.44 207.712 250.436 204.628C246.432 201.544 241.71 199.527 236.714 198.767C231.717 198.006 226.61 198.527 221.87 200.28C217.129 202.034 212.912 204.962 209.613 208.791C209.148 208.791 208.692 208.759 208.227 208.791C201.116 209.102 194.219 211.316 188.255 215.2C182.29 219.085 177.477 224.498 174.317 230.876C174.317 230.587 174.317 230.295 174.317 230.003C173.788 218.878 164.238 210.288 152.985 210.813C149.925 210.95 146.936 211.774 144.239 213.225C141.541 214.675 139.205 216.714 137.403 219.19C133.017 217.841 128.432 217.256 123.848 217.461C123.611 217.461 123.375 217.521 123.135 217.533C120.118 210.639 115.078 204.825 108.681 200.862C102.284 196.899 94.834 194.975 87.3183 195.343C69.1657 196.188 54.7094 209.796 52.3307 226.979C51.1099 226.894 49.8852 226.876 48.6625 226.927C44.4025 227.118 40.2245 228.165 36.3778 230.005C32.5311 231.845 29.0945 234.442 26.2731 237.639C21.9273 237.044 17.5045 237.38 13.2988 238.626C9.0931 239.873 5.20102 242 1.88147 244.868L168.631 244.84Z" fill="#C9E6EA"/>
<path d="M172.527 117.344H152.38V244.844H172.527V117.344Z" fill="white"/>
<path d="M164.177 244.84C159.87 239.121 154.29 234.482 147.879 231.291C141.469 228.1 134.404 226.444 127.244 226.456C126.703 226.456 126.178 226.516 125.642 226.536C121.603 222.273 116.545 219.108 110.946 217.339C105.346 215.571 99.3883 215.256 93.6335 216.425C87.8787 217.594 82.5162 220.209 78.0507 224.023C73.5853 227.836 70.1638 232.724 68.1086 238.225C66.1545 237.791 64.1594 237.57 62.1578 237.564C55.2456 237.56 48.585 240.158 43.5007 244.84H164.177Z" fill="white"/>
<path d="M333.153 244.84C327.157 240.919 320.147 238.832 312.982 238.834C311.565 238.837 310.149 238.924 308.741 239.094C305.037 219.331 287.545 204.359 266.482 204.359C257.762 204.337 249.242 206.969 242.054 211.904C234.866 216.84 229.349 223.845 226.236 231.99C225.96 231.99 225.687 231.95 225.407 231.95C220.091 231.96 214.816 232.886 209.813 234.685C206.993 231.172 203.229 228.536 198.964 227.086C194.699 225.636 190.109 225.433 185.732 226.499C181.355 227.565 177.373 229.858 174.252 233.107C171.132 236.356 169.002 240.428 168.114 244.844L333.153 244.84Z" fill="white"/>
<path d="M153.245 115.75C145.316 138.888 161.819 150.69 162.456 163.004C163.092 150.678 179.595 138.876 171.666 115.75H153.245Z" fill="#EF92B1"/>
<path d="M155.604 115.466C149.701 131.64 161.979 139.894 162.452 148.503C162.924 139.886 175.206 131.64 169.303 115.466H155.604Z" fill="#EFD18D"/>
<path d="M157.486 115.47C153.209 126.386 162.111 131.956 162.452 137.779C162.796 131.956 171.698 126.386 167.417 115.47H157.486Z" fill="#F9E466"/>
<path d="M168.53 5.14844H155.396C149.777 11.2313 142.249 22.6523 139.045 38.4302H184.753C181.605 22.6523 174.177 11.2313 168.53 5.14844Z" fill="url(#paint0_linear_0_1)"/>
<path d="M139.045 38.4307C138.809 39.588 138.597 40.7573 138.412 41.9547H185.374C185.193 40.7533 184.973 39.588 184.753 38.4307H139.045Z" fill="url(#paint1_linear_0_1)"/>
<path d="M186.034 60.1357C186.499 54.0699 186.277 47.9711 185.374 41.9551H138.424C137.502 47.9691 137.267 54.0685 137.724 60.1357C138.965 76.8186 141.78 93.1531 145.332 106.436H178.782C182.194 93.1531 184.785 76.8146 186.034 60.1357Z" fill="url(#paint2_linear_0_1)"/>
<path d="M145.34 106.436C146.417 110.48 147.567 114.252 148.764 117.648H175.486C176.66 114.248 177.769 110.476 178.806 106.436H145.34Z" fill="url(#paint3_linear_0_1)"/>
<path d="M154.891 117.652H155.063C154.23 113.915 153.481 110.177 152.817 106.439H150.562C151.86 109.951 153.461 114.192 154.891 117.652Z" fill="url(#paint4_linear_0_1)"/>
<path d="M184.176 77.9316C182.93 87.5654 181.121 97.1179 178.758 106.54C185.109 113.92 187.864 126.319 187.864 126.319C194.452 105.339 194.82 96.2845 194.82 96.2845C192.594 89.4903 188.968 83.2382 184.176 77.9316Z" fill="#7D97A4"/>
<path d="M139.642 77.8711C134.824 83.1931 131.179 89.4694 128.946 96.292C128.946 96.292 129.31 105.334 135.901 126.326C135.901 126.326 138.737 113.564 145.284 106.231C142.843 96.898 140.959 87.4279 139.642 77.8711Z" fill="#7D97A4"/>
<path d="M176.972 60.6759C177.007 63.7229 176.135 66.7116 174.468 69.2622C172.801 71.8127 170.413 73.8101 167.607 75.0004C164.802 76.1907 161.707 76.5204 158.714 75.9474C155.721 75.3744 152.966 73.9247 150.799 71.7824C148.632 69.6401 147.15 66.902 146.543 63.9159C145.935 60.9298 146.229 57.8306 147.387 55.0119C148.545 52.1932 150.515 49.7824 153.046 48.0856C155.577 46.3889 158.555 45.4829 161.603 45.4827C163.609 45.4711 165.599 45.8549 167.457 46.6121C169.316 47.3694 171.007 48.4853 172.434 49.8961C173.861 51.3069 174.997 52.9851 175.775 54.8347C176.554 56.6843 176.961 58.6691 176.972 60.6759Z" fill="url(#paint5_linear_0_1)"/>
<path d="M176.427 60.6761C176.461 63.6136 175.62 66.4946 174.012 68.9532C172.405 71.4119 170.103 73.3371 167.398 74.4844C164.694 75.6317 161.71 75.9492 158.824 75.3966C155.939 74.8441 153.283 73.4463 151.194 71.381C149.105 69.3157 147.677 66.676 147.092 63.7974C146.507 60.9187 146.79 57.9309 147.906 55.2137C149.023 52.4965 150.921 50.1724 153.362 48.5368C155.802 46.9011 158.673 46.0277 161.611 46.0275C165.517 46.0083 169.271 47.5402 172.049 50.2866C174.827 53.0331 176.402 56.7697 176.427 60.6761Z" fill="url(#paint6_linear_0_1)"/>
<path d="M174.778 60.6758C174.812 63.2886 174.068 65.8526 172.641 68.0417C171.215 70.2309 169.169 71.9463 166.765 72.9699C164.361 73.9936 161.706 74.2792 159.14 73.7904C156.573 73.3017 154.209 72.0607 152.349 70.2252C150.489 68.3897 149.217 66.0426 148.695 63.4823C148.172 60.922 148.423 58.2642 149.415 55.8468C150.407 53.4293 152.095 51.3614 154.265 49.906C156.436 48.4505 158.99 47.6733 161.603 47.6731C165.073 47.6528 168.41 49.0108 170.88 51.4487C173.35 53.8866 174.752 57.2052 174.778 60.6758Z" fill="url(#paint7_linear_0_1)"/>
<path d="M174.041 60.676C174.069 63.1419 173.364 65.5607 172.015 67.6251C170.666 69.6894 168.733 71.306 166.463 72.2696C164.193 73.2331 161.688 73.5001 159.266 73.0366C156.843 72.5731 154.614 71.4 152.86 69.6663C151.106 67.9327 149.907 65.7168 149.415 63.3002C148.923 60.8836 149.161 58.3754 150.098 56.0942C151.035 53.813 152.629 51.8619 154.678 50.4887C156.726 49.1155 159.136 48.3822 161.603 48.382C163.226 48.3726 164.836 48.683 166.34 49.2957C167.844 49.9084 169.213 50.8113 170.368 51.9529C171.523 53.0945 172.442 54.4525 173.072 55.9492C173.702 57.4459 174.031 59.052 174.041 60.676Z" fill="url(#paint8_linear_0_1)"/>
<path d="M161.807 106.436H170.617C171.818 95.9918 171.818 93.2767 171.818 93.2767C171.818 93.2767 171.27 90.1571 168.11 85.6681C165.547 82.0159 162.075 77.707 162.075 77.707L161.807 106.436Z" fill="url(#paint9_linear_0_1)"/>
<path d="M161.707 117.652H169.716C170.032 113.804 170.341 110.007 170.617 106.439H161.807L161.707 117.652Z" fill="url(#paint10_linear_0_1)"/>
<path d="M168.482 117.652H168.647C170.064 114.236 171.75 109.963 173.052 106.439H170.737C170.078 110.19 169.326 113.928 168.482 117.652Z" fill="url(#paint11_linear_0_1)"/>
<path d="M162.58 128.164L163.16 96.9283C163.16 96.6373 163.045 96.3582 162.839 96.1524C162.633 95.9467 162.354 95.8311 162.063 95.8311C161.772 95.8311 161.493 95.9467 161.287 96.1524C161.081 96.3582 160.966 96.6373 160.966 96.9283L161.727 128.132L162.58 128.164Z" fill="url(#paint12_linear_0_1)"/>
<path d="M162.063 95.8562C162.352 95.8551 162.63 95.9687 162.836 96.1721C163.042 96.3755 163.158 96.6522 163.16 96.9414L162.884 79.4376C162.884 78.8409 162.668 77.7236 162.083 77.7236C161.499 77.7236 161.166 78.5726 161.166 79.1693L160.966 96.9294C160.97 96.6419 161.088 96.3678 161.293 96.1667C161.499 95.9657 161.776 95.8541 162.063 95.8562Z" fill="url(#paint13_linear_0_1)"/>
<path d="M144.724 41.9551H141.56C140.92 46.0574 140.558 50.1981 140.475 54.3491C140.046 73.3627 143.987 92.6646 147.703 106.436H150.806C147.174 92.6045 143.346 73.3026 143.766 54.3491C143.857 50.2033 144.176 46.0656 144.724 41.9551Z" fill="white"/>
<path d="M142.173 38.4307C141.948 39.576 141.744 40.7573 141.56 41.9547H144.723C144.888 40.7533 145.06 39.576 145.256 38.4307H142.173Z" fill="#C1D3DF"/>
<path d="M157.198 5.14844C152.332 11.1953 145.368 22.1958 142.173 38.4302H145.256C148.035 22.0596 154.026 11.0912 158.147 5.14844H157.198Z" fill="white"/>
<path d="M185.374 41.9551H138.424C138.424 42.0472 138.396 42.1393 138.384 42.2274H145.528C143.17 61.321 145.128 82.8414 151.363 106.256H145.292C145.302 106.318 145.318 106.378 145.34 106.436H178.79C178.79 106.376 178.818 106.32 178.834 106.256H172.183C178.422 82.8414 180.376 61.321 178.013 42.2274H185.414C185.402 42.1393 185.39 42.0672 185.374 41.9551ZM171.618 106.256H151.928C145.669 82.8294 143.706 61.309 146.081 42.2274H177.461C179.831 61.289 177.889 82.8254 171.618 106.256Z" fill="url(#paint14_linear_0_1)"/>
<defs>
<linearGradient id="paint0_linear_0_1" x1="139.057" y1="21.7913" x2="184.753" y2="21.7913" gradientUnits="userSpaceOnUse">
<stop stop-color="white"/>
<stop offset="1" stop-color="#BAC9D1"/>
</linearGradient>
<linearGradient id="paint1_linear_0_1" x1="138.424" y1="40.1927" x2="185.374" y2="40.1927" gradientUnits="userSpaceOnUse">
<stop stop-color="#A7B9C3"/>
<stop offset="1" stop-color="#555F65"/>
</linearGradient>
<linearGradient id="paint2_linear_0_1" x1="137.499" y1="74.1956" x2="186.271" y2="74.1956" gradientUnits="userSpaceOnUse">
<stop stop-color="white"/>
<stop offset="1" stop-color="#BAC9D1"/>
</linearGradient>
<linearGradient id="paint3_linear_0_1" x1="145.34" y1="112.042" x2="178.79" y2="112.042" gradientUnits="userSpaceOnUse">
<stop stop-color="#A7B9C3"/>
<stop offset="1" stop-color="#555F65"/>
</linearGradient>
<linearGradient id="paint4_linear_0_1" x1="155.063" y1="112.042" x2="150.562" y2="112.042" gradientUnits="userSpaceOnUse">
<stop stop-color="#30373C"/>
<stop offset="1" stop-color="#6E7A81"/>
</linearGradient>
<linearGradient id="paint5_linear_0_1" x1="146.233" y1="60.6759" x2="176.972" y2="60.6759" gradientUnits="userSpaceOnUse">
<stop stop-color="#BCCBD3"/>
<stop offset="1" stop-color="#7C888F"/>
</linearGradient>
<linearGradient id="paint6_linear_0_1" x1="146.786" y1="60.6801" x2="176.427" y2="60.6801" gradientUnits="userSpaceOnUse">
<stop stop-color="white"/>
<stop offset="1" stop-color="#BAC9D1"/>
</linearGradient>
<linearGradient id="paint7_linear_0_1" x1="148.432" y1="60.6758" x2="174.778" y2="60.6758" gradientUnits="userSpaceOnUse">
<stop stop-color="#859097"/>
<stop offset="1" stop-color="#BAC9D1"/>
</linearGradient>
<linearGradient id="paint8_linear_0_1" x1="149.164" y1="60.68" x2="174.041" y2="60.68" gradientUnits="userSpaceOnUse">
<stop stop-color="#BDD4EF"/>
<stop offset="1" stop-color="#0071A7"/>
</linearGradient>
<linearGradient id="paint9_linear_0_1" x1="161.807" y1="92.0793" x2="171.806" y2="92.0793" gradientUnits="userSpaceOnUse">
<stop stop-color="#8A9AA3"/>
<stop offset="1" stop-color="#BAC9D1"/>
</linearGradient>
<linearGradient id="paint10_linear_0_1" x1="161.707" y1="112.042" x2="170.621" y2="112.042" gradientUnits="userSpaceOnUse">
<stop stop-color="#30373C"/>
<stop offset="1" stop-color="#6E7A81"/>
</linearGradient>
<linearGradient id="paint11_linear_0_1" x1="168.482" y1="112.042" x2="173.052" y2="112.042" gradientUnits="userSpaceOnUse">
<stop stop-color="#30373C"/>
<stop offset="1" stop-color="#6E7A81"/>
</linearGradient>
<linearGradient id="paint12_linear_0_1" x1="160.966" y1="111.997" x2="163.16" y2="111.997" gradientUnits="userSpaceOnUse">
<stop stop-color="#BAC9D1"/>
<stop offset="1" stop-color="#95A1A9"/>
</linearGradient>
<linearGradient id="paint13_linear_0_1" x1="160.966" y1="87.3345" x2="163.16" y2="87.3345" gradientUnits="userSpaceOnUse">
<stop stop-color="white"/>
<stop offset="1" stop-color="#BAC9D1"/>
</linearGradient>
<linearGradient id="paint14_linear_0_1" x1="138.384" y1="74.1956" x2="185.414" y2="74.1956" gradientUnits="userSpaceOnUse">
<stop stop-color="#D4DDE2"/>
<stop offset="1" stop-color="#919FA7"/>
</linearGradient>
</defs>
</svg>
