<svg width="12" height="12" viewBox="0 0 12 12" fill="none" xmlns="http://www.w3.org/2000/svg">
<rect x="0.3" y="0.3" width="11.4" height="3.4" rx="0.7" fill="white" stroke="#2653F1" stroke-width="0.6"/>
<rect x="2.3" y="2.3" width="7.4" height="9.4" rx="0.7" fill="white" stroke="#2653F1" stroke-width="0.6"/>
<path d="M5.82322 10.1768C5.92085 10.2744 6.07915 10.2744 6.17678 10.1768L7.76777 8.58579C7.8654 8.48816 7.8654 8.32986 7.76777 8.23223C7.67014 8.1346 7.51184 8.1346 7.41421 8.23223L6 9.64645L4.58579 8.23223C4.48816 8.1346 4.32986 8.1346 4.23223 8.23223C4.1346 8.32986 4.1346 8.48816 4.23223 8.58579L5.82322 10.1768ZM5.75 5L5.75 10L6.25 10L6.25 5L5.75 5Z" fill="#2653F1"/>
</svg>
