<svg width="38" height="29" viewBox="0 0 38 29" fill="none" xmlns="http://www.w3.org/2000/svg">
<path d="M1.32125 18.5506C1.32125 18.5506 0.0433967 19.822 0.00246382 21.5941C-0.0273056 22.3946 0.208617 23.3015 0.932757 24.2374C0.932757 24.2374 0.944665 24.2553 0.97369 24.2902C1.22673 24.5551 1.53931 24.8021 1.93375 25.0022C1.98659 25.032 2.04539 25.061 2.10493 25.0788C2.16372 25.1026 2.22847 25.1316 2.29917 25.1554C2.4696 25.2202 2.66459 25.273 2.87595 25.3206C3.38278 25.4262 4.00049 25.4798 4.7544 25.4203C4.86604 25.4084 4.97842 25.3965 5.09601 25.3846C5.21359 25.3667 5.33193 25.3548 5.45547 25.3318C5.57901 25.3139 5.70256 25.2908 5.83205 25.267C5.84396 25.267 5.84991 25.267 5.86182 25.2611C5.87373 25.2611 5.88564 25.2611 5.89755 25.2551C7.08237 25.0223 8.5299 24.5342 10.2751 23.6772L3.0181 16.7666C2.44058 17.3536 1.87124 17.9495 1.32125 18.5506Z" fill="#2072EF"/>
<path d="M4.97363 14.8456L12.8841 22.3782C13.5956 22.1223 14.5103 21.9021 15.5671 21.8842L6.59086 13.3369C6.06096 13.8212 5.5199 14.3249 4.97363 14.8456Z" fill="#2072EF"/>
<path d="M8.85254 11.7921C8.85254 11.7921 26.7067 28.758 26.086 28.1294L27.4837 26.4451L10.539 10.3496C10.0269 10.7796 9.46132 11.2617 8.85254 11.7921Z" fill="#2072EF"/>
<path d="M14.0947 7.0191C14.0947 7.0191 13.6236 7.38438 12.8578 8.00187C12.8578 8.00187 12.7283 8.1023 12.4923 8.29647C12.4648 8.32103 12.4343 8.34334 12.4053 8.36566L29.2391 24.383L30.6569 22.6957L14.1401 6.96777C14.123 6.98562 14.1118 7.00199 14.0947 7.0191Z" fill="#2072EF"/>
<path d="M13.5056 1.13124C13.5056 1.13124 12.8678 1.34625 12.5664 1.84172L32.3482 20.6906L33.7704 19.0077L14.7306 0.854492C14.3049 0.916241 13.8911 1.00328 13.5056 1.13124Z" fill="#2072EF"/>
<path d="M22.7034 1.81481C22.7034 1.81481 21.0348 1.27024 18.9473 0.957031L35.6427 16.781L37.0418 15.1301L35.9277 14.0767L23.3018 2.05585C23.1046 1.97551 22.9073 1.89516 22.7034 1.81481Z" fill="#2072EF"/>
</svg>
